%TF.GenerationSoftware,KiCad,Pcbnew,9.0.7*%
%TF.CreationDate,2026-03-12T15:39:32-06:00*%
%TF.ProjectId,Final_Nano_Every_Shield,46696e61-6c5f-44e6-916e-6f5f45766572,rev?*%
%TF.SameCoordinates,Original*%
%TF.FileFunction,Copper,L1,Top*%
%TF.FilePolarity,Positive*%
%FSLAX46Y46*%
G04 Gerber Fmt 4.6, Leading zero omitted, Abs format (unit mm)*
G04 Created by KiCad (PCBNEW 9.0.7) date 2026-03-12 15:39:32*
%MOMM*%
%LPD*%
G01*
G04 APERTURE LIST*
G04 Aperture macros list*
%AMRoundRect*
0 Rectangle with rounded corners*
0 $1 Rounding radius*
0 $2 $3 $4 $5 $6 $7 $8 $9 X,Y pos of 4 corners*
0 Add a 4 corners polygon primitive as box body*
4,1,4,$2,$3,$4,$5,$6,$7,$8,$9,$2,$3,0*
0 Add four circle primitives for the rounded corners*
1,1,$1+$1,$2,$3*
1,1,$1+$1,$4,$5*
1,1,$1+$1,$6,$7*
1,1,$1+$1,$8,$9*
0 Add four rect primitives between the rounded corners*
20,1,$1+$1,$2,$3,$4,$5,0*
20,1,$1+$1,$4,$5,$6,$7,0*
20,1,$1+$1,$6,$7,$8,$9,0*
20,1,$1+$1,$8,$9,$2,$3,0*%
G04 Aperture macros list end*
%TA.AperFunction,ComponentPad*%
%ADD10R,1.800000X1.800000*%
%TD*%
%TA.AperFunction,ComponentPad*%
%ADD11C,1.800000*%
%TD*%
%TA.AperFunction,ComponentPad*%
%ADD12RoundRect,0.285000X0.665000X-0.715000X0.665000X0.715000X-0.665000X0.715000X-0.665000X-0.715000X0*%
%TD*%
%TA.AperFunction,ComponentPad*%
%ADD13C,2.000000*%
%TD*%
%TA.AperFunction,ComponentPad*%
%ADD14RoundRect,0.250001X1.149999X1.149999X-1.149999X1.149999X-1.149999X-1.149999X1.149999X-1.149999X0*%
%TD*%
%TA.AperFunction,ComponentPad*%
%ADD15C,2.800000*%
%TD*%
%TA.AperFunction,ComponentPad*%
%ADD16RoundRect,0.285000X-0.665000X0.667500X-0.665000X-0.667500X0.665000X-0.667500X0.665000X0.667500X0*%
%TD*%
%TA.AperFunction,ComponentPad*%
%ADD17C,1.600000*%
%TD*%
%TA.AperFunction,ComponentPad*%
%ADD18R,1.600000X1.600000*%
%TD*%
%TA.AperFunction,ComponentPad*%
%ADD19O,1.600000X1.600000*%
%TD*%
%TA.AperFunction,Conductor*%
%ADD20C,0.200000*%
%TD*%
G04 APERTURE END LIST*
D10*
%TO.P,O,1,K*%
%TO.N,GND*%
X105460000Y-100500000D03*
D11*
%TO.P,O,2,A*%
%TO.N,Net-(D5-A)*%
X108000000Y-100500000D03*
%TD*%
D12*
%TO.P,BME280,1,GND*%
%TO.N,GND*%
X141500000Y-75920000D03*
D13*
%TO.P,BME280,2,3V3*%
%TO.N,+3V3*%
X141500000Y-78460000D03*
%TO.P,BME280,3,SDA*%
%TO.N,/SDA*%
X141500000Y-81000000D03*
%TO.P,BME280,4,SCL*%
%TO.N,/SCL*%
X141500000Y-83540000D03*
%TO.P,BME280,5,CS*%
%TO.N,unconnected-(U4-CS-Pad5)*%
X141500000Y-86080000D03*
%TO.P,BME280,6,ADR*%
%TO.N,unconnected-(U4-ADR-Pad6)*%
X141500000Y-88620000D03*
%TD*%
D14*
%TO.P,VIN,1,Pin_1*%
%TO.N,GND*%
X110250000Y-52532500D03*
D15*
%TO.P,VIN,2,Pin_2*%
%TO.N,/VIN*%
X105250000Y-52532500D03*
%TD*%
D13*
%TO.P,U3,1,GRN*%
%TO.N,unconnected-(U3-GRN-Pad1)*%
X141000000Y-51340000D03*
%TO.P,U3,2,RX1*%
%TO.N,/TX1*%
X141000000Y-53880000D03*
%TO.P,U3,3,TX0*%
%TO.N,/RX1*%
X141000000Y-56420000D03*
%TO.P,U3,4,VCC*%
%TO.N,+3V3*%
X141000000Y-58960000D03*
D16*
%TO.P,U3,5,GND*%
%TO.N,GND*%
X141000000Y-61500000D03*
D13*
%TO.P,U3,6,BLK*%
%TO.N,unconnected-(U3-BLK-Pad6)*%
X141000000Y-64040000D03*
%TD*%
D17*
%TO.P,R3,1*%
%TO.N,/D4*%
X115000000Y-83000000D03*
%TO.P,R3,2*%
%TO.N,Net-(D3-A)*%
X112460000Y-83000000D03*
%TD*%
D10*
%TO.P,B2,1,K*%
%TO.N,GND*%
X105460000Y-110000000D03*
D11*
%TO.P,B2,2,A*%
%TO.N,Net-(D6-A)*%
X108000000Y-110000000D03*
%TD*%
D10*
%TO.P,Y,1,K*%
%TO.N,GND*%
X105460000Y-91000000D03*
D11*
%TO.P,Y,2,A*%
%TO.N,Net-(D4-A)*%
X108000000Y-91000000D03*
%TD*%
D17*
%TO.P,R5,1*%
%TO.N,/D6*%
X115000000Y-96000000D03*
%TO.P,R5,2*%
%TO.N,Net-(D5-A)*%
X112460000Y-96000000D03*
%TD*%
%TO.P,R6,1*%
%TO.N,/D7*%
X115000000Y-102500000D03*
%TO.P,R6,2*%
%TO.N,Net-(D6-A)*%
X112460000Y-102500000D03*
%TD*%
D10*
%TO.P,R,1,K*%
%TO.N,GND*%
X105460000Y-62500000D03*
D11*
%TO.P,R,2,A*%
%TO.N,Net-(D1-A)*%
X108000000Y-62500000D03*
%TD*%
D18*
%TO.P,Arduino Nano Every,1,TX1*%
%TO.N,/TX1*%
X119760000Y-68500000D03*
D19*
%TO.P,Arduino Nano Every,2,RX1*%
%TO.N,/RX1*%
X119760000Y-71040000D03*
%TO.P,Arduino Nano Every,3,~{RESET}*%
%TO.N,unconnected-(A1-~{RESET}-Pad3)*%
X119760000Y-73580000D03*
%TO.P,Arduino Nano Every,4,GND*%
%TO.N,GND*%
X119760000Y-76120000D03*
%TO.P,Arduino Nano Every,5,D2*%
%TO.N,/D2*%
X119760000Y-78660000D03*
%TO.P,Arduino Nano Every,6,D3*%
%TO.N,/D3*%
X119760000Y-81200000D03*
%TO.P,Arduino Nano Every,7,D4*%
%TO.N,/D4*%
X119760000Y-83740000D03*
%TO.P,Arduino Nano Every,8,D5*%
%TO.N,/D5*%
X119760000Y-86280000D03*
%TO.P,Arduino Nano Every,9,D6*%
%TO.N,/D6*%
X119760000Y-88820000D03*
%TO.P,Arduino Nano Every,10,D7*%
%TO.N,/D7*%
X119760000Y-91360000D03*
%TO.P,Arduino Nano Every,11,D8*%
%TO.N,/D8*%
X119760000Y-93900000D03*
%TO.P,Arduino Nano Every,12,D9*%
%TO.N,unconnected-(A1-D9-Pad12)*%
X119760000Y-96440000D03*
%TO.P,Arduino Nano Every,13,D10*%
%TO.N,unconnected-(A1-D10-Pad13)*%
X119760000Y-98980000D03*
%TO.P,Arduino Nano Every,14,MOSI*%
%TO.N,unconnected-(A1-MOSI-Pad14)*%
X119760000Y-101520000D03*
%TO.P,Arduino Nano Every,15,MISO*%
%TO.N,unconnected-(A1-MISO-Pad15)*%
X119760000Y-104060000D03*
%TO.P,Arduino Nano Every,16,SCK*%
%TO.N,unconnected-(A1-SCK-Pad16)*%
X135000000Y-104060000D03*
%TO.P,Arduino Nano Every,17,3V3*%
%TO.N,+3V3*%
X135000000Y-101520000D03*
%TO.P,Arduino Nano Every,18,AREF*%
%TO.N,unconnected-(A1-AREF-Pad18)*%
X135000000Y-98980000D03*
%TO.P,Arduino Nano Every,19,A0*%
%TO.N,unconnected-(A1-A0-Pad19)*%
X135000000Y-96440000D03*
%TO.P,Arduino Nano Every,20,A1*%
%TO.N,unconnected-(A1-A1-Pad20)*%
X135000000Y-93900000D03*
%TO.P,Arduino Nano Every,21,A2*%
%TO.N,unconnected-(A1-A2-Pad21)*%
X135000000Y-91360000D03*
%TO.P,Arduino Nano Every,22,A3*%
%TO.N,unconnected-(A1-A3-Pad22)*%
X135000000Y-88820000D03*
%TO.P,Arduino Nano Every,23,SDA/A4*%
%TO.N,/SDA*%
X135000000Y-86280000D03*
%TO.P,Arduino Nano Every,24,SCL/A5*%
%TO.N,/SCL*%
X135000000Y-83740000D03*
%TO.P,Arduino Nano Every,25,A6*%
%TO.N,unconnected-(A1-A6-Pad25)*%
X135000000Y-81200000D03*
%TO.P,Arduino Nano Every,26,A7*%
%TO.N,unconnected-(A1-A7-Pad26)*%
X135000000Y-78660000D03*
%TO.P,Arduino Nano Every,27,+5V*%
%TO.N,+5V*%
X135000000Y-76120000D03*
%TO.P,Arduino Nano Every,28,~{RESET}*%
%TO.N,unconnected-(A1-~{RESET}-Pad28)*%
X135000000Y-73580000D03*
%TO.P,Arduino Nano Every,29,GND*%
%TO.N,GND*%
X135000000Y-71040000D03*
%TO.P,Arduino Nano Every,30,VIN*%
%TO.N,/VIN*%
X135000000Y-68500000D03*
%TD*%
D14*
%TO.P,DS18B20,1,Pin_1*%
%TO.N,GND*%
X131750000Y-52032500D03*
D15*
%TO.P,DS18B20,2,Pin_2*%
%TO.N,+3V3*%
X126750000Y-52032500D03*
%TO.P,DS18B20,3,Pin_3*%
%TO.N,/D8*%
X121750000Y-52032500D03*
%TD*%
D17*
%TO.P,R2,1*%
%TO.N,/D3*%
X115000000Y-76500000D03*
%TO.P,R2,2*%
%TO.N,Net-(D2-A)*%
X112460000Y-76500000D03*
%TD*%
%TO.P,R1,1*%
%TO.N,/D2*%
X115000000Y-70000000D03*
%TO.P,R1,2*%
%TO.N,Net-(D1-A)*%
X112460000Y-70000000D03*
%TD*%
D10*
%TO.P,D2,1,K*%
%TO.N,GND*%
X105460000Y-72000000D03*
D11*
%TO.P,D2,2,A*%
%TO.N,Net-(D2-A)*%
X108000000Y-72000000D03*
%TD*%
D17*
%TO.P,R4,1*%
%TO.N,/D5*%
X115000000Y-89500000D03*
%TO.P,R4,2*%
%TO.N,Net-(D4-A)*%
X112460000Y-89500000D03*
%TD*%
D16*
%TO.P,U2,1,GND*%
%TO.N,GND*%
X160000000Y-98500000D03*
D13*
%TO.P,U2,2,3V3*%
%TO.N,+3V3*%
X157460000Y-98500000D03*
%TO.P,U2,3,CS*%
%TO.N,unconnected-(U2-CS-Pad3)*%
X154920000Y-98500000D03*
%TO.P,U2,4,INT1*%
%TO.N,unconnected-(U2-INT1-Pad4)*%
X152380000Y-98500000D03*
%TO.P,U2,5,INT2*%
%TO.N,unconnected-(U2-INT2-Pad5)*%
X149840000Y-98500000D03*
%TO.P,U2,6,SDO*%
%TO.N,unconnected-(U2-SDO-Pad6)*%
X147300000Y-98500000D03*
%TO.P,U2,7,SDA*%
%TO.N,/SDA*%
X144760000Y-98500000D03*
%TO.P,U2,8,SCL*%
%TO.N,/SCL*%
X142220000Y-98500000D03*
%TD*%
D10*
%TO.P,B1,1,K*%
%TO.N,GND*%
X105460000Y-81500000D03*
D11*
%TO.P,B1,2,A*%
%TO.N,Net-(D3-A)*%
X108000000Y-81500000D03*
%TD*%
D20*
%TO.N,+3V3*%
X142751000Y-60711000D02*
X142751000Y-77209000D01*
X135000000Y-101520000D02*
X154440000Y-101520000D01*
X141500000Y-78460000D02*
X157460000Y-94420000D01*
X126750000Y-52032500D02*
X128743500Y-50039000D01*
X154440000Y-101520000D02*
X157460000Y-98500000D01*
X142301000Y-57659000D02*
X141000000Y-58960000D01*
X128743500Y-50039000D02*
X141538892Y-50039000D01*
X157460000Y-94420000D02*
X157460000Y-98500000D01*
X141538892Y-50039000D02*
X142301000Y-50801108D01*
X141000000Y-58960000D02*
X142751000Y-60711000D01*
X142751000Y-77209000D02*
X141500000Y-78460000D01*
X142301000Y-50801108D02*
X142301000Y-57659000D01*
%TO.N,/SCL*%
X141300000Y-83740000D02*
X141500000Y-83540000D01*
X137000000Y-85740000D02*
X135000000Y-83740000D01*
X137000000Y-93280000D02*
X137000000Y-85740000D01*
X142220000Y-98500000D02*
X137000000Y-93280000D01*
X135000000Y-83740000D02*
X141300000Y-83740000D01*
X135200000Y-83540000D02*
X135000000Y-83740000D01*
%TO.N,/SDA*%
X133899000Y-85179000D02*
X135000000Y-86280000D01*
X136101000Y-87381000D02*
X135000000Y-86280000D01*
X144760000Y-98500000D02*
X143459000Y-99801000D01*
X139861000Y-82639000D02*
X134543950Y-82639000D01*
X133899000Y-83283950D02*
X133899000Y-85179000D01*
X134543950Y-82639000D02*
X133899000Y-83283950D01*
X141681108Y-99801000D02*
X136101000Y-94220892D01*
X143459000Y-99801000D02*
X141681108Y-99801000D01*
X139861000Y-82639000D02*
X141500000Y-81000000D01*
X136101000Y-94220892D02*
X136101000Y-87381000D01*
%TO.N,/D8*%
X113701000Y-83931900D02*
X113701000Y-57201000D01*
X119760000Y-93900000D02*
X120861000Y-92799000D01*
X118869500Y-52032500D02*
X121750000Y-52032500D01*
X113701000Y-57201000D02*
X118869500Y-52032500D01*
X120216050Y-85179000D02*
X114948100Y-85179000D01*
X120861000Y-85823950D02*
X120216050Y-85179000D01*
X114948100Y-85179000D02*
X113701000Y-83931900D01*
X120861000Y-92799000D02*
X120861000Y-85823950D01*
%TO.N,/D5*%
X115000000Y-89500000D02*
X116540000Y-89500000D01*
X116540000Y-89500000D02*
X119760000Y-86280000D01*
%TO.N,/D2*%
X115000000Y-70000000D02*
X115000000Y-73900000D01*
X115000000Y-73900000D02*
X119760000Y-78660000D01*
%TO.N,/D3*%
X115000000Y-76500000D02*
X119700000Y-81200000D01*
X119700000Y-81200000D02*
X119760000Y-81200000D01*
%TO.N,/D4*%
X119020000Y-83000000D02*
X119760000Y-83740000D01*
X115000000Y-83000000D02*
X119020000Y-83000000D01*
%TO.N,/D7*%
X115000000Y-102500000D02*
X116101000Y-101399000D01*
X116101000Y-101399000D02*
X116101000Y-95019000D01*
X116101000Y-95019000D02*
X119760000Y-91360000D01*
%TO.N,/D6*%
X115000000Y-93580000D02*
X119760000Y-88820000D01*
X115000000Y-96000000D02*
X115000000Y-93580000D01*
%TO.N,/TX1*%
X121199000Y-69939000D02*
X119760000Y-68500000D01*
X141000000Y-53880000D02*
X139298000Y-55582000D01*
X136561000Y-69939000D02*
X121199000Y-69939000D01*
X139298000Y-55582000D02*
X139298000Y-67202000D01*
X139298000Y-67202000D02*
X136561000Y-69939000D01*
%TO.N,/RX1*%
X139699000Y-57721000D02*
X139699000Y-69301000D01*
X141000000Y-56420000D02*
X139699000Y-57721000D01*
X136521000Y-72479000D02*
X121199000Y-72479000D01*
X121199000Y-72479000D02*
X119760000Y-71040000D01*
X139699000Y-69301000D02*
X136521000Y-72479000D01*
%TO.N,Net-(D1-A)*%
X108000000Y-62500000D02*
X108000000Y-65540000D01*
X108000000Y-65540000D02*
X112460000Y-70000000D01*
%TO.N,Net-(D2-A)*%
X108000000Y-72000000D02*
X112460000Y-76460000D01*
X112460000Y-76460000D02*
X112460000Y-76500000D01*
%TO.N,Net-(D3-A)*%
X109500000Y-83000000D02*
X112460000Y-83000000D01*
X108000000Y-81500000D02*
X109500000Y-83000000D01*
%TO.N,Net-(D4-A)*%
X109500000Y-89500000D02*
X112460000Y-89500000D01*
X108000000Y-91000000D02*
X109500000Y-89500000D01*
%TO.N,Net-(D5-A)*%
X112460000Y-96040000D02*
X112460000Y-96000000D01*
X108000000Y-100500000D02*
X112460000Y-96040000D01*
%TO.N,Net-(D6-A)*%
X108000000Y-106960000D02*
X112460000Y-102500000D01*
X108000000Y-110000000D02*
X108000000Y-106960000D01*
%TD*%
M02*
