%TF.GenerationSoftware,KiCad,Pcbnew,9.0.7*%
%TF.CreationDate,2026-03-12T15:39:33-06:00*%
%TF.ProjectId,Final_Nano_Every_Shield,46696e61-6c5f-44e6-916e-6f5f45766572,rev?*%
%TF.SameCoordinates,Original*%
%TF.FileFunction,Soldermask,Top*%
%TF.FilePolarity,Negative*%
%FSLAX46Y46*%
G04 Gerber Fmt 4.6, Leading zero omitted, Abs format (unit mm)*
G04 Created by KiCad (PCBNEW 9.0.7) date 2026-03-12 15:39:33*
%MOMM*%
%LPD*%
G01*
G04 APERTURE LIST*
G04 Aperture macros list*
%AMRoundRect*
0 Rectangle with rounded corners*
0 $1 Rounding radius*
0 $2 $3 $4 $5 $6 $7 $8 $9 X,Y pos of 4 corners*
0 Add a 4 corners polygon primitive as box body*
4,1,4,$2,$3,$4,$5,$6,$7,$8,$9,$2,$3,0*
0 Add four circle primitives for the rounded corners*
1,1,$1+$1,$2,$3*
1,1,$1+$1,$4,$5*
1,1,$1+$1,$6,$7*
1,1,$1+$1,$8,$9*
0 Add four rect primitives between the rounded corners*
20,1,$1+$1,$2,$3,$4,$5,0*
20,1,$1+$1,$4,$5,$6,$7,0*
20,1,$1+$1,$6,$7,$8,$9,0*
20,1,$1+$1,$8,$9,$2,$3,0*%
G04 Aperture macros list end*
%ADD10R,1.800000X1.800000*%
%ADD11C,1.800000*%
%ADD12RoundRect,0.285000X0.665000X-0.715000X0.665000X0.715000X-0.665000X0.715000X-0.665000X-0.715000X0*%
%ADD13C,2.000000*%
%ADD14RoundRect,0.250001X1.149999X1.149999X-1.149999X1.149999X-1.149999X-1.149999X1.149999X-1.149999X0*%
%ADD15C,2.800000*%
%ADD16RoundRect,0.285000X-0.665000X0.667500X-0.665000X-0.667500X0.665000X-0.667500X0.665000X0.667500X0*%
%ADD17C,1.600000*%
%ADD18R,1.600000X1.600000*%
%ADD19O,1.600000X1.600000*%
G04 APERTURE END LIST*
D10*
%TO.C,O*%
X105460000Y-100500000D03*
D11*
X108000000Y-100500000D03*
%TD*%
D12*
%TO.C,BME280*%
X141500000Y-75920000D03*
D13*
X141500000Y-78460000D03*
X141500000Y-81000000D03*
X141500000Y-83540000D03*
X141500000Y-86080000D03*
X141500000Y-88620000D03*
%TD*%
D14*
%TO.C,VIN*%
X110250000Y-52532500D03*
D15*
X105250000Y-52532500D03*
%TD*%
D13*
%TO.C,U3*%
X141000000Y-51340000D03*
X141000000Y-53880000D03*
X141000000Y-56420000D03*
X141000000Y-58960000D03*
D16*
X141000000Y-61500000D03*
D13*
X141000000Y-64040000D03*
%TD*%
D17*
%TO.C,R3*%
X115000000Y-83000000D03*
X112460000Y-83000000D03*
%TD*%
D10*
%TO.C,B2*%
X105460000Y-110000000D03*
D11*
X108000000Y-110000000D03*
%TD*%
D10*
%TO.C,Y*%
X105460000Y-91000000D03*
D11*
X108000000Y-91000000D03*
%TD*%
D17*
%TO.C,R5*%
X115000000Y-96000000D03*
X112460000Y-96000000D03*
%TD*%
%TO.C,R6*%
X115000000Y-102500000D03*
X112460000Y-102500000D03*
%TD*%
D10*
%TO.C,R*%
X105460000Y-62500000D03*
D11*
X108000000Y-62500000D03*
%TD*%
D18*
%TO.C,Arduino Nano Every*%
X119760000Y-68500000D03*
D19*
X119760000Y-71040000D03*
X119760000Y-73580000D03*
X119760000Y-76120000D03*
X119760000Y-78660000D03*
X119760000Y-81200000D03*
X119760000Y-83740000D03*
X119760000Y-86280000D03*
X119760000Y-88820000D03*
X119760000Y-91360000D03*
X119760000Y-93900000D03*
X119760000Y-96440000D03*
X119760000Y-98980000D03*
X119760000Y-101520000D03*
X119760000Y-104060000D03*
X135000000Y-104060000D03*
X135000000Y-101520000D03*
X135000000Y-98980000D03*
X135000000Y-96440000D03*
X135000000Y-93900000D03*
X135000000Y-91360000D03*
X135000000Y-88820000D03*
X135000000Y-86280000D03*
X135000000Y-83740000D03*
X135000000Y-81200000D03*
X135000000Y-78660000D03*
X135000000Y-76120000D03*
X135000000Y-73580000D03*
X135000000Y-71040000D03*
X135000000Y-68500000D03*
%TD*%
D14*
%TO.C,DS18B20*%
X131750000Y-52032500D03*
D15*
X126750000Y-52032500D03*
X121750000Y-52032500D03*
%TD*%
D17*
%TO.C,R2*%
X115000000Y-76500000D03*
X112460000Y-76500000D03*
%TD*%
%TO.C,R1*%
X115000000Y-70000000D03*
X112460000Y-70000000D03*
%TD*%
D10*
%TO.C,D2*%
X105460000Y-72000000D03*
D11*
X108000000Y-72000000D03*
%TD*%
D17*
%TO.C,R4*%
X115000000Y-89500000D03*
X112460000Y-89500000D03*
%TD*%
D16*
%TO.C,U2*%
X160000000Y-98500000D03*
D13*
X157460000Y-98500000D03*
X154920000Y-98500000D03*
X152380000Y-98500000D03*
X149840000Y-98500000D03*
X147300000Y-98500000D03*
X144760000Y-98500000D03*
X142220000Y-98500000D03*
%TD*%
D10*
%TO.C,B1*%
X105460000Y-81500000D03*
D11*
X108000000Y-81500000D03*
%TD*%
M02*
