%TF.GenerationSoftware,KiCad,Pcbnew,9.0.7*%
%TF.CreationDate,2026-03-12T15:39:33-06:00*%
%TF.ProjectId,Final_Nano_Every_Shield,46696e61-6c5f-44e6-916e-6f5f45766572,rev?*%
%TF.SameCoordinates,Original*%
%TF.FileFunction,Copper,L2,Bot*%
%TF.FilePolarity,Positive*%
%FSLAX46Y46*%
G04 Gerber Fmt 4.6, Leading zero omitted, Abs format (unit mm)*
G04 Created by KiCad (PCBNEW 9.0.7) date 2026-03-12 15:39:33*
%MOMM*%
%LPD*%
G01*
G04 APERTURE LIST*
G04 Aperture macros list*
%AMRoundRect*
0 Rectangle with rounded corners*
0 $1 Rounding radius*
0 $2 $3 $4 $5 $6 $7 $8 $9 X,Y pos of 4 corners*
0 Add a 4 corners polygon primitive as box body*
4,1,4,$2,$3,$4,$5,$6,$7,$8,$9,$2,$3,0*
0 Add four circle primitives for the rounded corners*
1,1,$1+$1,$2,$3*
1,1,$1+$1,$4,$5*
1,1,$1+$1,$6,$7*
1,1,$1+$1,$8,$9*
0 Add four rect primitives between the rounded corners*
20,1,$1+$1,$2,$3,$4,$5,0*
20,1,$1+$1,$4,$5,$6,$7,0*
20,1,$1+$1,$6,$7,$8,$9,0*
20,1,$1+$1,$8,$9,$2,$3,0*%
G04 Aperture macros list end*
%TA.AperFunction,ComponentPad*%
%ADD10R,1.800000X1.800000*%
%TD*%
%TA.AperFunction,ComponentPad*%
%ADD11C,1.800000*%
%TD*%
%TA.AperFunction,ComponentPad*%
%ADD12RoundRect,0.285000X0.665000X-0.715000X0.665000X0.715000X-0.665000X0.715000X-0.665000X-0.715000X0*%
%TD*%
%TA.AperFunction,ComponentPad*%
%ADD13C,2.000000*%
%TD*%
%TA.AperFunction,ComponentPad*%
%ADD14RoundRect,0.250001X1.149999X1.149999X-1.149999X1.149999X-1.149999X-1.149999X1.149999X-1.149999X0*%
%TD*%
%TA.AperFunction,ComponentPad*%
%ADD15C,2.800000*%
%TD*%
%TA.AperFunction,ComponentPad*%
%ADD16RoundRect,0.285000X-0.665000X0.667500X-0.665000X-0.667500X0.665000X-0.667500X0.665000X0.667500X0*%
%TD*%
%TA.AperFunction,ComponentPad*%
%ADD17C,1.600000*%
%TD*%
%TA.AperFunction,ComponentPad*%
%ADD18R,1.600000X1.600000*%
%TD*%
%TA.AperFunction,ComponentPad*%
%ADD19O,1.600000X1.600000*%
%TD*%
%TA.AperFunction,Conductor*%
%ADD20C,0.200000*%
%TD*%
G04 APERTURE END LIST*
D10*
%TO.P,O,1,K*%
%TO.N,GND*%
X105460000Y-100500000D03*
D11*
%TO.P,O,2,A*%
%TO.N,Net-(D5-A)*%
X108000000Y-100500000D03*
%TD*%
D12*
%TO.P,BME280,1,GND*%
%TO.N,GND*%
X141500000Y-75920000D03*
D13*
%TO.P,BME280,2,3V3*%
%TO.N,+3V3*%
X141500000Y-78460000D03*
%TO.P,BME280,3,SDA*%
%TO.N,/SDA*%
X141500000Y-81000000D03*
%TO.P,BME280,4,SCL*%
%TO.N,/SCL*%
X141500000Y-83540000D03*
%TO.P,BME280,5,CS*%
%TO.N,unconnected-(U4-CS-Pad5)*%
X141500000Y-86080000D03*
%TO.P,BME280,6,ADR*%
%TO.N,unconnected-(U4-ADR-Pad6)*%
X141500000Y-88620000D03*
%TD*%
D14*
%TO.P,VIN,1,Pin_1*%
%TO.N,GND*%
X110250000Y-52532500D03*
D15*
%TO.P,VIN,2,Pin_2*%
%TO.N,/VIN*%
X105250000Y-52532500D03*
%TD*%
D13*
%TO.P,U3,1,GRN*%
%TO.N,unconnected-(U3-GRN-Pad1)*%
X141000000Y-51340000D03*
%TO.P,U3,2,RX1*%
%TO.N,/TX1*%
X141000000Y-53880000D03*
%TO.P,U3,3,TX0*%
%TO.N,/RX1*%
X141000000Y-56420000D03*
%TO.P,U3,4,VCC*%
%TO.N,+3V3*%
X141000000Y-58960000D03*
D16*
%TO.P,U3,5,GND*%
%TO.N,GND*%
X141000000Y-61500000D03*
D13*
%TO.P,U3,6,BLK*%
%TO.N,unconnected-(U3-BLK-Pad6)*%
X141000000Y-64040000D03*
%TD*%
D17*
%TO.P,R3,1*%
%TO.N,/D4*%
X115000000Y-83000000D03*
%TO.P,R3,2*%
%TO.N,Net-(D3-A)*%
X112460000Y-83000000D03*
%TD*%
D10*
%TO.P,B2,1,K*%
%TO.N,GND*%
X105460000Y-110000000D03*
D11*
%TO.P,B2,2,A*%
%TO.N,Net-(D6-A)*%
X108000000Y-110000000D03*
%TD*%
D10*
%TO.P,Y,1,K*%
%TO.N,GND*%
X105460000Y-91000000D03*
D11*
%TO.P,Y,2,A*%
%TO.N,Net-(D4-A)*%
X108000000Y-91000000D03*
%TD*%
D17*
%TO.P,R5,1*%
%TO.N,/D6*%
X115000000Y-96000000D03*
%TO.P,R5,2*%
%TO.N,Net-(D5-A)*%
X112460000Y-96000000D03*
%TD*%
%TO.P,R6,1*%
%TO.N,/D7*%
X115000000Y-102500000D03*
%TO.P,R6,2*%
%TO.N,Net-(D6-A)*%
X112460000Y-102500000D03*
%TD*%
D10*
%TO.P,R,1,K*%
%TO.N,GND*%
X105460000Y-62500000D03*
D11*
%TO.P,R,2,A*%
%TO.N,Net-(D1-A)*%
X108000000Y-62500000D03*
%TD*%
D18*
%TO.P,Arduino Nano Every,1,TX1*%
%TO.N,/TX1*%
X119760000Y-68500000D03*
D19*
%TO.P,Arduino Nano Every,2,RX1*%
%TO.N,/RX1*%
X119760000Y-71040000D03*
%TO.P,Arduino Nano Every,3,~{RESET}*%
%TO.N,unconnected-(A1-~{RESET}-Pad3)*%
X119760000Y-73580000D03*
%TO.P,Arduino Nano Every,4,GND*%
%TO.N,GND*%
X119760000Y-76120000D03*
%TO.P,Arduino Nano Every,5,D2*%
%TO.N,/D2*%
X119760000Y-78660000D03*
%TO.P,Arduino Nano Every,6,D3*%
%TO.N,/D3*%
X119760000Y-81200000D03*
%TO.P,Arduino Nano Every,7,D4*%
%TO.N,/D4*%
X119760000Y-83740000D03*
%TO.P,Arduino Nano Every,8,D5*%
%TO.N,/D5*%
X119760000Y-86280000D03*
%TO.P,Arduino Nano Every,9,D6*%
%TO.N,/D6*%
X119760000Y-88820000D03*
%TO.P,Arduino Nano Every,10,D7*%
%TO.N,/D7*%
X119760000Y-91360000D03*
%TO.P,Arduino Nano Every,11,D8*%
%TO.N,/D8*%
X119760000Y-93900000D03*
%TO.P,Arduino Nano Every,12,D9*%
%TO.N,unconnected-(A1-D9-Pad12)*%
X119760000Y-96440000D03*
%TO.P,Arduino Nano Every,13,D10*%
%TO.N,unconnected-(A1-D10-Pad13)*%
X119760000Y-98980000D03*
%TO.P,Arduino Nano Every,14,MOSI*%
%TO.N,unconnected-(A1-MOSI-Pad14)*%
X119760000Y-101520000D03*
%TO.P,Arduino Nano Every,15,MISO*%
%TO.N,unconnected-(A1-MISO-Pad15)*%
X119760000Y-104060000D03*
%TO.P,Arduino Nano Every,16,SCK*%
%TO.N,unconnected-(A1-SCK-Pad16)*%
X135000000Y-104060000D03*
%TO.P,Arduino Nano Every,17,3V3*%
%TO.N,+3V3*%
X135000000Y-101520000D03*
%TO.P,Arduino Nano Every,18,AREF*%
%TO.N,unconnected-(A1-AREF-Pad18)*%
X135000000Y-98980000D03*
%TO.P,Arduino Nano Every,19,A0*%
%TO.N,unconnected-(A1-A0-Pad19)*%
X135000000Y-96440000D03*
%TO.P,Arduino Nano Every,20,A1*%
%TO.N,unconnected-(A1-A1-Pad20)*%
X135000000Y-93900000D03*
%TO.P,Arduino Nano Every,21,A2*%
%TO.N,unconnected-(A1-A2-Pad21)*%
X135000000Y-91360000D03*
%TO.P,Arduino Nano Every,22,A3*%
%TO.N,unconnected-(A1-A3-Pad22)*%
X135000000Y-88820000D03*
%TO.P,Arduino Nano Every,23,SDA/A4*%
%TO.N,/SDA*%
X135000000Y-86280000D03*
%TO.P,Arduino Nano Every,24,SCL/A5*%
%TO.N,/SCL*%
X135000000Y-83740000D03*
%TO.P,Arduino Nano Every,25,A6*%
%TO.N,unconnected-(A1-A6-Pad25)*%
X135000000Y-81200000D03*
%TO.P,Arduino Nano Every,26,A7*%
%TO.N,unconnected-(A1-A7-Pad26)*%
X135000000Y-78660000D03*
%TO.P,Arduino Nano Every,27,+5V*%
%TO.N,+5V*%
X135000000Y-76120000D03*
%TO.P,Arduino Nano Every,28,~{RESET}*%
%TO.N,unconnected-(A1-~{RESET}-Pad28)*%
X135000000Y-73580000D03*
%TO.P,Arduino Nano Every,29,GND*%
%TO.N,GND*%
X135000000Y-71040000D03*
%TO.P,Arduino Nano Every,30,VIN*%
%TO.N,/VIN*%
X135000000Y-68500000D03*
%TD*%
D14*
%TO.P,DS18B20,1,Pin_1*%
%TO.N,GND*%
X131750000Y-52032500D03*
D15*
%TO.P,DS18B20,2,Pin_2*%
%TO.N,+3V3*%
X126750000Y-52032500D03*
%TO.P,DS18B20,3,Pin_3*%
%TO.N,/D8*%
X121750000Y-52032500D03*
%TD*%
D17*
%TO.P,R2,1*%
%TO.N,/D3*%
X115000000Y-76500000D03*
%TO.P,R2,2*%
%TO.N,Net-(D2-A)*%
X112460000Y-76500000D03*
%TD*%
%TO.P,R1,1*%
%TO.N,/D2*%
X115000000Y-70000000D03*
%TO.P,R1,2*%
%TO.N,Net-(D1-A)*%
X112460000Y-70000000D03*
%TD*%
D10*
%TO.P,D2,1,K*%
%TO.N,GND*%
X105460000Y-72000000D03*
D11*
%TO.P,D2,2,A*%
%TO.N,Net-(D2-A)*%
X108000000Y-72000000D03*
%TD*%
D17*
%TO.P,R4,1*%
%TO.N,/D5*%
X115000000Y-89500000D03*
%TO.P,R4,2*%
%TO.N,Net-(D4-A)*%
X112460000Y-89500000D03*
%TD*%
D16*
%TO.P,U2,1,GND*%
%TO.N,GND*%
X160000000Y-98500000D03*
D13*
%TO.P,U2,2,3V3*%
%TO.N,+3V3*%
X157460000Y-98500000D03*
%TO.P,U2,3,CS*%
%TO.N,unconnected-(U2-CS-Pad3)*%
X154920000Y-98500000D03*
%TO.P,U2,4,INT1*%
%TO.N,unconnected-(U2-INT1-Pad4)*%
X152380000Y-98500000D03*
%TO.P,U2,5,INT2*%
%TO.N,unconnected-(U2-INT2-Pad5)*%
X149840000Y-98500000D03*
%TO.P,U2,6,SDO*%
%TO.N,unconnected-(U2-SDO-Pad6)*%
X147300000Y-98500000D03*
%TO.P,U2,7,SDA*%
%TO.N,/SDA*%
X144760000Y-98500000D03*
%TO.P,U2,8,SCL*%
%TO.N,/SCL*%
X142220000Y-98500000D03*
%TD*%
D10*
%TO.P,B1,1,K*%
%TO.N,GND*%
X105460000Y-81500000D03*
D11*
%TO.P,B1,2,A*%
%TO.N,Net-(D3-A)*%
X108000000Y-81500000D03*
%TD*%
D20*
%TO.N,/VIN*%
X121861000Y-68500000D02*
X135000000Y-68500000D01*
X105893500Y-52532500D02*
X121861000Y-68500000D01*
X105250000Y-52532500D02*
X105893500Y-52532500D01*
%TD*%
%TA.AperFunction,Conductor*%
%TO.N,GND*%
G36*
X102970942Y-40520185D02*
G01*
X103016697Y-40572989D01*
X103026641Y-40642147D01*
X102997616Y-40705703D01*
X102969875Y-40729494D01*
X102913932Y-40764645D01*
X102673624Y-40956283D01*
X102456283Y-41173624D01*
X102264645Y-41413932D01*
X102101116Y-41674187D01*
X101967760Y-41951103D01*
X101967754Y-41951117D01*
X101866244Y-42241215D01*
X101866240Y-42241227D01*
X101797846Y-42540882D01*
X101797844Y-42540898D01*
X101763432Y-42846313D01*
X101763432Y-43153686D01*
X101797844Y-43459101D01*
X101797846Y-43459117D01*
X101866240Y-43758772D01*
X101866244Y-43758784D01*
X101967754Y-44048882D01*
X101967760Y-44048896D01*
X102101116Y-44325812D01*
X102101118Y-44325815D01*
X102264646Y-44586069D01*
X102456284Y-44826376D01*
X102673624Y-45043716D01*
X102913931Y-45235354D01*
X103174185Y-45398882D01*
X103451111Y-45532243D01*
X103451117Y-45532245D01*
X103741215Y-45633755D01*
X103741227Y-45633759D01*
X104040886Y-45702154D01*
X104346314Y-45736567D01*
X104346315Y-45736568D01*
X104346318Y-45736568D01*
X104653685Y-45736568D01*
X104653685Y-45736567D01*
X104959114Y-45702154D01*
X105258773Y-45633759D01*
X105548889Y-45532243D01*
X105825815Y-45398882D01*
X106086069Y-45235354D01*
X106326376Y-45043716D01*
X106543716Y-44826376D01*
X106735354Y-44586069D01*
X106898882Y-44325815D01*
X107032243Y-44048889D01*
X107133759Y-43758773D01*
X107202154Y-43459114D01*
X107236568Y-43153682D01*
X107236568Y-42846318D01*
X107202154Y-42540886D01*
X107133759Y-42241227D01*
X107032243Y-41951111D01*
X106898882Y-41674185D01*
X106735354Y-41413931D01*
X106543716Y-41173624D01*
X106326376Y-40956284D01*
X106086069Y-40764646D01*
X106030125Y-40729494D01*
X105983834Y-40677159D01*
X105973186Y-40608106D01*
X106001561Y-40544257D01*
X106059950Y-40505885D01*
X106096097Y-40500500D01*
X107434108Y-40500500D01*
X107495933Y-40500500D01*
X107504043Y-40500765D01*
X107752895Y-40517075D01*
X107768953Y-40519190D01*
X107961353Y-40557461D01*
X108009535Y-40567045D01*
X108025202Y-40571243D01*
X108182093Y-40624500D01*
X108257481Y-40650091D01*
X108272458Y-40656294D01*
X108420893Y-40729494D01*
X108492460Y-40764787D01*
X108506508Y-40772897D01*
X108710464Y-40909177D01*
X108723328Y-40919048D01*
X108907749Y-41080781D01*
X108919218Y-41092250D01*
X109073476Y-41268148D01*
X109080951Y-41276671D01*
X109090825Y-41289539D01*
X109227102Y-41493492D01*
X109235212Y-41507539D01*
X109343702Y-41727534D01*
X109349909Y-41742520D01*
X109428756Y-41974797D01*
X109432954Y-41990464D01*
X109480807Y-42231035D01*
X109482925Y-42247116D01*
X109499235Y-42495956D01*
X109499500Y-42504066D01*
X109499500Y-44065891D01*
X109533608Y-44193187D01*
X109566554Y-44250250D01*
X109599500Y-44307314D01*
X109692686Y-44400500D01*
X109806814Y-44466392D01*
X109934108Y-44500500D01*
X109934110Y-44500500D01*
X160065890Y-44500500D01*
X160065892Y-44500500D01*
X160193186Y-44466392D01*
X160307314Y-44400500D01*
X160400500Y-44307314D01*
X160466392Y-44193186D01*
X160500500Y-44065892D01*
X160500500Y-42504066D01*
X160500765Y-42495956D01*
X160517075Y-42247102D01*
X160519190Y-42231048D01*
X160567045Y-41990462D01*
X160571243Y-41974797D01*
X160611684Y-41855661D01*
X160650093Y-41742512D01*
X160656291Y-41727547D01*
X160764790Y-41507533D01*
X160772893Y-41493498D01*
X160909182Y-41289527D01*
X160919039Y-41276681D01*
X161080786Y-41092244D01*
X161092244Y-41080786D01*
X161276681Y-40919039D01*
X161289527Y-40909182D01*
X161493498Y-40772893D01*
X161507533Y-40764790D01*
X161727547Y-40656291D01*
X161742512Y-40650093D01*
X161969653Y-40572989D01*
X161974797Y-40571243D01*
X161990464Y-40567045D01*
X162231048Y-40519190D01*
X162247102Y-40517075D01*
X162495957Y-40500765D01*
X162504067Y-40500500D01*
X162565892Y-40500500D01*
X163903903Y-40500500D01*
X163970942Y-40520185D01*
X164016697Y-40572989D01*
X164026641Y-40642147D01*
X163997616Y-40705703D01*
X163969875Y-40729494D01*
X163913932Y-40764645D01*
X163673624Y-40956283D01*
X163456283Y-41173624D01*
X163264645Y-41413932D01*
X163101116Y-41674187D01*
X162967760Y-41951103D01*
X162967754Y-41951117D01*
X162866244Y-42241215D01*
X162866240Y-42241227D01*
X162797846Y-42540882D01*
X162797844Y-42540898D01*
X162763432Y-42846313D01*
X162763432Y-43153686D01*
X162797844Y-43459101D01*
X162797846Y-43459117D01*
X162866240Y-43758772D01*
X162866244Y-43758784D01*
X162967754Y-44048882D01*
X162967760Y-44048896D01*
X163101116Y-44325812D01*
X163101118Y-44325815D01*
X163264646Y-44586069D01*
X163456284Y-44826376D01*
X163673624Y-45043716D01*
X163913931Y-45235354D01*
X164174185Y-45398882D01*
X164451111Y-45532243D01*
X164451117Y-45532245D01*
X164741215Y-45633755D01*
X164741227Y-45633759D01*
X165040886Y-45702154D01*
X165346314Y-45736567D01*
X165346315Y-45736568D01*
X165346318Y-45736568D01*
X165653685Y-45736568D01*
X165653685Y-45736567D01*
X165959114Y-45702154D01*
X166258773Y-45633759D01*
X166548889Y-45532243D01*
X166825815Y-45398882D01*
X167086069Y-45235354D01*
X167326376Y-45043716D01*
X167543716Y-44826376D01*
X167735354Y-44586069D01*
X167898882Y-44325815D01*
X168032243Y-44048889D01*
X168133759Y-43758773D01*
X168202154Y-43459114D01*
X168236568Y-43153682D01*
X168236568Y-42846318D01*
X168202154Y-42540886D01*
X168133759Y-42241227D01*
X168032243Y-41951111D01*
X167898882Y-41674185D01*
X167735354Y-41413931D01*
X167543716Y-41173624D01*
X167326376Y-40956284D01*
X167086069Y-40764646D01*
X167030125Y-40729494D01*
X166983834Y-40677159D01*
X166973186Y-40608106D01*
X167001561Y-40544257D01*
X167059950Y-40505885D01*
X167096097Y-40500500D01*
X169375500Y-40500500D01*
X169442539Y-40520185D01*
X169488294Y-40572989D01*
X169499500Y-40624500D01*
X169499500Y-119375500D01*
X169479815Y-119442539D01*
X169427011Y-119488294D01*
X169375500Y-119499500D01*
X167096097Y-119499500D01*
X167029058Y-119479815D01*
X166983303Y-119427011D01*
X166973359Y-119357853D01*
X167002384Y-119294297D01*
X167030125Y-119270506D01*
X167035972Y-119266831D01*
X167086069Y-119235354D01*
X167326376Y-119043716D01*
X167543716Y-118826376D01*
X167735354Y-118586069D01*
X167898882Y-118325815D01*
X168032243Y-118048889D01*
X168133759Y-117758773D01*
X168202154Y-117459114D01*
X168236568Y-117153682D01*
X168236568Y-116846318D01*
X168202154Y-116540886D01*
X168133759Y-116241227D01*
X168032243Y-115951111D01*
X167898882Y-115674185D01*
X167735354Y-115413931D01*
X167543716Y-115173624D01*
X167326376Y-114956284D01*
X167086069Y-114764646D01*
X166825815Y-114601118D01*
X166825812Y-114601116D01*
X166548896Y-114467760D01*
X166548882Y-114467754D01*
X166258784Y-114366244D01*
X166258772Y-114366240D01*
X165959117Y-114297846D01*
X165959101Y-114297844D01*
X165653686Y-114263432D01*
X165653682Y-114263432D01*
X165346318Y-114263432D01*
X165346313Y-114263432D01*
X165040898Y-114297844D01*
X165040882Y-114297846D01*
X164741227Y-114366240D01*
X164741215Y-114366244D01*
X164451117Y-114467754D01*
X164451103Y-114467760D01*
X164174187Y-114601116D01*
X163913932Y-114764645D01*
X163673624Y-114956283D01*
X163456283Y-115173624D01*
X163264645Y-115413932D01*
X163101116Y-115674187D01*
X162967760Y-115951103D01*
X162967754Y-115951117D01*
X162866244Y-116241215D01*
X162866240Y-116241227D01*
X162797846Y-116540882D01*
X162797844Y-116540898D01*
X162763432Y-116846313D01*
X162763432Y-117153686D01*
X162797844Y-117459101D01*
X162797846Y-117459117D01*
X162866240Y-117758772D01*
X162866244Y-117758784D01*
X162967754Y-118048882D01*
X162967760Y-118048896D01*
X163101116Y-118325812D01*
X163101118Y-118325815D01*
X163264646Y-118586069D01*
X163456284Y-118826376D01*
X163673624Y-119043716D01*
X163913931Y-119235354D01*
X163959286Y-119263852D01*
X163969875Y-119270506D01*
X164016166Y-119322841D01*
X164026814Y-119391894D01*
X163998439Y-119455743D01*
X163940050Y-119494115D01*
X163903903Y-119499500D01*
X162504067Y-119499500D01*
X162495957Y-119499235D01*
X162247116Y-119482925D01*
X162231035Y-119480807D01*
X161990464Y-119432954D01*
X161974797Y-119428756D01*
X161742520Y-119349909D01*
X161727534Y-119343702D01*
X161507539Y-119235212D01*
X161493492Y-119227102D01*
X161289539Y-119090825D01*
X161276671Y-119080951D01*
X161092250Y-118919218D01*
X161080781Y-118907749D01*
X161009418Y-118826375D01*
X160919045Y-118723325D01*
X160909174Y-118710460D01*
X160903668Y-118702220D01*
X160772897Y-118506507D01*
X160764787Y-118492460D01*
X160759529Y-118481799D01*
X160656294Y-118272458D01*
X160650090Y-118257479D01*
X160571243Y-118025202D01*
X160567045Y-118009535D01*
X160558033Y-117964230D01*
X160519190Y-117768953D01*
X160517075Y-117752895D01*
X160500765Y-117504043D01*
X160500500Y-117495933D01*
X160500500Y-115934110D01*
X160500500Y-115934108D01*
X160466392Y-115806814D01*
X160400500Y-115692686D01*
X160307314Y-115599500D01*
X160250250Y-115566554D01*
X160193187Y-115533608D01*
X160129539Y-115516554D01*
X160065892Y-115499500D01*
X110065892Y-115499500D01*
X109934108Y-115499500D01*
X109806812Y-115533608D01*
X109692686Y-115599500D01*
X109692683Y-115599502D01*
X109599502Y-115692683D01*
X109599500Y-115692686D01*
X109533608Y-115806812D01*
X109499500Y-115934108D01*
X109499500Y-117495933D01*
X109499235Y-117504043D01*
X109482925Y-117752883D01*
X109480807Y-117768964D01*
X109432954Y-118009535D01*
X109428756Y-118025202D01*
X109349909Y-118257479D01*
X109343702Y-118272465D01*
X109235212Y-118492460D01*
X109227102Y-118506507D01*
X109090825Y-118710460D01*
X109080951Y-118723328D01*
X108919218Y-118907749D01*
X108907749Y-118919218D01*
X108723328Y-119080951D01*
X108710460Y-119090825D01*
X108506507Y-119227102D01*
X108492460Y-119235212D01*
X108272465Y-119343702D01*
X108257479Y-119349909D01*
X108025202Y-119428756D01*
X108009535Y-119432954D01*
X107768964Y-119480807D01*
X107752883Y-119482925D01*
X107504043Y-119499235D01*
X107495933Y-119499500D01*
X106096097Y-119499500D01*
X106029058Y-119479815D01*
X105983303Y-119427011D01*
X105973359Y-119357853D01*
X106002384Y-119294297D01*
X106030125Y-119270506D01*
X106035972Y-119266831D01*
X106086069Y-119235354D01*
X106326376Y-119043716D01*
X106543716Y-118826376D01*
X106735354Y-118586069D01*
X106898882Y-118325815D01*
X107032243Y-118048889D01*
X107133759Y-117758773D01*
X107202154Y-117459114D01*
X107236568Y-117153682D01*
X107236568Y-116846318D01*
X107202154Y-116540886D01*
X107133759Y-116241227D01*
X107032243Y-115951111D01*
X106898882Y-115674185D01*
X106735354Y-115413931D01*
X106543716Y-115173624D01*
X106326376Y-114956284D01*
X106086069Y-114764646D01*
X105825815Y-114601118D01*
X105825812Y-114601116D01*
X105548896Y-114467760D01*
X105548882Y-114467754D01*
X105258784Y-114366244D01*
X105258772Y-114366240D01*
X104959117Y-114297846D01*
X104959101Y-114297844D01*
X104653686Y-114263432D01*
X104653682Y-114263432D01*
X104346318Y-114263432D01*
X104346313Y-114263432D01*
X104040898Y-114297844D01*
X104040882Y-114297846D01*
X103741227Y-114366240D01*
X103741215Y-114366244D01*
X103451117Y-114467754D01*
X103451103Y-114467760D01*
X103174187Y-114601116D01*
X102913932Y-114764645D01*
X102673624Y-114956283D01*
X102456283Y-115173624D01*
X102264645Y-115413932D01*
X102101116Y-115674187D01*
X101967760Y-115951103D01*
X101967754Y-115951117D01*
X101866244Y-116241215D01*
X101866240Y-116241227D01*
X101797846Y-116540882D01*
X101797844Y-116540898D01*
X101763432Y-116846313D01*
X101763432Y-117153686D01*
X101797844Y-117459101D01*
X101797846Y-117459117D01*
X101866240Y-117758772D01*
X101866244Y-117758784D01*
X101967754Y-118048882D01*
X101967760Y-118048896D01*
X102101116Y-118325812D01*
X102101118Y-118325815D01*
X102264646Y-118586069D01*
X102456284Y-118826376D01*
X102673624Y-119043716D01*
X102913931Y-119235354D01*
X102959286Y-119263852D01*
X102969875Y-119270506D01*
X103016166Y-119322841D01*
X103026814Y-119391894D01*
X102998439Y-119455743D01*
X102940050Y-119494115D01*
X102903903Y-119499500D01*
X100624500Y-119499500D01*
X100557461Y-119479815D01*
X100511706Y-119427011D01*
X100500500Y-119375500D01*
X100500500Y-109052155D01*
X104060000Y-109052155D01*
X104060000Y-109750000D01*
X105084722Y-109750000D01*
X105040667Y-109826306D01*
X105010000Y-109940756D01*
X105010000Y-110059244D01*
X105040667Y-110173694D01*
X105084722Y-110250000D01*
X104060000Y-110250000D01*
X104060000Y-110947844D01*
X104066401Y-111007372D01*
X104066403Y-111007379D01*
X104116645Y-111142086D01*
X104116649Y-111142093D01*
X104202809Y-111257187D01*
X104202812Y-111257190D01*
X104317906Y-111343350D01*
X104317913Y-111343354D01*
X104452620Y-111393596D01*
X104452627Y-111393598D01*
X104512155Y-111399999D01*
X104512172Y-111400000D01*
X105210000Y-111400000D01*
X105210000Y-110375277D01*
X105286306Y-110419333D01*
X105400756Y-110450000D01*
X105519244Y-110450000D01*
X105633694Y-110419333D01*
X105710000Y-110375277D01*
X105710000Y-111400000D01*
X106407828Y-111400000D01*
X106407844Y-111399999D01*
X106467372Y-111393598D01*
X106467379Y-111393596D01*
X106602086Y-111343354D01*
X106602093Y-111343350D01*
X106717187Y-111257190D01*
X106717190Y-111257187D01*
X106803350Y-111142093D01*
X106803354Y-111142086D01*
X106833213Y-111062031D01*
X106875084Y-111006097D01*
X106940548Y-110981680D01*
X107008821Y-110996531D01*
X107037076Y-111017683D01*
X107087636Y-111068243D01*
X107087641Y-111068247D01*
X107243192Y-111181260D01*
X107265978Y-111197815D01*
X107382501Y-111257187D01*
X107462393Y-111297895D01*
X107462396Y-111297896D01*
X107567221Y-111331955D01*
X107672049Y-111366015D01*
X107889778Y-111400500D01*
X107889779Y-111400500D01*
X108110221Y-111400500D01*
X108110222Y-111400500D01*
X108327951Y-111366015D01*
X108537606Y-111297895D01*
X108734022Y-111197815D01*
X108912365Y-111068242D01*
X109068242Y-110912365D01*
X109197815Y-110734022D01*
X109297895Y-110537606D01*
X109366015Y-110327951D01*
X109400500Y-110110222D01*
X109400500Y-109889778D01*
X109366015Y-109672049D01*
X109331955Y-109567221D01*
X109297896Y-109462396D01*
X109297895Y-109462393D01*
X109263237Y-109394375D01*
X109197815Y-109265978D01*
X109181260Y-109243192D01*
X109068247Y-109087641D01*
X109068243Y-109087636D01*
X108912363Y-108931756D01*
X108912358Y-108931752D01*
X108734025Y-108802187D01*
X108734024Y-108802186D01*
X108734022Y-108802185D01*
X108671096Y-108770122D01*
X108537606Y-108702104D01*
X108537603Y-108702103D01*
X108327952Y-108633985D01*
X108219086Y-108616742D01*
X108110222Y-108599500D01*
X107889778Y-108599500D01*
X107817201Y-108610995D01*
X107672047Y-108633985D01*
X107462396Y-108702103D01*
X107462393Y-108702104D01*
X107265974Y-108802187D01*
X107087641Y-108931752D01*
X107087636Y-108931756D01*
X107037075Y-108982317D01*
X106975752Y-109015801D01*
X106906060Y-109010816D01*
X106850127Y-108968945D01*
X106833213Y-108937968D01*
X106803354Y-108857913D01*
X106803350Y-108857906D01*
X106717190Y-108742812D01*
X106717187Y-108742809D01*
X106602093Y-108656649D01*
X106602086Y-108656645D01*
X106467379Y-108606403D01*
X106467372Y-108606401D01*
X106407844Y-108600000D01*
X105710000Y-108600000D01*
X105710000Y-109624722D01*
X105633694Y-109580667D01*
X105519244Y-109550000D01*
X105400756Y-109550000D01*
X105286306Y-109580667D01*
X105210000Y-109624722D01*
X105210000Y-108600000D01*
X104512155Y-108600000D01*
X104452627Y-108606401D01*
X104452620Y-108606403D01*
X104317913Y-108656645D01*
X104317906Y-108656649D01*
X104202812Y-108742809D01*
X104202809Y-108742812D01*
X104116649Y-108857906D01*
X104116645Y-108857913D01*
X104066403Y-108992620D01*
X104066401Y-108992627D01*
X104060000Y-109052155D01*
X100500500Y-109052155D01*
X100500500Y-102397648D01*
X111159500Y-102397648D01*
X111159500Y-102602351D01*
X111191522Y-102804534D01*
X111254781Y-102999223D01*
X111347715Y-103181613D01*
X111468028Y-103347213D01*
X111612786Y-103491971D01*
X111707497Y-103560781D01*
X111778390Y-103612287D01*
X111894607Y-103671503D01*
X111960776Y-103705218D01*
X111960778Y-103705218D01*
X111960781Y-103705220D01*
X112065137Y-103739127D01*
X112155465Y-103768477D01*
X112256557Y-103784488D01*
X112357648Y-103800500D01*
X112357649Y-103800500D01*
X112562351Y-103800500D01*
X112562352Y-103800500D01*
X112764534Y-103768477D01*
X112959219Y-103705220D01*
X113141610Y-103612287D01*
X113234590Y-103544732D01*
X113307213Y-103491971D01*
X113307215Y-103491968D01*
X113307219Y-103491966D01*
X113451966Y-103347219D01*
X113451968Y-103347215D01*
X113451971Y-103347213D01*
X113572284Y-103181614D01*
X113572285Y-103181613D01*
X113572287Y-103181610D01*
X113619516Y-103088917D01*
X113667489Y-103038123D01*
X113735310Y-103021328D01*
X113801445Y-103043865D01*
X113840485Y-103088919D01*
X113887715Y-103181614D01*
X114008028Y-103347213D01*
X114152786Y-103491971D01*
X114247497Y-103560781D01*
X114318390Y-103612287D01*
X114434607Y-103671503D01*
X114500776Y-103705218D01*
X114500778Y-103705218D01*
X114500781Y-103705220D01*
X114605137Y-103739127D01*
X114695465Y-103768477D01*
X114796557Y-103784488D01*
X114897648Y-103800500D01*
X114897649Y-103800500D01*
X115102351Y-103800500D01*
X115102352Y-103800500D01*
X115304534Y-103768477D01*
X115499219Y-103705220D01*
X115681610Y-103612287D01*
X115774590Y-103544732D01*
X115847213Y-103491971D01*
X115847215Y-103491968D01*
X115847219Y-103491966D01*
X115991966Y-103347219D01*
X115991968Y-103347215D01*
X115991971Y-103347213D01*
X116089640Y-103212781D01*
X116112287Y-103181610D01*
X116205220Y-102999219D01*
X116268477Y-102804534D01*
X116300500Y-102602352D01*
X116300500Y-102397648D01*
X116295680Y-102367219D01*
X116268477Y-102195465D01*
X116205218Y-102000776D01*
X116136553Y-101866015D01*
X116112287Y-101818390D01*
X116067821Y-101757187D01*
X115991971Y-101652786D01*
X115847213Y-101508028D01*
X115681613Y-101387715D01*
X115681612Y-101387714D01*
X115681610Y-101387713D01*
X115624653Y-101358691D01*
X115499223Y-101294781D01*
X115304534Y-101231522D01*
X115129995Y-101203878D01*
X115102352Y-101199500D01*
X114897648Y-101199500D01*
X114873329Y-101203351D01*
X114695465Y-101231522D01*
X114500776Y-101294781D01*
X114318386Y-101387715D01*
X114152786Y-101508028D01*
X114008028Y-101652786D01*
X113887715Y-101818386D01*
X113840485Y-101911080D01*
X113792510Y-101961876D01*
X113724689Y-101978671D01*
X113658554Y-101956134D01*
X113619515Y-101911080D01*
X113596553Y-101866015D01*
X113572287Y-101818390D01*
X113527821Y-101757187D01*
X113451971Y-101652786D01*
X113307213Y-101508028D01*
X113141613Y-101387715D01*
X113141612Y-101387714D01*
X113141610Y-101387713D01*
X113084653Y-101358691D01*
X112959223Y-101294781D01*
X112764534Y-101231522D01*
X112589995Y-101203878D01*
X112562352Y-101199500D01*
X112357648Y-101199500D01*
X112333329Y-101203351D01*
X112155465Y-101231522D01*
X111960776Y-101294781D01*
X111778386Y-101387715D01*
X111612786Y-101508028D01*
X111468028Y-101652786D01*
X111347715Y-101818386D01*
X111254781Y-102000776D01*
X111191522Y-102195465D01*
X111159500Y-102397648D01*
X100500500Y-102397648D01*
X100500500Y-99552155D01*
X104060000Y-99552155D01*
X104060000Y-100250000D01*
X105084722Y-100250000D01*
X105040667Y-100326306D01*
X105010000Y-100440756D01*
X105010000Y-100559244D01*
X105040667Y-100673694D01*
X105084722Y-100750000D01*
X104060000Y-100750000D01*
X104060000Y-101447844D01*
X104066401Y-101507372D01*
X104066403Y-101507379D01*
X104116645Y-101642086D01*
X104116649Y-101642093D01*
X104202809Y-101757187D01*
X104202812Y-101757190D01*
X104317906Y-101843350D01*
X104317913Y-101843354D01*
X104452620Y-101893596D01*
X104452627Y-101893598D01*
X104512155Y-101899999D01*
X104512172Y-101900000D01*
X105210000Y-101900000D01*
X105210000Y-100875277D01*
X105286306Y-100919333D01*
X105400756Y-100950000D01*
X105519244Y-100950000D01*
X105633694Y-100919333D01*
X105710000Y-100875277D01*
X105710000Y-101900000D01*
X106407828Y-101900000D01*
X106407844Y-101899999D01*
X106467372Y-101893598D01*
X106467379Y-101893596D01*
X106602086Y-101843354D01*
X106602093Y-101843350D01*
X106717187Y-101757190D01*
X106717190Y-101757187D01*
X106803350Y-101642093D01*
X106803354Y-101642086D01*
X106833213Y-101562031D01*
X106875084Y-101506097D01*
X106940548Y-101481680D01*
X107008821Y-101496531D01*
X107037076Y-101517683D01*
X107087636Y-101568243D01*
X107087641Y-101568247D01*
X107243192Y-101681260D01*
X107265978Y-101697815D01*
X107382501Y-101757187D01*
X107462393Y-101797895D01*
X107462396Y-101797896D01*
X107567221Y-101831955D01*
X107672049Y-101866015D01*
X107889778Y-101900500D01*
X107889779Y-101900500D01*
X108110221Y-101900500D01*
X108110222Y-101900500D01*
X108327951Y-101866015D01*
X108537606Y-101797895D01*
X108734022Y-101697815D01*
X108912365Y-101568242D01*
X109068242Y-101412365D01*
X109197815Y-101234022D01*
X109297895Y-101037606D01*
X109366015Y-100827951D01*
X109400500Y-100610222D01*
X109400500Y-100389778D01*
X109366015Y-100172049D01*
X109331955Y-100067221D01*
X109297896Y-99962396D01*
X109297895Y-99962393D01*
X109229016Y-99827213D01*
X109197815Y-99765978D01*
X109121988Y-99661610D01*
X109068247Y-99587641D01*
X109068243Y-99587636D01*
X108912363Y-99431756D01*
X108912358Y-99431752D01*
X108734025Y-99302187D01*
X108734024Y-99302186D01*
X108734022Y-99302185D01*
X108671096Y-99270122D01*
X108537606Y-99202104D01*
X108537603Y-99202103D01*
X108327952Y-99133985D01*
X108219086Y-99116742D01*
X108110222Y-99099500D01*
X107889778Y-99099500D01*
X107817201Y-99110995D01*
X107672047Y-99133985D01*
X107462396Y-99202103D01*
X107462393Y-99202104D01*
X107265974Y-99302187D01*
X107087641Y-99431752D01*
X107087636Y-99431756D01*
X107037075Y-99482317D01*
X106975752Y-99515801D01*
X106906060Y-99510816D01*
X106850127Y-99468945D01*
X106833213Y-99437968D01*
X106803354Y-99357913D01*
X106803350Y-99357906D01*
X106717190Y-99242812D01*
X106717187Y-99242809D01*
X106602093Y-99156649D01*
X106602086Y-99156645D01*
X106467379Y-99106403D01*
X106467372Y-99106401D01*
X106407844Y-99100000D01*
X105710000Y-99100000D01*
X105710000Y-100124722D01*
X105633694Y-100080667D01*
X105519244Y-100050000D01*
X105400756Y-100050000D01*
X105286306Y-100080667D01*
X105210000Y-100124722D01*
X105210000Y-99100000D01*
X104512155Y-99100000D01*
X104452627Y-99106401D01*
X104452620Y-99106403D01*
X104317913Y-99156645D01*
X104317906Y-99156649D01*
X104202812Y-99242809D01*
X104202809Y-99242812D01*
X104116649Y-99357906D01*
X104116645Y-99357913D01*
X104066403Y-99492620D01*
X104066401Y-99492627D01*
X104060000Y-99552155D01*
X100500500Y-99552155D01*
X100500500Y-95897648D01*
X111159500Y-95897648D01*
X111159500Y-96102351D01*
X111191522Y-96304534D01*
X111254781Y-96499223D01*
X111347715Y-96681613D01*
X111468028Y-96847213D01*
X111612786Y-96991971D01*
X111767749Y-97104556D01*
X111778390Y-97112287D01*
X111894607Y-97171503D01*
X111960776Y-97205218D01*
X111960778Y-97205218D01*
X111960781Y-97205220D01*
X112065137Y-97239127D01*
X112155465Y-97268477D01*
X112256557Y-97284488D01*
X112357648Y-97300500D01*
X112357649Y-97300500D01*
X112562351Y-97300500D01*
X112562352Y-97300500D01*
X112764534Y-97268477D01*
X112959219Y-97205220D01*
X113141610Y-97112287D01*
X113245997Y-97036446D01*
X113307213Y-96991971D01*
X113307215Y-96991968D01*
X113307219Y-96991966D01*
X113451966Y-96847219D01*
X113451968Y-96847215D01*
X113451971Y-96847213D01*
X113572284Y-96681614D01*
X113572285Y-96681613D01*
X113572287Y-96681610D01*
X113619516Y-96588917D01*
X113667489Y-96538123D01*
X113735310Y-96521328D01*
X113801445Y-96543865D01*
X113840485Y-96588919D01*
X113887715Y-96681614D01*
X114008028Y-96847213D01*
X114152786Y-96991971D01*
X114307749Y-97104556D01*
X114318390Y-97112287D01*
X114434607Y-97171503D01*
X114500776Y-97205218D01*
X114500778Y-97205218D01*
X114500781Y-97205220D01*
X114605137Y-97239127D01*
X114695465Y-97268477D01*
X114796557Y-97284488D01*
X114897648Y-97300500D01*
X114897649Y-97300500D01*
X115102351Y-97300500D01*
X115102352Y-97300500D01*
X115304534Y-97268477D01*
X115499219Y-97205220D01*
X115681610Y-97112287D01*
X115785997Y-97036446D01*
X115847213Y-96991971D01*
X115847215Y-96991968D01*
X115847219Y-96991966D01*
X115991966Y-96847219D01*
X115991968Y-96847215D01*
X115991971Y-96847213D01*
X116066570Y-96744534D01*
X116112287Y-96681610D01*
X116205220Y-96499219D01*
X116268477Y-96304534D01*
X116300500Y-96102352D01*
X116300500Y-95897648D01*
X116268477Y-95695466D01*
X116205220Y-95500781D01*
X116205218Y-95500778D01*
X116205218Y-95500776D01*
X116159515Y-95411080D01*
X116112287Y-95318390D01*
X116084748Y-95280485D01*
X115991971Y-95152786D01*
X115847213Y-95008028D01*
X115681613Y-94887715D01*
X115681612Y-94887714D01*
X115681610Y-94887713D01*
X115624653Y-94858691D01*
X115499223Y-94794781D01*
X115304534Y-94731522D01*
X115129995Y-94703878D01*
X115102352Y-94699500D01*
X114897648Y-94699500D01*
X114873329Y-94703351D01*
X114695465Y-94731522D01*
X114500776Y-94794781D01*
X114318386Y-94887715D01*
X114152786Y-95008028D01*
X114008028Y-95152786D01*
X113887715Y-95318386D01*
X113840485Y-95411080D01*
X113792510Y-95461876D01*
X113724689Y-95478671D01*
X113658554Y-95456134D01*
X113619515Y-95411080D01*
X113618883Y-95409840D01*
X113572287Y-95318390D01*
X113544748Y-95280485D01*
X113451971Y-95152786D01*
X113307213Y-95008028D01*
X113141613Y-94887715D01*
X113141612Y-94887714D01*
X113141610Y-94887713D01*
X113084653Y-94858691D01*
X112959223Y-94794781D01*
X112764534Y-94731522D01*
X112589995Y-94703878D01*
X112562352Y-94699500D01*
X112357648Y-94699500D01*
X112333329Y-94703351D01*
X112155465Y-94731522D01*
X111960776Y-94794781D01*
X111778386Y-94887715D01*
X111612786Y-95008028D01*
X111468028Y-95152786D01*
X111347715Y-95318386D01*
X111254781Y-95500776D01*
X111191522Y-95695465D01*
X111159500Y-95897648D01*
X100500500Y-95897648D01*
X100500500Y-90052155D01*
X104060000Y-90052155D01*
X104060000Y-90750000D01*
X105084722Y-90750000D01*
X105040667Y-90826306D01*
X105010000Y-90940756D01*
X105010000Y-91059244D01*
X105040667Y-91173694D01*
X105084722Y-91250000D01*
X104060000Y-91250000D01*
X104060000Y-91947844D01*
X104066401Y-92007372D01*
X104066403Y-92007379D01*
X104116645Y-92142086D01*
X104116649Y-92142093D01*
X104202809Y-92257187D01*
X104202812Y-92257190D01*
X104317906Y-92343350D01*
X104317913Y-92343354D01*
X104452620Y-92393596D01*
X104452627Y-92393598D01*
X104512155Y-92399999D01*
X104512172Y-92400000D01*
X105210000Y-92400000D01*
X105210000Y-91375277D01*
X105286306Y-91419333D01*
X105400756Y-91450000D01*
X105519244Y-91450000D01*
X105633694Y-91419333D01*
X105710000Y-91375277D01*
X105710000Y-92400000D01*
X106407828Y-92400000D01*
X106407844Y-92399999D01*
X106467372Y-92393598D01*
X106467379Y-92393596D01*
X106602086Y-92343354D01*
X106602093Y-92343350D01*
X106717187Y-92257190D01*
X106717190Y-92257187D01*
X106803350Y-92142093D01*
X106803354Y-92142086D01*
X106833213Y-92062031D01*
X106875084Y-92006097D01*
X106940548Y-91981680D01*
X107008821Y-91996531D01*
X107037076Y-92017683D01*
X107087636Y-92068243D01*
X107087641Y-92068247D01*
X107243192Y-92181260D01*
X107265978Y-92197815D01*
X107382501Y-92257187D01*
X107462393Y-92297895D01*
X107462396Y-92297896D01*
X107567221Y-92331955D01*
X107672049Y-92366015D01*
X107889778Y-92400500D01*
X107889779Y-92400500D01*
X108110221Y-92400500D01*
X108110222Y-92400500D01*
X108327951Y-92366015D01*
X108537606Y-92297895D01*
X108734022Y-92197815D01*
X108912365Y-92068242D01*
X109068242Y-91912365D01*
X109197815Y-91734022D01*
X109297895Y-91537606D01*
X109366015Y-91327951D01*
X109400500Y-91110222D01*
X109400500Y-90889778D01*
X109366015Y-90672049D01*
X109331955Y-90567221D01*
X109297896Y-90462396D01*
X109297895Y-90462393D01*
X109263237Y-90394375D01*
X109197815Y-90265978D01*
X109150232Y-90200485D01*
X109068247Y-90087641D01*
X109068243Y-90087636D01*
X108912363Y-89931756D01*
X108912358Y-89931752D01*
X108734025Y-89802187D01*
X108734024Y-89802186D01*
X108734022Y-89802185D01*
X108660089Y-89764514D01*
X108537606Y-89702104D01*
X108537603Y-89702103D01*
X108327952Y-89633985D01*
X108219086Y-89616742D01*
X108110222Y-89599500D01*
X107889778Y-89599500D01*
X107817201Y-89610995D01*
X107672047Y-89633985D01*
X107462396Y-89702103D01*
X107462393Y-89702104D01*
X107265974Y-89802187D01*
X107087641Y-89931752D01*
X107087636Y-89931756D01*
X107037075Y-89982317D01*
X106975752Y-90015801D01*
X106906060Y-90010816D01*
X106850127Y-89968945D01*
X106833213Y-89937968D01*
X106803354Y-89857913D01*
X106803350Y-89857906D01*
X106717190Y-89742812D01*
X106717187Y-89742809D01*
X106602093Y-89656649D01*
X106602086Y-89656645D01*
X106467379Y-89606403D01*
X106467372Y-89606401D01*
X106407844Y-89600000D01*
X105710000Y-89600000D01*
X105710000Y-90624722D01*
X105633694Y-90580667D01*
X105519244Y-90550000D01*
X105400756Y-90550000D01*
X105286306Y-90580667D01*
X105210000Y-90624722D01*
X105210000Y-89600000D01*
X104512155Y-89600000D01*
X104452627Y-89606401D01*
X104452620Y-89606403D01*
X104317913Y-89656645D01*
X104317906Y-89656649D01*
X104202812Y-89742809D01*
X104202809Y-89742812D01*
X104116649Y-89857906D01*
X104116645Y-89857913D01*
X104066403Y-89992620D01*
X104066401Y-89992627D01*
X104060000Y-90052155D01*
X100500500Y-90052155D01*
X100500500Y-89397648D01*
X111159500Y-89397648D01*
X111159500Y-89602351D01*
X111191522Y-89804534D01*
X111254781Y-89999223D01*
X111301035Y-90090000D01*
X111334042Y-90154780D01*
X111347715Y-90181613D01*
X111468028Y-90347213D01*
X111612786Y-90491971D01*
X111734868Y-90580667D01*
X111778390Y-90612287D01*
X111894607Y-90671503D01*
X111960776Y-90705218D01*
X111960778Y-90705218D01*
X111960781Y-90705220D01*
X112065137Y-90739127D01*
X112155465Y-90768477D01*
X112256557Y-90784488D01*
X112357648Y-90800500D01*
X112357649Y-90800500D01*
X112562351Y-90800500D01*
X112562352Y-90800500D01*
X112764534Y-90768477D01*
X112959219Y-90705220D01*
X113141610Y-90612287D01*
X113234590Y-90544732D01*
X113307213Y-90491971D01*
X113307215Y-90491968D01*
X113307219Y-90491966D01*
X113451966Y-90347219D01*
X113451968Y-90347215D01*
X113451971Y-90347213D01*
X113572284Y-90181614D01*
X113572285Y-90181613D01*
X113572287Y-90181610D01*
X113619516Y-90088917D01*
X113667489Y-90038123D01*
X113735310Y-90021328D01*
X113801445Y-90043865D01*
X113840483Y-90088917D01*
X113877439Y-90161446D01*
X113887715Y-90181614D01*
X114008028Y-90347213D01*
X114152786Y-90491971D01*
X114274868Y-90580667D01*
X114318390Y-90612287D01*
X114434607Y-90671503D01*
X114500776Y-90705218D01*
X114500778Y-90705218D01*
X114500781Y-90705220D01*
X114605137Y-90739127D01*
X114695465Y-90768477D01*
X114796557Y-90784488D01*
X114897648Y-90800500D01*
X114897649Y-90800500D01*
X115102351Y-90800500D01*
X115102352Y-90800500D01*
X115304534Y-90768477D01*
X115499219Y-90705220D01*
X115681610Y-90612287D01*
X115774590Y-90544732D01*
X115847213Y-90491971D01*
X115847215Y-90491968D01*
X115847219Y-90491966D01*
X115991966Y-90347219D01*
X115991968Y-90347215D01*
X115991971Y-90347213D01*
X116044732Y-90274590D01*
X116112287Y-90181610D01*
X116205220Y-89999219D01*
X116268477Y-89804534D01*
X116300500Y-89602352D01*
X116300500Y-89397648D01*
X116268477Y-89195465D01*
X116205218Y-89000776D01*
X116159515Y-88911080D01*
X116112287Y-88818390D01*
X116104556Y-88807749D01*
X115991971Y-88652786D01*
X115847213Y-88508028D01*
X115681613Y-88387715D01*
X115681612Y-88387714D01*
X115681610Y-88387713D01*
X115624653Y-88358691D01*
X115499223Y-88294781D01*
X115304534Y-88231522D01*
X115129995Y-88203878D01*
X115102352Y-88199500D01*
X114897648Y-88199500D01*
X114873329Y-88203351D01*
X114695465Y-88231522D01*
X114500776Y-88294781D01*
X114318386Y-88387715D01*
X114152786Y-88508028D01*
X114008028Y-88652786D01*
X113887715Y-88818386D01*
X113840485Y-88911080D01*
X113792510Y-88961876D01*
X113724689Y-88978671D01*
X113658554Y-88956134D01*
X113619515Y-88911080D01*
X113618883Y-88909840D01*
X113572287Y-88818390D01*
X113564556Y-88807749D01*
X113451971Y-88652786D01*
X113307213Y-88508028D01*
X113141613Y-88387715D01*
X113141612Y-88387714D01*
X113141610Y-88387713D01*
X113084653Y-88358691D01*
X112959223Y-88294781D01*
X112764534Y-88231522D01*
X112589995Y-88203878D01*
X112562352Y-88199500D01*
X112357648Y-88199500D01*
X112333329Y-88203351D01*
X112155465Y-88231522D01*
X111960776Y-88294781D01*
X111778386Y-88387715D01*
X111612786Y-88508028D01*
X111468028Y-88652786D01*
X111347715Y-88818386D01*
X111254781Y-89000776D01*
X111191522Y-89195465D01*
X111159500Y-89397648D01*
X100500500Y-89397648D01*
X100500500Y-80552155D01*
X104060000Y-80552155D01*
X104060000Y-81250000D01*
X105084722Y-81250000D01*
X105040667Y-81326306D01*
X105010000Y-81440756D01*
X105010000Y-81559244D01*
X105040667Y-81673694D01*
X105084722Y-81750000D01*
X104060000Y-81750000D01*
X104060000Y-82447844D01*
X104066401Y-82507372D01*
X104066403Y-82507379D01*
X104116645Y-82642086D01*
X104116649Y-82642093D01*
X104202809Y-82757187D01*
X104202812Y-82757190D01*
X104317906Y-82843350D01*
X104317913Y-82843354D01*
X104452620Y-82893596D01*
X104452627Y-82893598D01*
X104512155Y-82899999D01*
X104512172Y-82900000D01*
X105210000Y-82900000D01*
X105210000Y-81875277D01*
X105286306Y-81919333D01*
X105400756Y-81950000D01*
X105519244Y-81950000D01*
X105633694Y-81919333D01*
X105710000Y-81875277D01*
X105710000Y-82900000D01*
X106407828Y-82900000D01*
X106407844Y-82899999D01*
X106467372Y-82893598D01*
X106467379Y-82893596D01*
X106602086Y-82843354D01*
X106602093Y-82843350D01*
X106717187Y-82757190D01*
X106717190Y-82757187D01*
X106803350Y-82642093D01*
X106803354Y-82642086D01*
X106833213Y-82562031D01*
X106875084Y-82506097D01*
X106940548Y-82481680D01*
X107008821Y-82496531D01*
X107037076Y-82517683D01*
X107087636Y-82568243D01*
X107087641Y-82568247D01*
X107243192Y-82681260D01*
X107265978Y-82697815D01*
X107382501Y-82757187D01*
X107462393Y-82797895D01*
X107462396Y-82797896D01*
X107567221Y-82831955D01*
X107672049Y-82866015D01*
X107889778Y-82900500D01*
X107889779Y-82900500D01*
X108110221Y-82900500D01*
X108110222Y-82900500D01*
X108128229Y-82897648D01*
X111159500Y-82897648D01*
X111159500Y-83102351D01*
X111191522Y-83304534D01*
X111254781Y-83499223D01*
X111347715Y-83681613D01*
X111468028Y-83847213D01*
X111612786Y-83991971D01*
X111767749Y-84104556D01*
X111778390Y-84112287D01*
X111894607Y-84171503D01*
X111960776Y-84205218D01*
X111960778Y-84205218D01*
X111960781Y-84205220D01*
X112065137Y-84239127D01*
X112155465Y-84268477D01*
X112256557Y-84284488D01*
X112357648Y-84300500D01*
X112357649Y-84300500D01*
X112562351Y-84300500D01*
X112562352Y-84300500D01*
X112764534Y-84268477D01*
X112959219Y-84205220D01*
X113141610Y-84112287D01*
X113234865Y-84044534D01*
X113307213Y-83991971D01*
X113307215Y-83991968D01*
X113307219Y-83991966D01*
X113451966Y-83847219D01*
X113451968Y-83847215D01*
X113451971Y-83847213D01*
X113572284Y-83681614D01*
X113572285Y-83681613D01*
X113572287Y-83681610D01*
X113619516Y-83588917D01*
X113667489Y-83538123D01*
X113735310Y-83521328D01*
X113801445Y-83543865D01*
X113840485Y-83588919D01*
X113887715Y-83681614D01*
X114008028Y-83847213D01*
X114152786Y-83991971D01*
X114307749Y-84104556D01*
X114318390Y-84112287D01*
X114434607Y-84171503D01*
X114500776Y-84205218D01*
X114500778Y-84205218D01*
X114500781Y-84205220D01*
X114605137Y-84239127D01*
X114695465Y-84268477D01*
X114796557Y-84284488D01*
X114897648Y-84300500D01*
X114897649Y-84300500D01*
X115102351Y-84300500D01*
X115102352Y-84300500D01*
X115304534Y-84268477D01*
X115499219Y-84205220D01*
X115681610Y-84112287D01*
X115774865Y-84044534D01*
X115847213Y-83991971D01*
X115847215Y-83991968D01*
X115847219Y-83991966D01*
X115991966Y-83847219D01*
X115991968Y-83847215D01*
X115991971Y-83847213D01*
X116044732Y-83774590D01*
X116112287Y-83681610D01*
X116205220Y-83499219D01*
X116268477Y-83304534D01*
X116300500Y-83102352D01*
X116300500Y-82897648D01*
X116278253Y-82757187D01*
X116268477Y-82695465D01*
X116216267Y-82534780D01*
X116205220Y-82500781D01*
X116205218Y-82500778D01*
X116205218Y-82500776D01*
X116151566Y-82395480D01*
X116112287Y-82318390D01*
X116050991Y-82234022D01*
X115991971Y-82152786D01*
X115847213Y-82008028D01*
X115681613Y-81887715D01*
X115681612Y-81887714D01*
X115681610Y-81887713D01*
X115624653Y-81858691D01*
X115499223Y-81794781D01*
X115304534Y-81731522D01*
X115129995Y-81703878D01*
X115102352Y-81699500D01*
X114897648Y-81699500D01*
X114873329Y-81703351D01*
X114695465Y-81731522D01*
X114500776Y-81794781D01*
X114318386Y-81887715D01*
X114152786Y-82008028D01*
X114008028Y-82152786D01*
X113887715Y-82318386D01*
X113840485Y-82411080D01*
X113792510Y-82461876D01*
X113724689Y-82478671D01*
X113658554Y-82456134D01*
X113619515Y-82411080D01*
X113611566Y-82395480D01*
X113572287Y-82318390D01*
X113510991Y-82234022D01*
X113451971Y-82152786D01*
X113307213Y-82008028D01*
X113141613Y-81887715D01*
X113141612Y-81887714D01*
X113141610Y-81887713D01*
X113084653Y-81858691D01*
X112959223Y-81794781D01*
X112764534Y-81731522D01*
X112589995Y-81703878D01*
X112562352Y-81699500D01*
X112357648Y-81699500D01*
X112333329Y-81703351D01*
X112155465Y-81731522D01*
X111960776Y-81794781D01*
X111778386Y-81887715D01*
X111612786Y-82008028D01*
X111468028Y-82152786D01*
X111347715Y-82318386D01*
X111254781Y-82500776D01*
X111191522Y-82695465D01*
X111159500Y-82897648D01*
X108128229Y-82897648D01*
X108327951Y-82866015D01*
X108537606Y-82797895D01*
X108537610Y-82797893D01*
X108568229Y-82782292D01*
X108568230Y-82782291D01*
X108734022Y-82697815D01*
X108912365Y-82568242D01*
X109068242Y-82412365D01*
X109197815Y-82234022D01*
X109297895Y-82037606D01*
X109366015Y-81827951D01*
X109400500Y-81610222D01*
X109400500Y-81389778D01*
X109366015Y-81172049D01*
X109331955Y-81067221D01*
X109297896Y-80962396D01*
X109297895Y-80962393D01*
X109256882Y-80881902D01*
X109197815Y-80765978D01*
X109112558Y-80648631D01*
X109068247Y-80587641D01*
X109068243Y-80587636D01*
X108912363Y-80431756D01*
X108912358Y-80431752D01*
X108734025Y-80302187D01*
X108734024Y-80302186D01*
X108734022Y-80302185D01*
X108671096Y-80270122D01*
X108537606Y-80202104D01*
X108537603Y-80202103D01*
X108327952Y-80133985D01*
X108219086Y-80116742D01*
X108110222Y-80099500D01*
X107889778Y-80099500D01*
X107817201Y-80110995D01*
X107672047Y-80133985D01*
X107462396Y-80202103D01*
X107462393Y-80202104D01*
X107265974Y-80302187D01*
X107087641Y-80431752D01*
X107087636Y-80431756D01*
X107037075Y-80482317D01*
X106975752Y-80515801D01*
X106906060Y-80510816D01*
X106850127Y-80468945D01*
X106833213Y-80437968D01*
X106803354Y-80357913D01*
X106803350Y-80357906D01*
X106717190Y-80242812D01*
X106717187Y-80242809D01*
X106602093Y-80156649D01*
X106602086Y-80156645D01*
X106467379Y-80106403D01*
X106467372Y-80106401D01*
X106407844Y-80100000D01*
X105710000Y-80100000D01*
X105710000Y-81124722D01*
X105633694Y-81080667D01*
X105519244Y-81050000D01*
X105400756Y-81050000D01*
X105286306Y-81080667D01*
X105210000Y-81124722D01*
X105210000Y-80100000D01*
X104512155Y-80100000D01*
X104452627Y-80106401D01*
X104452620Y-80106403D01*
X104317913Y-80156645D01*
X104317906Y-80156649D01*
X104202812Y-80242809D01*
X104202809Y-80242812D01*
X104116649Y-80357906D01*
X104116645Y-80357913D01*
X104066403Y-80492620D01*
X104066401Y-80492627D01*
X104060000Y-80552155D01*
X100500500Y-80552155D01*
X100500500Y-76397648D01*
X111159500Y-76397648D01*
X111159500Y-76602351D01*
X111191522Y-76804534D01*
X111254781Y-76999223D01*
X111312230Y-77111971D01*
X111345189Y-77176657D01*
X111347715Y-77181613D01*
X111468028Y-77347213D01*
X111612786Y-77491971D01*
X111767749Y-77604556D01*
X111778390Y-77612287D01*
X111894607Y-77671503D01*
X111960776Y-77705218D01*
X111960778Y-77705218D01*
X111960781Y-77705220D01*
X112065137Y-77739127D01*
X112155465Y-77768477D01*
X112256557Y-77784488D01*
X112357648Y-77800500D01*
X112357649Y-77800500D01*
X112562351Y-77800500D01*
X112562352Y-77800500D01*
X112764534Y-77768477D01*
X112959219Y-77705220D01*
X113141610Y-77612287D01*
X113295882Y-77500203D01*
X113307213Y-77491971D01*
X113307215Y-77491968D01*
X113307219Y-77491966D01*
X113451966Y-77347219D01*
X113451968Y-77347215D01*
X113451971Y-77347213D01*
X113572284Y-77181614D01*
X113572285Y-77181613D01*
X113572287Y-77181610D01*
X113619516Y-77088917D01*
X113667489Y-77038123D01*
X113735310Y-77021328D01*
X113801445Y-77043865D01*
X113840485Y-77088919D01*
X113887715Y-77181614D01*
X114008028Y-77347213D01*
X114152786Y-77491971D01*
X114307749Y-77604556D01*
X114318390Y-77612287D01*
X114434607Y-77671503D01*
X114500776Y-77705218D01*
X114500778Y-77705218D01*
X114500781Y-77705220D01*
X114605137Y-77739127D01*
X114695465Y-77768477D01*
X114796557Y-77784488D01*
X114897648Y-77800500D01*
X114897649Y-77800500D01*
X115102351Y-77800500D01*
X115102352Y-77800500D01*
X115304534Y-77768477D01*
X115499219Y-77705220D01*
X115681610Y-77612287D01*
X115835882Y-77500203D01*
X115847213Y-77491971D01*
X115847215Y-77491968D01*
X115847219Y-77491966D01*
X115991966Y-77347219D01*
X115991968Y-77347215D01*
X115991971Y-77347213D01*
X116075470Y-77232284D01*
X116112287Y-77181610D01*
X116205220Y-76999219D01*
X116268477Y-76804534D01*
X116300500Y-76602352D01*
X116300500Y-76397648D01*
X116273473Y-76227007D01*
X116268477Y-76195465D01*
X116205218Y-76000776D01*
X116159515Y-75911080D01*
X116112287Y-75818390D01*
X116104556Y-75807749D01*
X115991971Y-75652786D01*
X115847213Y-75508028D01*
X115681613Y-75387715D01*
X115681612Y-75387714D01*
X115681610Y-75387713D01*
X115624653Y-75358691D01*
X115499223Y-75294781D01*
X115304534Y-75231522D01*
X115129995Y-75203878D01*
X115102352Y-75199500D01*
X114897648Y-75199500D01*
X114873329Y-75203351D01*
X114695465Y-75231522D01*
X114500776Y-75294781D01*
X114318386Y-75387715D01*
X114152786Y-75508028D01*
X114008028Y-75652786D01*
X113887715Y-75818386D01*
X113840485Y-75911080D01*
X113792510Y-75961876D01*
X113724689Y-75978671D01*
X113658554Y-75956134D01*
X113619515Y-75911080D01*
X113618883Y-75909840D01*
X113572287Y-75818390D01*
X113564556Y-75807749D01*
X113451971Y-75652786D01*
X113307213Y-75508028D01*
X113141613Y-75387715D01*
X113141612Y-75387714D01*
X113141610Y-75387713D01*
X113084653Y-75358691D01*
X112959223Y-75294781D01*
X112764534Y-75231522D01*
X112589995Y-75203878D01*
X112562352Y-75199500D01*
X112357648Y-75199500D01*
X112333329Y-75203351D01*
X112155465Y-75231522D01*
X111960776Y-75294781D01*
X111778386Y-75387715D01*
X111612786Y-75508028D01*
X111468028Y-75652786D01*
X111347715Y-75818386D01*
X111254781Y-76000776D01*
X111191522Y-76195465D01*
X111159500Y-76397648D01*
X100500500Y-76397648D01*
X100500500Y-71052155D01*
X104060000Y-71052155D01*
X104060000Y-71750000D01*
X105084722Y-71750000D01*
X105040667Y-71826306D01*
X105010000Y-71940756D01*
X105010000Y-72059244D01*
X105040667Y-72173694D01*
X105084722Y-72250000D01*
X104060000Y-72250000D01*
X104060000Y-72947844D01*
X104066401Y-73007372D01*
X104066403Y-73007379D01*
X104116645Y-73142086D01*
X104116649Y-73142093D01*
X104202809Y-73257187D01*
X104202812Y-73257190D01*
X104317906Y-73343350D01*
X104317913Y-73343354D01*
X104452620Y-73393596D01*
X104452627Y-73393598D01*
X104512155Y-73399999D01*
X104512172Y-73400000D01*
X105210000Y-73400000D01*
X105210000Y-72375277D01*
X105286306Y-72419333D01*
X105400756Y-72450000D01*
X105519244Y-72450000D01*
X105633694Y-72419333D01*
X105710000Y-72375277D01*
X105710000Y-73400000D01*
X106407828Y-73400000D01*
X106407844Y-73399999D01*
X106467372Y-73393598D01*
X106467379Y-73393596D01*
X106602086Y-73343354D01*
X106602093Y-73343350D01*
X106717187Y-73257190D01*
X106717190Y-73257187D01*
X106803350Y-73142093D01*
X106803354Y-73142086D01*
X106833213Y-73062031D01*
X106875084Y-73006097D01*
X106940548Y-72981680D01*
X107008821Y-72996531D01*
X107037076Y-73017683D01*
X107087636Y-73068243D01*
X107087641Y-73068247D01*
X107243192Y-73181260D01*
X107265978Y-73197815D01*
X107382501Y-73257187D01*
X107462393Y-73297895D01*
X107462396Y-73297896D01*
X107567221Y-73331955D01*
X107672049Y-73366015D01*
X107889778Y-73400500D01*
X107889779Y-73400500D01*
X108110221Y-73400500D01*
X108110222Y-73400500D01*
X108327951Y-73366015D01*
X108537606Y-73297895D01*
X108734022Y-73197815D01*
X108912365Y-73068242D01*
X109068242Y-72912365D01*
X109197815Y-72734022D01*
X109297895Y-72537606D01*
X109366015Y-72327951D01*
X109400500Y-72110222D01*
X109400500Y-71889778D01*
X109366015Y-71672049D01*
X109331955Y-71567221D01*
X109297896Y-71462396D01*
X109297895Y-71462393D01*
X109263237Y-71394375D01*
X109197815Y-71265978D01*
X109107996Y-71142352D01*
X109068247Y-71087641D01*
X109068243Y-71087636D01*
X108912363Y-70931756D01*
X108912358Y-70931752D01*
X108734025Y-70802187D01*
X108734024Y-70802186D01*
X108734022Y-70802185D01*
X108671096Y-70770122D01*
X108537606Y-70702104D01*
X108537603Y-70702103D01*
X108327952Y-70633985D01*
X108219086Y-70616742D01*
X108110222Y-70599500D01*
X107889778Y-70599500D01*
X107817201Y-70610995D01*
X107672047Y-70633985D01*
X107462396Y-70702103D01*
X107462393Y-70702104D01*
X107265974Y-70802187D01*
X107087641Y-70931752D01*
X107087636Y-70931756D01*
X107037075Y-70982317D01*
X106975752Y-71015801D01*
X106906060Y-71010816D01*
X106850127Y-70968945D01*
X106833213Y-70937968D01*
X106803354Y-70857913D01*
X106803350Y-70857906D01*
X106717190Y-70742812D01*
X106717187Y-70742809D01*
X106602093Y-70656649D01*
X106602086Y-70656645D01*
X106467379Y-70606403D01*
X106467372Y-70606401D01*
X106407844Y-70600000D01*
X105710000Y-70600000D01*
X105710000Y-71624722D01*
X105633694Y-71580667D01*
X105519244Y-71550000D01*
X105400756Y-71550000D01*
X105286306Y-71580667D01*
X105210000Y-71624722D01*
X105210000Y-70600000D01*
X104512155Y-70600000D01*
X104452627Y-70606401D01*
X104452620Y-70606403D01*
X104317913Y-70656645D01*
X104317906Y-70656649D01*
X104202812Y-70742809D01*
X104202809Y-70742812D01*
X104116649Y-70857906D01*
X104116645Y-70857913D01*
X104066403Y-70992620D01*
X104066401Y-70992627D01*
X104060000Y-71052155D01*
X100500500Y-71052155D01*
X100500500Y-69897648D01*
X111159500Y-69897648D01*
X111159500Y-70102351D01*
X111191522Y-70304534D01*
X111254781Y-70499223D01*
X111347715Y-70681613D01*
X111468028Y-70847213D01*
X111612786Y-70991971D01*
X111744467Y-71087641D01*
X111778390Y-71112287D01*
X111894607Y-71171503D01*
X111960776Y-71205218D01*
X111960778Y-71205218D01*
X111960781Y-71205220D01*
X112065137Y-71239127D01*
X112155465Y-71268477D01*
X112256557Y-71284488D01*
X112357648Y-71300500D01*
X112357649Y-71300500D01*
X112562351Y-71300500D01*
X112562352Y-71300500D01*
X112764534Y-71268477D01*
X112959219Y-71205220D01*
X113141610Y-71112287D01*
X113274413Y-71015801D01*
X113307213Y-70991971D01*
X113307215Y-70991968D01*
X113307219Y-70991966D01*
X113451966Y-70847219D01*
X113451968Y-70847215D01*
X113451971Y-70847213D01*
X113572284Y-70681614D01*
X113572285Y-70681613D01*
X113572287Y-70681610D01*
X113619516Y-70588917D01*
X113667489Y-70538123D01*
X113735310Y-70521328D01*
X113801445Y-70543865D01*
X113840485Y-70588919D01*
X113887715Y-70681614D01*
X114008028Y-70847213D01*
X114152786Y-70991971D01*
X114284467Y-71087641D01*
X114318390Y-71112287D01*
X114434607Y-71171503D01*
X114500776Y-71205218D01*
X114500778Y-71205218D01*
X114500781Y-71205220D01*
X114605137Y-71239127D01*
X114695465Y-71268477D01*
X114796557Y-71284488D01*
X114897648Y-71300500D01*
X114897649Y-71300500D01*
X115102351Y-71300500D01*
X115102352Y-71300500D01*
X115304534Y-71268477D01*
X115499219Y-71205220D01*
X115681610Y-71112287D01*
X115814413Y-71015801D01*
X115847213Y-70991971D01*
X115847215Y-70991968D01*
X115847219Y-70991966D01*
X115991966Y-70847219D01*
X115991968Y-70847215D01*
X115991971Y-70847213D01*
X116044732Y-70774590D01*
X116112287Y-70681610D01*
X116205220Y-70499219D01*
X116268477Y-70304534D01*
X116300500Y-70102352D01*
X116300500Y-69897648D01*
X116268477Y-69695466D01*
X116256156Y-69657547D01*
X116239127Y-69605137D01*
X116205220Y-69500781D01*
X116205218Y-69500778D01*
X116205218Y-69500776D01*
X116157682Y-69407483D01*
X116112287Y-69318390D01*
X116104556Y-69307749D01*
X115991971Y-69152786D01*
X115847213Y-69008028D01*
X115681613Y-68887715D01*
X115681612Y-68887714D01*
X115681610Y-68887713D01*
X115624653Y-68858691D01*
X115499223Y-68794781D01*
X115304534Y-68731522D01*
X115129995Y-68703878D01*
X115102352Y-68699500D01*
X114897648Y-68699500D01*
X114873329Y-68703351D01*
X114695465Y-68731522D01*
X114500776Y-68794781D01*
X114318386Y-68887715D01*
X114152786Y-69008028D01*
X114008028Y-69152786D01*
X113887715Y-69318386D01*
X113840485Y-69411080D01*
X113792510Y-69461876D01*
X113724689Y-69478671D01*
X113658554Y-69456134D01*
X113619515Y-69411080D01*
X113587314Y-69347883D01*
X113572287Y-69318390D01*
X113564556Y-69307749D01*
X113451971Y-69152786D01*
X113307213Y-69008028D01*
X113141613Y-68887715D01*
X113141612Y-68887714D01*
X113141610Y-68887713D01*
X113084653Y-68858691D01*
X112959223Y-68794781D01*
X112764534Y-68731522D01*
X112589995Y-68703878D01*
X112562352Y-68699500D01*
X112357648Y-68699500D01*
X112333329Y-68703351D01*
X112155465Y-68731522D01*
X111960776Y-68794781D01*
X111778386Y-68887715D01*
X111612786Y-69008028D01*
X111468028Y-69152786D01*
X111347715Y-69318386D01*
X111254781Y-69500776D01*
X111191522Y-69695465D01*
X111159500Y-69897648D01*
X100500500Y-69897648D01*
X100500500Y-61552155D01*
X104060000Y-61552155D01*
X104060000Y-62250000D01*
X105084722Y-62250000D01*
X105040667Y-62326306D01*
X105010000Y-62440756D01*
X105010000Y-62559244D01*
X105040667Y-62673694D01*
X105084722Y-62750000D01*
X104060000Y-62750000D01*
X104060000Y-63447844D01*
X104066401Y-63507372D01*
X104066403Y-63507379D01*
X104116645Y-63642086D01*
X104116649Y-63642093D01*
X104202809Y-63757187D01*
X104202812Y-63757190D01*
X104317906Y-63843350D01*
X104317913Y-63843354D01*
X104452620Y-63893596D01*
X104452627Y-63893598D01*
X104512155Y-63899999D01*
X104512172Y-63900000D01*
X105210000Y-63900000D01*
X105210000Y-62875277D01*
X105286306Y-62919333D01*
X105400756Y-62950000D01*
X105519244Y-62950000D01*
X105633694Y-62919333D01*
X105710000Y-62875277D01*
X105710000Y-63900000D01*
X106407828Y-63900000D01*
X106407844Y-63899999D01*
X106467372Y-63893598D01*
X106467379Y-63893596D01*
X106602086Y-63843354D01*
X106602093Y-63843350D01*
X106717187Y-63757190D01*
X106717190Y-63757187D01*
X106803350Y-63642093D01*
X106803354Y-63642086D01*
X106833213Y-63562031D01*
X106875084Y-63506097D01*
X106940548Y-63481680D01*
X107008821Y-63496531D01*
X107037076Y-63517683D01*
X107087636Y-63568243D01*
X107087641Y-63568247D01*
X107243192Y-63681260D01*
X107265978Y-63697815D01*
X107382501Y-63757187D01*
X107462393Y-63797895D01*
X107462396Y-63797896D01*
X107567221Y-63831955D01*
X107672049Y-63866015D01*
X107889778Y-63900500D01*
X107889779Y-63900500D01*
X108110221Y-63900500D01*
X108110222Y-63900500D01*
X108327951Y-63866015D01*
X108537606Y-63797895D01*
X108734022Y-63697815D01*
X108912365Y-63568242D01*
X109068242Y-63412365D01*
X109197815Y-63234022D01*
X109297895Y-63037606D01*
X109366015Y-62827951D01*
X109400500Y-62610222D01*
X109400500Y-62389778D01*
X109366015Y-62172049D01*
X109331955Y-62067221D01*
X109297896Y-61962396D01*
X109297895Y-61962393D01*
X109263237Y-61894375D01*
X109197815Y-61765978D01*
X109144789Y-61692993D01*
X109068247Y-61587641D01*
X109068243Y-61587636D01*
X108912363Y-61431756D01*
X108912358Y-61431752D01*
X108734025Y-61302187D01*
X108734024Y-61302186D01*
X108734022Y-61302185D01*
X108671096Y-61270122D01*
X108537606Y-61202104D01*
X108537603Y-61202103D01*
X108327952Y-61133985D01*
X108219086Y-61116742D01*
X108110222Y-61099500D01*
X107889778Y-61099500D01*
X107817201Y-61110995D01*
X107672047Y-61133985D01*
X107462396Y-61202103D01*
X107462393Y-61202104D01*
X107265974Y-61302187D01*
X107087641Y-61431752D01*
X107087636Y-61431756D01*
X107037075Y-61482317D01*
X106975752Y-61515801D01*
X106906060Y-61510816D01*
X106850127Y-61468945D01*
X106833213Y-61437968D01*
X106803354Y-61357913D01*
X106803350Y-61357906D01*
X106717190Y-61242812D01*
X106717187Y-61242809D01*
X106602093Y-61156649D01*
X106602086Y-61156645D01*
X106467379Y-61106403D01*
X106467372Y-61106401D01*
X106407844Y-61100000D01*
X105710000Y-61100000D01*
X105710000Y-62124722D01*
X105633694Y-62080667D01*
X105519244Y-62050000D01*
X105400756Y-62050000D01*
X105286306Y-62080667D01*
X105210000Y-62124722D01*
X105210000Y-61100000D01*
X104512155Y-61100000D01*
X104452627Y-61106401D01*
X104452620Y-61106403D01*
X104317913Y-61156645D01*
X104317906Y-61156649D01*
X104202812Y-61242809D01*
X104202809Y-61242812D01*
X104116649Y-61357906D01*
X104116645Y-61357913D01*
X104066403Y-61492620D01*
X104066401Y-61492627D01*
X104060000Y-61552155D01*
X100500500Y-61552155D01*
X100500500Y-52407941D01*
X103349500Y-52407941D01*
X103349500Y-52657058D01*
X103349501Y-52657075D01*
X103382017Y-52904061D01*
X103446498Y-53144707D01*
X103541830Y-53374861D01*
X103541837Y-53374876D01*
X103666400Y-53590626D01*
X103818060Y-53788274D01*
X103818066Y-53788281D01*
X103994218Y-53964433D01*
X103994225Y-53964439D01*
X104191873Y-54116099D01*
X104407623Y-54240662D01*
X104407638Y-54240669D01*
X104490075Y-54274815D01*
X104637793Y-54336002D01*
X104878435Y-54400482D01*
X105125435Y-54433000D01*
X105125442Y-54433000D01*
X105374558Y-54433000D01*
X105374565Y-54433000D01*
X105621565Y-54400482D01*
X105862207Y-54336002D01*
X106092373Y-54240664D01*
X106308127Y-54116099D01*
X106402771Y-54043475D01*
X106467936Y-54018282D01*
X106536381Y-54032320D01*
X106565936Y-54054171D01*
X119499584Y-66987819D01*
X119533069Y-67049142D01*
X119528085Y-67118834D01*
X119486213Y-67174767D01*
X119420749Y-67199184D01*
X119411903Y-67199500D01*
X118912129Y-67199500D01*
X118912123Y-67199501D01*
X118852516Y-67205908D01*
X118717671Y-67256202D01*
X118717664Y-67256206D01*
X118602455Y-67342452D01*
X118602452Y-67342455D01*
X118516206Y-67457664D01*
X118516202Y-67457671D01*
X118465908Y-67592517D01*
X118459501Y-67652116D01*
X118459500Y-67652135D01*
X118459500Y-69347870D01*
X118459501Y-69347876D01*
X118465908Y-69407483D01*
X118516202Y-69542328D01*
X118516206Y-69542335D01*
X118602452Y-69657544D01*
X118602455Y-69657547D01*
X118717664Y-69743793D01*
X118717671Y-69743797D01*
X118762618Y-69760561D01*
X118852517Y-69794091D01*
X118889441Y-69798060D01*
X118953989Y-69824796D01*
X118993838Y-69882188D01*
X118996333Y-69952013D01*
X118960681Y-70012102D01*
X118949071Y-70021666D01*
X118912784Y-70048030D01*
X118768028Y-70192786D01*
X118647715Y-70358386D01*
X118554781Y-70540776D01*
X118491522Y-70735465D01*
X118459500Y-70937648D01*
X118459500Y-71142351D01*
X118491522Y-71344534D01*
X118554781Y-71539223D01*
X118647715Y-71721613D01*
X118768028Y-71887213D01*
X118912786Y-72031971D01*
X119067749Y-72144556D01*
X119078390Y-72152287D01*
X119169840Y-72198883D01*
X119171080Y-72199515D01*
X119221876Y-72247490D01*
X119238671Y-72315311D01*
X119216134Y-72381446D01*
X119171080Y-72420485D01*
X119078386Y-72467715D01*
X118912786Y-72588028D01*
X118768028Y-72732786D01*
X118647715Y-72898386D01*
X118554781Y-73080776D01*
X118491522Y-73275465D01*
X118459500Y-73477648D01*
X118459500Y-73682351D01*
X118491522Y-73884534D01*
X118554781Y-74079223D01*
X118647715Y-74261613D01*
X118768028Y-74427213D01*
X118912786Y-74571971D01*
X119067749Y-74684556D01*
X119078390Y-74692287D01*
X119150424Y-74728990D01*
X119171629Y-74739795D01*
X119222425Y-74787770D01*
X119239220Y-74855591D01*
X119216682Y-74921726D01*
X119171629Y-74960765D01*
X119078650Y-75008140D01*
X118913105Y-75128417D01*
X118913104Y-75128417D01*
X118768417Y-75273104D01*
X118768417Y-75273105D01*
X118648140Y-75438650D01*
X118555244Y-75620970D01*
X118492009Y-75815586D01*
X118483391Y-75870000D01*
X119326988Y-75870000D01*
X119294075Y-75927007D01*
X119260000Y-76054174D01*
X119260000Y-76185826D01*
X119294075Y-76312993D01*
X119326988Y-76370000D01*
X118483391Y-76370000D01*
X118492009Y-76424413D01*
X118555244Y-76619029D01*
X118648140Y-76801349D01*
X118768417Y-76966894D01*
X118768417Y-76966895D01*
X118913104Y-77111582D01*
X119078652Y-77231861D01*
X119171628Y-77279234D01*
X119222425Y-77327208D01*
X119239220Y-77395029D01*
X119216683Y-77461164D01*
X119171630Y-77500203D01*
X119078388Y-77547713D01*
X118912786Y-77668028D01*
X118768028Y-77812786D01*
X118647715Y-77978386D01*
X118554781Y-78160776D01*
X118491522Y-78355465D01*
X118459500Y-78557648D01*
X118459500Y-78762351D01*
X118491522Y-78964534D01*
X118554781Y-79159223D01*
X118647715Y-79341613D01*
X118768028Y-79507213D01*
X118912786Y-79651971D01*
X119067749Y-79764556D01*
X119078390Y-79772287D01*
X119165008Y-79816421D01*
X119171080Y-79819515D01*
X119221876Y-79867490D01*
X119238671Y-79935311D01*
X119216134Y-80001446D01*
X119171080Y-80040485D01*
X119078386Y-80087715D01*
X118912786Y-80208028D01*
X118768028Y-80352786D01*
X118647715Y-80518386D01*
X118554781Y-80700776D01*
X118491522Y-80895465D01*
X118459500Y-81097648D01*
X118459500Y-81302351D01*
X118491522Y-81504534D01*
X118554781Y-81699223D01*
X118647715Y-81881613D01*
X118768028Y-82047213D01*
X118912786Y-82191971D01*
X119067749Y-82304556D01*
X119078390Y-82312287D01*
X119165008Y-82356421D01*
X119171080Y-82359515D01*
X119221876Y-82407490D01*
X119238671Y-82475311D01*
X119216134Y-82541446D01*
X119171080Y-82580485D01*
X119078386Y-82627715D01*
X118912786Y-82748028D01*
X118768028Y-82892786D01*
X118647715Y-83058386D01*
X118554781Y-83240776D01*
X118491522Y-83435465D01*
X118459500Y-83637648D01*
X118459500Y-83842351D01*
X118491522Y-84044534D01*
X118554781Y-84239223D01*
X118647715Y-84421613D01*
X118768028Y-84587213D01*
X118912786Y-84731971D01*
X119067749Y-84844556D01*
X119078390Y-84852287D01*
X119165008Y-84896421D01*
X119171080Y-84899515D01*
X119221876Y-84947490D01*
X119238671Y-85015311D01*
X119216134Y-85081446D01*
X119171080Y-85120485D01*
X119078386Y-85167715D01*
X118912786Y-85288028D01*
X118768028Y-85432786D01*
X118647715Y-85598386D01*
X118554781Y-85780776D01*
X118491522Y-85975465D01*
X118459500Y-86177648D01*
X118459500Y-86382351D01*
X118491522Y-86584534D01*
X118554781Y-86779223D01*
X118647715Y-86961613D01*
X118768028Y-87127213D01*
X118912786Y-87271971D01*
X119067749Y-87384556D01*
X119078390Y-87392287D01*
X119165008Y-87436421D01*
X119171080Y-87439515D01*
X119221876Y-87487490D01*
X119238671Y-87555311D01*
X119216134Y-87621446D01*
X119171080Y-87660485D01*
X119078386Y-87707715D01*
X118912786Y-87828028D01*
X118768028Y-87972786D01*
X118647715Y-88138386D01*
X118554781Y-88320776D01*
X118491522Y-88515465D01*
X118459500Y-88717648D01*
X118459500Y-88922351D01*
X118491522Y-89124534D01*
X118554781Y-89319223D01*
X118647715Y-89501613D01*
X118768028Y-89667213D01*
X118912786Y-89811971D01*
X119067749Y-89924556D01*
X119078390Y-89932287D01*
X119169840Y-89978883D01*
X119171080Y-89979515D01*
X119221876Y-90027490D01*
X119238671Y-90095311D01*
X119216134Y-90161446D01*
X119171080Y-90200485D01*
X119078386Y-90247715D01*
X118912786Y-90368028D01*
X118768028Y-90512786D01*
X118647715Y-90678386D01*
X118554781Y-90860776D01*
X118491522Y-91055465D01*
X118459500Y-91257648D01*
X118459500Y-91462351D01*
X118491522Y-91664534D01*
X118554781Y-91859223D01*
X118617177Y-91981680D01*
X118630271Y-92007379D01*
X118647715Y-92041613D01*
X118768028Y-92207213D01*
X118912786Y-92351971D01*
X119067749Y-92464556D01*
X119078390Y-92472287D01*
X119169840Y-92518883D01*
X119171080Y-92519515D01*
X119221876Y-92567490D01*
X119238671Y-92635311D01*
X119216134Y-92701446D01*
X119171080Y-92740485D01*
X119078386Y-92787715D01*
X118912786Y-92908028D01*
X118768028Y-93052786D01*
X118647715Y-93218386D01*
X118554781Y-93400776D01*
X118491522Y-93595465D01*
X118459500Y-93797648D01*
X118459500Y-94002351D01*
X118491522Y-94204534D01*
X118554781Y-94399223D01*
X118647715Y-94581613D01*
X118768028Y-94747213D01*
X118912786Y-94891971D01*
X119067749Y-95004556D01*
X119078390Y-95012287D01*
X119169840Y-95058883D01*
X119171080Y-95059515D01*
X119221876Y-95107490D01*
X119238671Y-95175311D01*
X119216134Y-95241446D01*
X119171080Y-95280485D01*
X119078386Y-95327715D01*
X118912786Y-95448028D01*
X118768028Y-95592786D01*
X118647715Y-95758386D01*
X118554781Y-95940776D01*
X118491522Y-96135465D01*
X118459500Y-96337648D01*
X118459500Y-96542351D01*
X118491522Y-96744534D01*
X118554781Y-96939223D01*
X118604320Y-97036447D01*
X118647282Y-97120765D01*
X118647715Y-97121613D01*
X118768028Y-97287213D01*
X118912786Y-97431971D01*
X119067749Y-97544556D01*
X119078390Y-97552287D01*
X119169840Y-97598883D01*
X119171080Y-97599515D01*
X119221876Y-97647490D01*
X119238671Y-97715311D01*
X119216134Y-97781446D01*
X119171080Y-97820485D01*
X119078386Y-97867715D01*
X118912786Y-97988028D01*
X118768028Y-98132786D01*
X118647715Y-98298386D01*
X118554781Y-98480776D01*
X118491522Y-98675465D01*
X118459500Y-98877648D01*
X118459500Y-99082351D01*
X118491522Y-99284534D01*
X118554781Y-99479223D01*
X118610021Y-99587635D01*
X118646910Y-99660035D01*
X118647715Y-99661613D01*
X118768028Y-99827213D01*
X118912786Y-99971971D01*
X119020186Y-100050000D01*
X119078390Y-100092287D01*
X119169840Y-100138883D01*
X119171080Y-100139515D01*
X119221876Y-100187490D01*
X119238671Y-100255311D01*
X119216134Y-100321446D01*
X119171080Y-100360485D01*
X119078386Y-100407715D01*
X118912786Y-100528028D01*
X118768028Y-100672786D01*
X118647715Y-100838386D01*
X118554781Y-101020776D01*
X118491522Y-101215465D01*
X118459500Y-101417648D01*
X118459500Y-101622351D01*
X118491522Y-101824534D01*
X118554781Y-102019223D01*
X118618691Y-102144653D01*
X118644582Y-102195466D01*
X118647715Y-102201613D01*
X118768028Y-102367213D01*
X118912786Y-102511971D01*
X119067749Y-102624556D01*
X119078390Y-102632287D01*
X119169840Y-102678883D01*
X119171080Y-102679515D01*
X119221876Y-102727490D01*
X119238671Y-102795311D01*
X119216134Y-102861446D01*
X119171080Y-102900485D01*
X119078386Y-102947715D01*
X118912786Y-103068028D01*
X118768028Y-103212786D01*
X118647715Y-103378386D01*
X118554781Y-103560776D01*
X118491522Y-103755465D01*
X118459500Y-103957648D01*
X118459500Y-104162351D01*
X118491522Y-104364534D01*
X118554781Y-104559223D01*
X118647715Y-104741613D01*
X118768028Y-104907213D01*
X118912786Y-105051971D01*
X119067749Y-105164556D01*
X119078390Y-105172287D01*
X119194607Y-105231503D01*
X119260776Y-105265218D01*
X119260778Y-105265218D01*
X119260781Y-105265220D01*
X119365137Y-105299127D01*
X119455465Y-105328477D01*
X119556557Y-105344488D01*
X119657648Y-105360500D01*
X119657649Y-105360500D01*
X119862351Y-105360500D01*
X119862352Y-105360500D01*
X120064534Y-105328477D01*
X120259219Y-105265220D01*
X120441610Y-105172287D01*
X120534590Y-105104732D01*
X120607213Y-105051971D01*
X120607215Y-105051968D01*
X120607219Y-105051966D01*
X120751966Y-104907219D01*
X120751968Y-104907215D01*
X120751971Y-104907213D01*
X120804732Y-104834590D01*
X120872287Y-104741610D01*
X120965220Y-104559219D01*
X121028477Y-104364534D01*
X121060500Y-104162352D01*
X121060500Y-103957648D01*
X121028477Y-103755466D01*
X121012150Y-103705218D01*
X120965218Y-103560776D01*
X120930157Y-103491966D01*
X120872287Y-103378390D01*
X120849636Y-103347213D01*
X120751971Y-103212786D01*
X120607213Y-103068028D01*
X120441614Y-102947715D01*
X120435006Y-102944348D01*
X120348917Y-102900483D01*
X120298123Y-102852511D01*
X120281328Y-102784690D01*
X120303865Y-102718555D01*
X120348917Y-102679516D01*
X120441610Y-102632287D01*
X120482814Y-102602351D01*
X120607213Y-102511971D01*
X120607215Y-102511968D01*
X120607219Y-102511966D01*
X120751966Y-102367219D01*
X120751968Y-102367215D01*
X120751971Y-102367213D01*
X120804732Y-102294590D01*
X120872287Y-102201610D01*
X120965220Y-102019219D01*
X121028477Y-101824534D01*
X121060500Y-101622352D01*
X121060500Y-101417648D01*
X121055759Y-101387713D01*
X121028477Y-101215465D01*
X120999127Y-101125137D01*
X120965220Y-101020781D01*
X120965218Y-101020778D01*
X120965218Y-101020776D01*
X120929155Y-100950000D01*
X120872287Y-100838390D01*
X120827181Y-100776306D01*
X120751971Y-100672786D01*
X120607213Y-100528028D01*
X120441614Y-100407715D01*
X120435006Y-100404348D01*
X120348917Y-100360483D01*
X120298123Y-100312511D01*
X120281328Y-100244690D01*
X120303865Y-100178555D01*
X120348917Y-100139516D01*
X120441610Y-100092287D01*
X120499814Y-100050000D01*
X120607213Y-99971971D01*
X120607215Y-99971968D01*
X120607219Y-99971966D01*
X120751966Y-99827219D01*
X120751968Y-99827215D01*
X120751971Y-99827213D01*
X120804732Y-99754590D01*
X120872287Y-99661610D01*
X120962872Y-99483827D01*
X120965218Y-99479223D01*
X120965218Y-99479222D01*
X120965220Y-99479219D01*
X121028477Y-99284534D01*
X121060500Y-99082352D01*
X121060500Y-98877648D01*
X121028477Y-98675466D01*
X120965220Y-98480781D01*
X120965218Y-98480778D01*
X120965218Y-98480776D01*
X120931503Y-98414607D01*
X120872287Y-98298390D01*
X120837130Y-98250000D01*
X120751971Y-98132786D01*
X120607213Y-97988028D01*
X120441614Y-97867715D01*
X120435006Y-97864348D01*
X120348917Y-97820483D01*
X120298123Y-97772511D01*
X120281328Y-97704690D01*
X120303865Y-97638555D01*
X120348917Y-97599516D01*
X120441610Y-97552287D01*
X120462770Y-97536913D01*
X120607213Y-97431971D01*
X120607215Y-97431968D01*
X120607219Y-97431966D01*
X120751966Y-97287219D01*
X120751968Y-97287215D01*
X120751971Y-97287213D01*
X120811543Y-97205218D01*
X120872287Y-97121610D01*
X120965220Y-96939219D01*
X121028477Y-96744534D01*
X121060500Y-96542352D01*
X121060500Y-96337648D01*
X121028477Y-96135466D01*
X120965220Y-95940781D01*
X120965218Y-95940778D01*
X120965218Y-95940776D01*
X120931503Y-95874607D01*
X120872287Y-95758390D01*
X120833556Y-95705081D01*
X120751971Y-95592786D01*
X120607213Y-95448028D01*
X120441614Y-95327715D01*
X120435006Y-95324348D01*
X120348917Y-95280483D01*
X120298123Y-95232511D01*
X120281328Y-95164690D01*
X120303865Y-95098555D01*
X120348917Y-95059516D01*
X120441610Y-95012287D01*
X120462770Y-94996913D01*
X120607213Y-94891971D01*
X120607215Y-94891968D01*
X120607219Y-94891966D01*
X120751966Y-94747219D01*
X120751968Y-94747215D01*
X120751971Y-94747213D01*
X120804732Y-94674590D01*
X120872287Y-94581610D01*
X120965220Y-94399219D01*
X121028477Y-94204534D01*
X121060500Y-94002352D01*
X121060500Y-93797648D01*
X121028477Y-93595466D01*
X120965220Y-93400781D01*
X120965218Y-93400778D01*
X120965218Y-93400776D01*
X120931503Y-93334607D01*
X120872287Y-93218390D01*
X120864556Y-93207749D01*
X120751971Y-93052786D01*
X120607213Y-92908028D01*
X120441614Y-92787715D01*
X120435006Y-92784348D01*
X120348917Y-92740483D01*
X120298123Y-92692511D01*
X120281328Y-92624690D01*
X120303865Y-92558555D01*
X120348917Y-92519516D01*
X120441610Y-92472287D01*
X120462770Y-92456913D01*
X120607213Y-92351971D01*
X120607215Y-92351968D01*
X120607219Y-92351966D01*
X120751966Y-92207219D01*
X120751968Y-92207215D01*
X120751971Y-92207213D01*
X120852937Y-92068243D01*
X120872287Y-92041610D01*
X120965220Y-91859219D01*
X121028477Y-91664534D01*
X121060500Y-91462352D01*
X121060500Y-91257648D01*
X121037150Y-91110222D01*
X121028477Y-91055465D01*
X120991205Y-90940756D01*
X120965220Y-90860781D01*
X120965218Y-90860778D01*
X120965218Y-90860776D01*
X120931503Y-90794607D01*
X120872287Y-90678390D01*
X120801288Y-90580667D01*
X120751971Y-90512786D01*
X120607213Y-90368028D01*
X120441614Y-90247715D01*
X120435006Y-90244348D01*
X120348917Y-90200483D01*
X120298123Y-90152511D01*
X120281328Y-90084690D01*
X120303865Y-90018555D01*
X120348917Y-89979516D01*
X120441610Y-89932287D01*
X120543978Y-89857913D01*
X120607213Y-89811971D01*
X120607215Y-89811968D01*
X120607219Y-89811966D01*
X120751966Y-89667219D01*
X120751968Y-89667215D01*
X120751971Y-89667213D01*
X120804732Y-89594590D01*
X120872287Y-89501610D01*
X120965220Y-89319219D01*
X121028477Y-89124534D01*
X121060500Y-88922352D01*
X121060500Y-88717648D01*
X121028477Y-88515466D01*
X121026060Y-88508028D01*
X120986968Y-88387715D01*
X120965220Y-88320781D01*
X120965218Y-88320778D01*
X120965218Y-88320776D01*
X120903424Y-88199500D01*
X120872287Y-88138390D01*
X120864556Y-88127749D01*
X120751971Y-87972786D01*
X120607213Y-87828028D01*
X120441614Y-87707715D01*
X120435006Y-87704348D01*
X120348917Y-87660483D01*
X120298123Y-87612511D01*
X120281328Y-87544690D01*
X120303865Y-87478555D01*
X120348917Y-87439516D01*
X120441610Y-87392287D01*
X120499814Y-87350000D01*
X120607213Y-87271971D01*
X120607215Y-87271968D01*
X120607219Y-87271966D01*
X120751966Y-87127219D01*
X120751968Y-87127215D01*
X120751971Y-87127213D01*
X120804732Y-87054590D01*
X120872287Y-86961610D01*
X120965220Y-86779219D01*
X121028477Y-86584534D01*
X121060500Y-86382352D01*
X121060500Y-86177648D01*
X121028477Y-85975466D01*
X120965220Y-85780781D01*
X120965218Y-85780778D01*
X120965218Y-85780776D01*
X120931503Y-85714607D01*
X120872287Y-85598390D01*
X120864556Y-85587749D01*
X120751971Y-85432786D01*
X120607213Y-85288028D01*
X120441614Y-85167715D01*
X120435006Y-85164348D01*
X120348917Y-85120483D01*
X120298123Y-85072511D01*
X120281328Y-85004690D01*
X120303865Y-84938555D01*
X120348917Y-84899516D01*
X120441610Y-84852287D01*
X120499814Y-84810000D01*
X120607213Y-84731971D01*
X120607215Y-84731968D01*
X120607219Y-84731966D01*
X120751966Y-84587219D01*
X120751968Y-84587215D01*
X120751971Y-84587213D01*
X120804732Y-84514590D01*
X120872287Y-84421610D01*
X120965220Y-84239219D01*
X121028477Y-84044534D01*
X121060500Y-83842352D01*
X121060500Y-83637648D01*
X121044737Y-83538123D01*
X121028477Y-83435465D01*
X120999127Y-83345137D01*
X120965220Y-83240781D01*
X120965218Y-83240778D01*
X120965218Y-83240776D01*
X120931503Y-83174607D01*
X120872287Y-83058390D01*
X120864556Y-83047749D01*
X120751971Y-82892786D01*
X120607213Y-82748028D01*
X120441614Y-82627715D01*
X120435006Y-82624348D01*
X120348917Y-82580483D01*
X120298123Y-82532511D01*
X120281328Y-82464690D01*
X120303865Y-82398555D01*
X120348917Y-82359516D01*
X120441610Y-82312287D01*
X120499814Y-82270000D01*
X120607213Y-82191971D01*
X120607215Y-82191968D01*
X120607219Y-82191966D01*
X120751966Y-82047219D01*
X120751968Y-82047215D01*
X120751971Y-82047213D01*
X120822599Y-81950000D01*
X120872287Y-81881610D01*
X120965220Y-81699219D01*
X121028477Y-81504534D01*
X121060500Y-81302352D01*
X121060500Y-81097648D01*
X121028477Y-80895466D01*
X120965220Y-80700781D01*
X120965218Y-80700778D01*
X120965218Y-80700776D01*
X120907572Y-80587641D01*
X120872287Y-80518390D01*
X120846079Y-80482317D01*
X120751971Y-80352786D01*
X120607213Y-80208028D01*
X120441614Y-80087715D01*
X120435006Y-80084348D01*
X120348917Y-80040483D01*
X120298123Y-79992511D01*
X120281328Y-79924690D01*
X120303865Y-79858555D01*
X120348917Y-79819516D01*
X120441610Y-79772287D01*
X120499814Y-79730000D01*
X120607213Y-79651971D01*
X120607215Y-79651968D01*
X120607219Y-79651966D01*
X120751966Y-79507219D01*
X120751968Y-79507215D01*
X120751971Y-79507213D01*
X120804732Y-79434590D01*
X120872287Y-79341610D01*
X120965220Y-79159219D01*
X121028477Y-78964534D01*
X121060500Y-78762352D01*
X121060500Y-78557648D01*
X121028477Y-78355466D01*
X120965220Y-78160781D01*
X120965218Y-78160778D01*
X120965218Y-78160776D01*
X120931503Y-78094607D01*
X120872287Y-77978390D01*
X120864556Y-77967749D01*
X120751971Y-77812786D01*
X120607213Y-77668028D01*
X120441611Y-77547713D01*
X120348369Y-77500203D01*
X120297574Y-77452229D01*
X120280779Y-77384407D01*
X120303317Y-77318273D01*
X120348371Y-77279234D01*
X120441347Y-77231861D01*
X120606894Y-77111582D01*
X120606895Y-77111582D01*
X120751582Y-76966895D01*
X120751582Y-76966894D01*
X120871859Y-76801349D01*
X120964755Y-76619029D01*
X121027990Y-76424413D01*
X121036609Y-76370000D01*
X120193012Y-76370000D01*
X120225925Y-76312993D01*
X120260000Y-76185826D01*
X120260000Y-76054174D01*
X120225925Y-75927007D01*
X120193012Y-75870000D01*
X121036609Y-75870000D01*
X121027990Y-75815586D01*
X120964755Y-75620970D01*
X120871859Y-75438650D01*
X120751582Y-75273105D01*
X120751582Y-75273104D01*
X120606895Y-75128417D01*
X120441349Y-75008140D01*
X120348370Y-74960765D01*
X120297574Y-74912790D01*
X120280779Y-74844969D01*
X120303316Y-74778835D01*
X120348370Y-74739795D01*
X120348920Y-74739515D01*
X120441610Y-74692287D01*
X120462770Y-74676913D01*
X120607213Y-74571971D01*
X120607215Y-74571968D01*
X120607219Y-74571966D01*
X120751966Y-74427219D01*
X120751968Y-74427215D01*
X120751971Y-74427213D01*
X120804732Y-74354590D01*
X120872287Y-74261610D01*
X120965220Y-74079219D01*
X121028477Y-73884534D01*
X121060500Y-73682352D01*
X121060500Y-73477648D01*
X121032030Y-73297896D01*
X121028477Y-73275465D01*
X120965218Y-73080776D01*
X120927816Y-73007372D01*
X120872287Y-72898390D01*
X120864556Y-72887749D01*
X120751971Y-72732786D01*
X120607213Y-72588028D01*
X120441614Y-72467715D01*
X120406846Y-72450000D01*
X120348917Y-72420483D01*
X120298123Y-72372511D01*
X120281328Y-72304690D01*
X120303865Y-72238555D01*
X120348917Y-72199516D01*
X120441610Y-72152287D01*
X120499508Y-72110222D01*
X120607213Y-72031971D01*
X120607215Y-72031968D01*
X120607219Y-72031966D01*
X120751966Y-71887219D01*
X120751968Y-71887215D01*
X120751971Y-71887213D01*
X120804732Y-71814590D01*
X120872287Y-71721610D01*
X120965220Y-71539219D01*
X121028477Y-71344534D01*
X121060500Y-71142352D01*
X121060500Y-70937648D01*
X121039045Y-70802187D01*
X121028477Y-70735465D01*
X120965218Y-70540776D01*
X120872419Y-70358650D01*
X120872287Y-70358390D01*
X120833159Y-70304534D01*
X120751971Y-70192786D01*
X120607219Y-70048034D01*
X120570930Y-70021669D01*
X120528264Y-69966339D01*
X120522285Y-69896726D01*
X120554890Y-69834931D01*
X120615728Y-69800573D01*
X120630562Y-69798060D01*
X120667483Y-69794091D01*
X120802328Y-69743797D01*
X120802327Y-69743797D01*
X120802331Y-69743796D01*
X120917546Y-69657546D01*
X121003796Y-69542331D01*
X121054091Y-69407483D01*
X121060500Y-69347873D01*
X121060499Y-68848094D01*
X121066737Y-68826849D01*
X121068317Y-68804762D01*
X121076388Y-68793979D01*
X121080183Y-68781057D01*
X121096919Y-68766555D01*
X121110189Y-68748829D01*
X121122807Y-68744122D01*
X121132987Y-68735302D01*
X121154905Y-68732150D01*
X121175653Y-68724412D01*
X121188813Y-68727274D01*
X121202146Y-68725358D01*
X121222289Y-68734557D01*
X121243926Y-68739264D01*
X121261651Y-68752532D01*
X121265702Y-68754383D01*
X121272180Y-68760415D01*
X121376139Y-68864374D01*
X121376149Y-68864385D01*
X121380479Y-68868715D01*
X121380480Y-68868716D01*
X121492284Y-68980520D01*
X121539931Y-69008028D01*
X121579095Y-69030639D01*
X121579097Y-69030641D01*
X121617151Y-69052611D01*
X121629215Y-69059577D01*
X121781943Y-69100500D01*
X133770398Y-69100500D01*
X133837437Y-69120185D01*
X133880883Y-69168205D01*
X133887715Y-69181614D01*
X134008028Y-69347213D01*
X134152786Y-69491971D01*
X134307749Y-69604556D01*
X134318390Y-69612287D01*
X134390424Y-69648990D01*
X134411629Y-69659795D01*
X134462425Y-69707770D01*
X134479220Y-69775591D01*
X134456682Y-69841726D01*
X134411629Y-69880765D01*
X134318650Y-69928140D01*
X134153105Y-70048417D01*
X134153104Y-70048417D01*
X134008417Y-70193104D01*
X134008417Y-70193105D01*
X133888140Y-70358650D01*
X133795244Y-70540970D01*
X133732009Y-70735586D01*
X133723391Y-70790000D01*
X134566988Y-70790000D01*
X134534075Y-70847007D01*
X134500000Y-70974174D01*
X134500000Y-71105826D01*
X134534075Y-71232993D01*
X134566988Y-71290000D01*
X133723391Y-71290000D01*
X133732009Y-71344413D01*
X133795244Y-71539029D01*
X133888140Y-71721349D01*
X134008417Y-71886894D01*
X134008417Y-71886895D01*
X134153104Y-72031582D01*
X134318652Y-72151861D01*
X134411628Y-72199234D01*
X134462425Y-72247208D01*
X134479220Y-72315029D01*
X134456683Y-72381164D01*
X134411630Y-72420203D01*
X134318388Y-72467713D01*
X134152786Y-72588028D01*
X134008028Y-72732786D01*
X133887715Y-72898386D01*
X133794781Y-73080776D01*
X133731522Y-73275465D01*
X133699500Y-73477648D01*
X133699500Y-73682351D01*
X133731522Y-73884534D01*
X133794781Y-74079223D01*
X133887715Y-74261613D01*
X134008028Y-74427213D01*
X134152786Y-74571971D01*
X134307749Y-74684556D01*
X134318390Y-74692287D01*
X134409840Y-74738883D01*
X134411080Y-74739515D01*
X134461876Y-74787490D01*
X134478671Y-74855311D01*
X134456134Y-74921446D01*
X134411080Y-74960485D01*
X134318386Y-75007715D01*
X134152786Y-75128028D01*
X134008028Y-75272786D01*
X133887715Y-75438386D01*
X133794781Y-75620776D01*
X133731522Y-75815465D01*
X133699500Y-76017648D01*
X133699500Y-76222351D01*
X133731522Y-76424534D01*
X133794781Y-76619223D01*
X133858691Y-76744653D01*
X133884303Y-76794918D01*
X133887715Y-76801613D01*
X134008028Y-76967213D01*
X134152786Y-77111971D01*
X134307749Y-77224556D01*
X134318390Y-77232287D01*
X134409840Y-77278883D01*
X134411080Y-77279515D01*
X134461876Y-77327490D01*
X134478671Y-77395311D01*
X134456134Y-77461446D01*
X134411080Y-77500485D01*
X134318386Y-77547715D01*
X134152786Y-77668028D01*
X134008028Y-77812786D01*
X133887715Y-77978386D01*
X133794781Y-78160776D01*
X133731522Y-78355465D01*
X133699500Y-78557648D01*
X133699500Y-78762351D01*
X133731522Y-78964534D01*
X133794781Y-79159223D01*
X133887715Y-79341613D01*
X134008028Y-79507213D01*
X134152786Y-79651971D01*
X134307749Y-79764556D01*
X134318390Y-79772287D01*
X134405008Y-79816421D01*
X134411080Y-79819515D01*
X134461876Y-79867490D01*
X134478671Y-79935311D01*
X134456134Y-80001446D01*
X134411080Y-80040485D01*
X134318386Y-80087715D01*
X134152786Y-80208028D01*
X134008028Y-80352786D01*
X133887715Y-80518386D01*
X133794781Y-80700776D01*
X133731522Y-80895465D01*
X133699500Y-81097648D01*
X133699500Y-81302351D01*
X133731522Y-81504534D01*
X133794781Y-81699223D01*
X133887715Y-81881613D01*
X134008028Y-82047213D01*
X134152786Y-82191971D01*
X134307749Y-82304556D01*
X134318390Y-82312287D01*
X134405008Y-82356421D01*
X134411080Y-82359515D01*
X134461876Y-82407490D01*
X134478671Y-82475311D01*
X134456134Y-82541446D01*
X134411080Y-82580485D01*
X134318386Y-82627715D01*
X134152786Y-82748028D01*
X134008028Y-82892786D01*
X133887715Y-83058386D01*
X133794781Y-83240776D01*
X133731522Y-83435465D01*
X133699500Y-83637648D01*
X133699500Y-83842351D01*
X133731522Y-84044534D01*
X133794781Y-84239223D01*
X133887715Y-84421613D01*
X134008028Y-84587213D01*
X134152786Y-84731971D01*
X134307749Y-84844556D01*
X134318390Y-84852287D01*
X134405008Y-84896421D01*
X134411080Y-84899515D01*
X134461876Y-84947490D01*
X134478671Y-85015311D01*
X134456134Y-85081446D01*
X134411080Y-85120485D01*
X134318386Y-85167715D01*
X134152786Y-85288028D01*
X134008028Y-85432786D01*
X133887715Y-85598386D01*
X133794781Y-85780776D01*
X133731522Y-85975465D01*
X133699500Y-86177648D01*
X133699500Y-86382351D01*
X133731522Y-86584534D01*
X133794781Y-86779223D01*
X133887715Y-86961613D01*
X134008028Y-87127213D01*
X134152786Y-87271971D01*
X134307749Y-87384556D01*
X134318390Y-87392287D01*
X134405008Y-87436421D01*
X134411080Y-87439515D01*
X134461876Y-87487490D01*
X134478671Y-87555311D01*
X134456134Y-87621446D01*
X134411080Y-87660485D01*
X134318386Y-87707715D01*
X134152786Y-87828028D01*
X134008028Y-87972786D01*
X133887715Y-88138386D01*
X133794781Y-88320776D01*
X133731522Y-88515465D01*
X133699500Y-88717648D01*
X133699500Y-88922351D01*
X133731522Y-89124534D01*
X133794781Y-89319223D01*
X133887715Y-89501613D01*
X134008028Y-89667213D01*
X134152786Y-89811971D01*
X134307749Y-89924556D01*
X134318390Y-89932287D01*
X134409840Y-89978883D01*
X134411080Y-89979515D01*
X134461876Y-90027490D01*
X134478671Y-90095311D01*
X134456134Y-90161446D01*
X134411080Y-90200485D01*
X134318386Y-90247715D01*
X134152786Y-90368028D01*
X134008028Y-90512786D01*
X133887715Y-90678386D01*
X133794781Y-90860776D01*
X133731522Y-91055465D01*
X133699500Y-91257648D01*
X133699500Y-91462351D01*
X133731522Y-91664534D01*
X133794781Y-91859223D01*
X133857177Y-91981680D01*
X133870271Y-92007379D01*
X133887715Y-92041613D01*
X134008028Y-92207213D01*
X134152786Y-92351971D01*
X134307749Y-92464556D01*
X134318390Y-92472287D01*
X134409840Y-92518883D01*
X134411080Y-92519515D01*
X134461876Y-92567490D01*
X134478671Y-92635311D01*
X134456134Y-92701446D01*
X134411080Y-92740485D01*
X134318386Y-92787715D01*
X134152786Y-92908028D01*
X134008028Y-93052786D01*
X133887715Y-93218386D01*
X133794781Y-93400776D01*
X133731522Y-93595465D01*
X133699500Y-93797648D01*
X133699500Y-94002351D01*
X133731522Y-94204534D01*
X133794781Y-94399223D01*
X133887715Y-94581613D01*
X134008028Y-94747213D01*
X134152786Y-94891971D01*
X134307749Y-95004556D01*
X134318390Y-95012287D01*
X134409840Y-95058883D01*
X134411080Y-95059515D01*
X134461876Y-95107490D01*
X134478671Y-95175311D01*
X134456134Y-95241446D01*
X134411080Y-95280485D01*
X134318386Y-95327715D01*
X134152786Y-95448028D01*
X134008028Y-95592786D01*
X133887715Y-95758386D01*
X133794781Y-95940776D01*
X133731522Y-96135465D01*
X133699500Y-96337648D01*
X133699500Y-96542351D01*
X133731522Y-96744534D01*
X133794781Y-96939223D01*
X133844320Y-97036447D01*
X133887282Y-97120765D01*
X133887715Y-97121613D01*
X134008028Y-97287213D01*
X134152786Y-97431971D01*
X134307749Y-97544556D01*
X134318390Y-97552287D01*
X134409840Y-97598883D01*
X134411080Y-97599515D01*
X134461876Y-97647490D01*
X134478671Y-97715311D01*
X134456134Y-97781446D01*
X134411080Y-97820485D01*
X134318386Y-97867715D01*
X134152786Y-97988028D01*
X134008028Y-98132786D01*
X133887715Y-98298386D01*
X133794781Y-98480776D01*
X133731522Y-98675465D01*
X133699500Y-98877648D01*
X133699500Y-99082351D01*
X133731522Y-99284534D01*
X133794781Y-99479223D01*
X133850021Y-99587635D01*
X133886910Y-99660035D01*
X133887715Y-99661613D01*
X134008028Y-99827213D01*
X134152786Y-99971971D01*
X134260186Y-100050000D01*
X134318390Y-100092287D01*
X134409840Y-100138883D01*
X134411080Y-100139515D01*
X134461876Y-100187490D01*
X134478671Y-100255311D01*
X134456134Y-100321446D01*
X134411080Y-100360485D01*
X134318386Y-100407715D01*
X134152786Y-100528028D01*
X134008028Y-100672786D01*
X133887715Y-100838386D01*
X133794781Y-101020776D01*
X133731522Y-101215465D01*
X133699500Y-101417648D01*
X133699500Y-101622351D01*
X133731522Y-101824534D01*
X133794781Y-102019223D01*
X133858691Y-102144653D01*
X133884582Y-102195466D01*
X133887715Y-102201613D01*
X134008028Y-102367213D01*
X134152786Y-102511971D01*
X134307749Y-102624556D01*
X134318390Y-102632287D01*
X134409840Y-102678883D01*
X134411080Y-102679515D01*
X134461876Y-102727490D01*
X134478671Y-102795311D01*
X134456134Y-102861446D01*
X134411080Y-102900485D01*
X134318386Y-102947715D01*
X134152786Y-103068028D01*
X134008028Y-103212786D01*
X133887715Y-103378386D01*
X133794781Y-103560776D01*
X133731522Y-103755465D01*
X133699500Y-103957648D01*
X133699500Y-104162351D01*
X133731522Y-104364534D01*
X133794781Y-104559223D01*
X133887715Y-104741613D01*
X134008028Y-104907213D01*
X134152786Y-105051971D01*
X134307749Y-105164556D01*
X134318390Y-105172287D01*
X134434607Y-105231503D01*
X134500776Y-105265218D01*
X134500778Y-105265218D01*
X134500781Y-105265220D01*
X134605137Y-105299127D01*
X134695465Y-105328477D01*
X134796557Y-105344488D01*
X134897648Y-105360500D01*
X134897649Y-105360500D01*
X135102351Y-105360500D01*
X135102352Y-105360500D01*
X135304534Y-105328477D01*
X135499219Y-105265220D01*
X135681610Y-105172287D01*
X135774590Y-105104732D01*
X135847213Y-105051971D01*
X135847215Y-105051968D01*
X135847219Y-105051966D01*
X135991966Y-104907219D01*
X135991968Y-104907215D01*
X135991971Y-104907213D01*
X136044732Y-104834590D01*
X136112287Y-104741610D01*
X136205220Y-104559219D01*
X136268477Y-104364534D01*
X136300500Y-104162352D01*
X136300500Y-103957648D01*
X136268477Y-103755466D01*
X136252150Y-103705218D01*
X136205218Y-103560776D01*
X136170157Y-103491966D01*
X136112287Y-103378390D01*
X136089636Y-103347213D01*
X135991971Y-103212786D01*
X135847213Y-103068028D01*
X135681614Y-102947715D01*
X135675006Y-102944348D01*
X135588917Y-102900483D01*
X135538123Y-102852511D01*
X135521328Y-102784690D01*
X135543865Y-102718555D01*
X135588917Y-102679516D01*
X135681610Y-102632287D01*
X135722814Y-102602351D01*
X135847213Y-102511971D01*
X135847215Y-102511968D01*
X135847219Y-102511966D01*
X135991966Y-102367219D01*
X135991968Y-102367215D01*
X135991971Y-102367213D01*
X136044732Y-102294590D01*
X136112287Y-102201610D01*
X136205220Y-102019219D01*
X136268477Y-101824534D01*
X136300500Y-101622352D01*
X136300500Y-101417648D01*
X136295759Y-101387713D01*
X136268477Y-101215465D01*
X136239127Y-101125137D01*
X136205220Y-101020781D01*
X136205218Y-101020778D01*
X136205218Y-101020776D01*
X136169155Y-100950000D01*
X136112287Y-100838390D01*
X136067181Y-100776306D01*
X135991971Y-100672786D01*
X135847213Y-100528028D01*
X135681614Y-100407715D01*
X135675006Y-100404348D01*
X135588917Y-100360483D01*
X135538123Y-100312511D01*
X135521328Y-100244690D01*
X135543865Y-100178555D01*
X135588917Y-100139516D01*
X135681610Y-100092287D01*
X135739814Y-100050000D01*
X135847213Y-99971971D01*
X135847215Y-99971968D01*
X135847219Y-99971966D01*
X135991966Y-99827219D01*
X135991968Y-99827215D01*
X135991971Y-99827213D01*
X136044732Y-99754590D01*
X136112287Y-99661610D01*
X136202872Y-99483827D01*
X136205218Y-99479223D01*
X136205218Y-99479222D01*
X136205220Y-99479219D01*
X136268477Y-99284534D01*
X136300500Y-99082352D01*
X136300500Y-98877648D01*
X136268477Y-98675466D01*
X136205220Y-98480781D01*
X136205218Y-98480778D01*
X136205218Y-98480776D01*
X136181043Y-98433331D01*
X136179644Y-98430585D01*
X136154839Y-98381902D01*
X140719500Y-98381902D01*
X140719500Y-98618097D01*
X140756446Y-98851368D01*
X140829433Y-99075996D01*
X140914429Y-99242809D01*
X140936657Y-99286433D01*
X141075483Y-99477510D01*
X141242490Y-99644517D01*
X141433567Y-99783343D01*
X141437057Y-99785121D01*
X141644003Y-99890566D01*
X141644005Y-99890566D01*
X141644008Y-99890568D01*
X141764412Y-99929689D01*
X141868631Y-99963553D01*
X142101903Y-100000500D01*
X142101908Y-100000500D01*
X142338097Y-100000500D01*
X142571368Y-99963553D01*
X142574938Y-99962393D01*
X142795992Y-99890568D01*
X143006433Y-99783343D01*
X143197510Y-99644517D01*
X143364517Y-99477510D01*
X143389682Y-99442872D01*
X143445011Y-99400207D01*
X143514625Y-99394228D01*
X143576420Y-99426833D01*
X143590315Y-99442870D01*
X143615483Y-99477510D01*
X143782490Y-99644517D01*
X143973567Y-99783343D01*
X143977057Y-99785121D01*
X144184003Y-99890566D01*
X144184005Y-99890566D01*
X144184008Y-99890568D01*
X144304412Y-99929689D01*
X144408631Y-99963553D01*
X144641903Y-100000500D01*
X144641908Y-100000500D01*
X144878097Y-100000500D01*
X145111368Y-99963553D01*
X145114938Y-99962393D01*
X145335992Y-99890568D01*
X145546433Y-99783343D01*
X145737510Y-99644517D01*
X145904517Y-99477510D01*
X145929682Y-99442872D01*
X145985011Y-99400207D01*
X146054625Y-99394228D01*
X146116420Y-99426833D01*
X146130315Y-99442870D01*
X146155483Y-99477510D01*
X146322490Y-99644517D01*
X146513567Y-99783343D01*
X146517057Y-99785121D01*
X146724003Y-99890566D01*
X146724005Y-99890566D01*
X146724008Y-99890568D01*
X146844412Y-99929689D01*
X146948631Y-99963553D01*
X147181903Y-100000500D01*
X147181908Y-100000500D01*
X147418097Y-100000500D01*
X147651368Y-99963553D01*
X147654938Y-99962393D01*
X147875992Y-99890568D01*
X148086433Y-99783343D01*
X148277510Y-99644517D01*
X148444517Y-99477510D01*
X148469682Y-99442872D01*
X148525011Y-99400207D01*
X148594625Y-99394228D01*
X148656420Y-99426833D01*
X148670315Y-99442870D01*
X148695483Y-99477510D01*
X148862490Y-99644517D01*
X149053567Y-99783343D01*
X149057057Y-99785121D01*
X149264003Y-99890566D01*
X149264005Y-99890566D01*
X149264008Y-99890568D01*
X149384412Y-99929689D01*
X149488631Y-99963553D01*
X149721903Y-100000500D01*
X149721908Y-100000500D01*
X149958097Y-100000500D01*
X150191368Y-99963553D01*
X150194938Y-99962393D01*
X150415992Y-99890568D01*
X150626433Y-99783343D01*
X150817510Y-99644517D01*
X150984517Y-99477510D01*
X151009682Y-99442872D01*
X151065011Y-99400207D01*
X151134625Y-99394228D01*
X151196420Y-99426833D01*
X151210315Y-99442870D01*
X151235483Y-99477510D01*
X151402490Y-99644517D01*
X151593567Y-99783343D01*
X151597057Y-99785121D01*
X151804003Y-99890566D01*
X151804005Y-99890566D01*
X151804008Y-99890568D01*
X151924412Y-99929689D01*
X152028631Y-99963553D01*
X152261903Y-100000500D01*
X152261908Y-100000500D01*
X152498097Y-100000500D01*
X152731368Y-99963553D01*
X152734938Y-99962393D01*
X152955992Y-99890568D01*
X153166433Y-99783343D01*
X153357510Y-99644517D01*
X153524517Y-99477510D01*
X153549682Y-99442872D01*
X153605011Y-99400207D01*
X153674625Y-99394228D01*
X153736420Y-99426833D01*
X153750315Y-99442870D01*
X153775483Y-99477510D01*
X153942490Y-99644517D01*
X154133567Y-99783343D01*
X154137057Y-99785121D01*
X154344003Y-99890566D01*
X154344005Y-99890566D01*
X154344008Y-99890568D01*
X154464412Y-99929689D01*
X154568631Y-99963553D01*
X154801903Y-100000500D01*
X154801908Y-100000500D01*
X155038097Y-100000500D01*
X155271368Y-99963553D01*
X155274938Y-99962393D01*
X155495992Y-99890568D01*
X155706433Y-99783343D01*
X155897510Y-99644517D01*
X156064517Y-99477510D01*
X156089682Y-99442872D01*
X156145011Y-99400207D01*
X156214625Y-99394228D01*
X156276420Y-99426833D01*
X156290315Y-99442870D01*
X156315483Y-99477510D01*
X156482490Y-99644517D01*
X156673567Y-99783343D01*
X156677057Y-99785121D01*
X156884003Y-99890566D01*
X156884005Y-99890566D01*
X156884008Y-99890568D01*
X157004412Y-99929689D01*
X157108631Y-99963553D01*
X157341903Y-100000500D01*
X157341908Y-100000500D01*
X157578097Y-100000500D01*
X157811368Y-99963553D01*
X157814938Y-99962393D01*
X158035992Y-99890568D01*
X158246433Y-99783343D01*
X158437510Y-99644517D01*
X158493446Y-99588581D01*
X158554769Y-99555096D01*
X158624461Y-99560080D01*
X158680394Y-99601952D01*
X158686121Y-99610290D01*
X158717378Y-99660035D01*
X158842464Y-99785121D01*
X158992243Y-99879234D01*
X159159216Y-99937661D01*
X159159221Y-99937662D01*
X159290909Y-99952499D01*
X159290913Y-99952500D01*
X159750000Y-99952500D01*
X159750000Y-98933012D01*
X159807007Y-98965925D01*
X159934174Y-99000000D01*
X160065826Y-99000000D01*
X160192993Y-98965925D01*
X160250000Y-98933012D01*
X160250000Y-99952500D01*
X160709087Y-99952500D01*
X160709090Y-99952499D01*
X160840778Y-99937662D01*
X160840783Y-99937661D01*
X161007756Y-99879234D01*
X161157535Y-99785121D01*
X161282621Y-99660035D01*
X161376734Y-99510256D01*
X161435161Y-99343283D01*
X161435162Y-99343278D01*
X161449999Y-99211590D01*
X161450000Y-99211586D01*
X161450000Y-98750000D01*
X160433012Y-98750000D01*
X160465925Y-98692993D01*
X160500000Y-98565826D01*
X160500000Y-98434174D01*
X160465925Y-98307007D01*
X160433012Y-98250000D01*
X161450000Y-98250000D01*
X161450000Y-97788413D01*
X161449999Y-97788409D01*
X161435162Y-97656721D01*
X161435161Y-97656716D01*
X161376734Y-97489743D01*
X161282621Y-97339964D01*
X161157535Y-97214878D01*
X161007756Y-97120765D01*
X160840783Y-97062338D01*
X160840778Y-97062337D01*
X160709090Y-97047500D01*
X160250000Y-97047500D01*
X160250000Y-98066988D01*
X160192993Y-98034075D01*
X160065826Y-98000000D01*
X159934174Y-98000000D01*
X159807007Y-98034075D01*
X159750000Y-98066988D01*
X159750000Y-97047500D01*
X159290909Y-97047500D01*
X159159221Y-97062337D01*
X159159216Y-97062338D01*
X158992243Y-97120765D01*
X158842464Y-97214878D01*
X158717378Y-97339964D01*
X158686121Y-97389710D01*
X158633786Y-97436001D01*
X158564732Y-97446649D01*
X158500884Y-97418274D01*
X158493446Y-97411419D01*
X158437512Y-97355485D01*
X158437510Y-97355483D01*
X158246433Y-97216657D01*
X158223983Y-97205218D01*
X158035996Y-97109433D01*
X157811368Y-97036446D01*
X157578097Y-96999500D01*
X157578092Y-96999500D01*
X157341908Y-96999500D01*
X157341903Y-96999500D01*
X157108631Y-97036446D01*
X156884003Y-97109433D01*
X156673566Y-97216657D01*
X156602243Y-97268477D01*
X156482490Y-97355483D01*
X156482488Y-97355485D01*
X156482487Y-97355485D01*
X156315484Y-97522488D01*
X156315483Y-97522490D01*
X156293837Y-97552284D01*
X156290318Y-97557127D01*
X156234987Y-97599792D01*
X156165374Y-97605771D01*
X156103579Y-97573165D01*
X156089682Y-97557127D01*
X156064517Y-97522490D01*
X155897510Y-97355483D01*
X155706433Y-97216657D01*
X155683983Y-97205218D01*
X155495996Y-97109433D01*
X155271368Y-97036446D01*
X155038097Y-96999500D01*
X155038092Y-96999500D01*
X154801908Y-96999500D01*
X154801903Y-96999500D01*
X154568631Y-97036446D01*
X154344003Y-97109433D01*
X154133566Y-97216657D01*
X154062243Y-97268477D01*
X153942490Y-97355483D01*
X153942488Y-97355485D01*
X153942487Y-97355485D01*
X153775484Y-97522488D01*
X153775483Y-97522490D01*
X153753837Y-97552284D01*
X153750318Y-97557127D01*
X153694987Y-97599792D01*
X153625374Y-97605771D01*
X153563579Y-97573165D01*
X153549682Y-97557127D01*
X153524517Y-97522490D01*
X153357510Y-97355483D01*
X153166433Y-97216657D01*
X153143983Y-97205218D01*
X152955996Y-97109433D01*
X152731368Y-97036446D01*
X152498097Y-96999500D01*
X152498092Y-96999500D01*
X152261908Y-96999500D01*
X152261903Y-96999500D01*
X152028631Y-97036446D01*
X151804003Y-97109433D01*
X151593566Y-97216657D01*
X151522243Y-97268477D01*
X151402490Y-97355483D01*
X151402488Y-97355485D01*
X151402487Y-97355485D01*
X151235484Y-97522488D01*
X151235483Y-97522490D01*
X151213837Y-97552284D01*
X151210318Y-97557127D01*
X151154987Y-97599792D01*
X151085374Y-97605771D01*
X151023579Y-97573165D01*
X151009682Y-97557127D01*
X150984517Y-97522490D01*
X150817510Y-97355483D01*
X150626433Y-97216657D01*
X150603983Y-97205218D01*
X150415996Y-97109433D01*
X150191368Y-97036446D01*
X149958097Y-96999500D01*
X149958092Y-96999500D01*
X149721908Y-96999500D01*
X149721903Y-96999500D01*
X149488631Y-97036446D01*
X149264003Y-97109433D01*
X149053566Y-97216657D01*
X148982243Y-97268477D01*
X148862490Y-97355483D01*
X148862488Y-97355485D01*
X148862487Y-97355485D01*
X148695484Y-97522488D01*
X148695483Y-97522490D01*
X148673837Y-97552284D01*
X148670318Y-97557127D01*
X148614987Y-97599792D01*
X148545374Y-97605771D01*
X148483579Y-97573165D01*
X148469682Y-97557127D01*
X148444517Y-97522490D01*
X148277510Y-97355483D01*
X148086433Y-97216657D01*
X148063983Y-97205218D01*
X147875996Y-97109433D01*
X147651368Y-97036446D01*
X147418097Y-96999500D01*
X147418092Y-96999500D01*
X147181908Y-96999500D01*
X147181903Y-96999500D01*
X146948631Y-97036446D01*
X146724003Y-97109433D01*
X146513566Y-97216657D01*
X146442243Y-97268477D01*
X146322490Y-97355483D01*
X146322488Y-97355485D01*
X146322487Y-97355485D01*
X146155484Y-97522488D01*
X146155483Y-97522490D01*
X146133837Y-97552284D01*
X146130318Y-97557127D01*
X146074987Y-97599792D01*
X146005374Y-97605771D01*
X145943579Y-97573165D01*
X145929682Y-97557127D01*
X145904517Y-97522490D01*
X145737510Y-97355483D01*
X145546433Y-97216657D01*
X145523983Y-97205218D01*
X145335996Y-97109433D01*
X145111368Y-97036446D01*
X144878097Y-96999500D01*
X144878092Y-96999500D01*
X144641908Y-96999500D01*
X144641903Y-96999500D01*
X144408631Y-97036446D01*
X144184003Y-97109433D01*
X143973566Y-97216657D01*
X143902243Y-97268477D01*
X143782490Y-97355483D01*
X143782488Y-97355485D01*
X143782487Y-97355485D01*
X143615484Y-97522488D01*
X143615483Y-97522490D01*
X143593837Y-97552284D01*
X143590318Y-97557127D01*
X143534987Y-97599792D01*
X143465374Y-97605771D01*
X143403579Y-97573165D01*
X143389682Y-97557127D01*
X143364517Y-97522490D01*
X143197510Y-97355483D01*
X143006433Y-97216657D01*
X142983983Y-97205218D01*
X142795996Y-97109433D01*
X142571368Y-97036446D01*
X142338097Y-96999500D01*
X142338092Y-96999500D01*
X142101908Y-96999500D01*
X142101903Y-96999500D01*
X141868631Y-97036446D01*
X141644003Y-97109433D01*
X141433566Y-97216657D01*
X141362243Y-97268477D01*
X141242490Y-97355483D01*
X141242488Y-97355485D01*
X141242487Y-97355485D01*
X141075485Y-97522487D01*
X141075485Y-97522488D01*
X141075483Y-97522490D01*
X141019521Y-97599515D01*
X140936657Y-97713566D01*
X140829433Y-97924003D01*
X140756446Y-98148631D01*
X140719500Y-98381902D01*
X136154839Y-98381902D01*
X136112287Y-98298390D01*
X136077130Y-98250000D01*
X135991971Y-98132786D01*
X135847213Y-97988028D01*
X135681614Y-97867715D01*
X135675006Y-97864348D01*
X135588917Y-97820483D01*
X135538123Y-97772511D01*
X135521328Y-97704690D01*
X135543865Y-97638555D01*
X135588917Y-97599516D01*
X135681610Y-97552287D01*
X135702770Y-97536913D01*
X135847213Y-97431971D01*
X135847215Y-97431968D01*
X135847219Y-97431966D01*
X135991966Y-97287219D01*
X135991968Y-97287215D01*
X135991971Y-97287213D01*
X136051543Y-97205218D01*
X136112287Y-97121610D01*
X136205220Y-96939219D01*
X136268477Y-96744534D01*
X136300500Y-96542352D01*
X136300500Y-96337648D01*
X136268477Y-96135466D01*
X136205220Y-95940781D01*
X136205218Y-95940778D01*
X136205218Y-95940776D01*
X136171503Y-95874607D01*
X136112287Y-95758390D01*
X136073556Y-95705081D01*
X135991971Y-95592786D01*
X135847213Y-95448028D01*
X135681614Y-95327715D01*
X135675006Y-95324348D01*
X135588917Y-95280483D01*
X135538123Y-95232511D01*
X135521328Y-95164690D01*
X135543865Y-95098555D01*
X135588917Y-95059516D01*
X135681610Y-95012287D01*
X135702770Y-94996913D01*
X135847213Y-94891971D01*
X135847215Y-94891968D01*
X135847219Y-94891966D01*
X135991966Y-94747219D01*
X135991968Y-94747215D01*
X135991971Y-94747213D01*
X136044732Y-94674590D01*
X136112287Y-94581610D01*
X136205220Y-94399219D01*
X136268477Y-94204534D01*
X136300500Y-94002352D01*
X136300500Y-93797648D01*
X136268477Y-93595466D01*
X136205220Y-93400781D01*
X136205218Y-93400778D01*
X136205218Y-93400776D01*
X136171503Y-93334607D01*
X136112287Y-93218390D01*
X136104556Y-93207749D01*
X135991971Y-93052786D01*
X135847213Y-92908028D01*
X135681614Y-92787715D01*
X135675006Y-92784348D01*
X135588917Y-92740483D01*
X135538123Y-92692511D01*
X135521328Y-92624690D01*
X135543865Y-92558555D01*
X135588917Y-92519516D01*
X135681610Y-92472287D01*
X135702770Y-92456913D01*
X135847213Y-92351971D01*
X135847215Y-92351968D01*
X135847219Y-92351966D01*
X135991966Y-92207219D01*
X135991968Y-92207215D01*
X135991971Y-92207213D01*
X136092937Y-92068243D01*
X136112287Y-92041610D01*
X136205220Y-91859219D01*
X136268477Y-91664534D01*
X136300500Y-91462352D01*
X136300500Y-91257648D01*
X136277150Y-91110222D01*
X136268477Y-91055465D01*
X136231205Y-90940756D01*
X136205220Y-90860781D01*
X136205218Y-90860778D01*
X136205218Y-90860776D01*
X136171503Y-90794607D01*
X136112287Y-90678390D01*
X136041288Y-90580667D01*
X135991971Y-90512786D01*
X135847213Y-90368028D01*
X135681614Y-90247715D01*
X135675006Y-90244348D01*
X135588917Y-90200483D01*
X135538123Y-90152511D01*
X135521328Y-90084690D01*
X135543865Y-90018555D01*
X135588917Y-89979516D01*
X135681610Y-89932287D01*
X135783978Y-89857913D01*
X135847213Y-89811971D01*
X135847215Y-89811968D01*
X135847219Y-89811966D01*
X135991966Y-89667219D01*
X135991968Y-89667215D01*
X135991971Y-89667213D01*
X136044732Y-89594590D01*
X136112287Y-89501610D01*
X136205220Y-89319219D01*
X136268477Y-89124534D01*
X136300500Y-88922352D01*
X136300500Y-88717648D01*
X136268477Y-88515466D01*
X136266060Y-88508028D01*
X136226968Y-88387715D01*
X136205220Y-88320781D01*
X136205218Y-88320778D01*
X136205218Y-88320776D01*
X136143424Y-88199500D01*
X136112287Y-88138390D01*
X136104556Y-88127749D01*
X135991971Y-87972786D01*
X135847213Y-87828028D01*
X135681614Y-87707715D01*
X135675006Y-87704348D01*
X135588917Y-87660483D01*
X135538123Y-87612511D01*
X135521328Y-87544690D01*
X135543865Y-87478555D01*
X135588917Y-87439516D01*
X135681610Y-87392287D01*
X135739814Y-87350000D01*
X135847213Y-87271971D01*
X135847215Y-87271968D01*
X135847219Y-87271966D01*
X135991966Y-87127219D01*
X135991968Y-87127215D01*
X135991971Y-87127213D01*
X136044732Y-87054590D01*
X136112287Y-86961610D01*
X136205220Y-86779219D01*
X136268477Y-86584534D01*
X136300500Y-86382352D01*
X136300500Y-86177648D01*
X136268477Y-85975466D01*
X136205220Y-85780781D01*
X136205218Y-85780778D01*
X136205218Y-85780776D01*
X136171503Y-85714607D01*
X136112287Y-85598390D01*
X136104556Y-85587749D01*
X135991971Y-85432786D01*
X135847213Y-85288028D01*
X135681614Y-85167715D01*
X135675006Y-85164348D01*
X135588917Y-85120483D01*
X135538123Y-85072511D01*
X135521328Y-85004690D01*
X135543865Y-84938555D01*
X135588917Y-84899516D01*
X135681610Y-84852287D01*
X135739814Y-84810000D01*
X135847213Y-84731971D01*
X135847215Y-84731968D01*
X135847219Y-84731966D01*
X135991966Y-84587219D01*
X135991968Y-84587215D01*
X135991971Y-84587213D01*
X136044732Y-84514590D01*
X136112287Y-84421610D01*
X136205220Y-84239219D01*
X136268477Y-84044534D01*
X136300500Y-83842352D01*
X136300500Y-83637648D01*
X136284737Y-83538123D01*
X136268477Y-83435465D01*
X136239127Y-83345137D01*
X136205220Y-83240781D01*
X136205218Y-83240778D01*
X136205218Y-83240776D01*
X136171503Y-83174607D01*
X136112287Y-83058390D01*
X136104556Y-83047749D01*
X135991971Y-82892786D01*
X135847213Y-82748028D01*
X135681614Y-82627715D01*
X135675006Y-82624348D01*
X135588917Y-82580483D01*
X135538123Y-82532511D01*
X135521328Y-82464690D01*
X135543865Y-82398555D01*
X135588917Y-82359516D01*
X135681610Y-82312287D01*
X135739814Y-82270000D01*
X135847213Y-82191971D01*
X135847215Y-82191968D01*
X135847219Y-82191966D01*
X135991966Y-82047219D01*
X135991968Y-82047215D01*
X135991971Y-82047213D01*
X136062599Y-81950000D01*
X136112287Y-81881610D01*
X136205220Y-81699219D01*
X136268477Y-81504534D01*
X136300500Y-81302352D01*
X136300500Y-81097648D01*
X136268477Y-80895466D01*
X136205220Y-80700781D01*
X136205218Y-80700778D01*
X136205218Y-80700776D01*
X136147572Y-80587641D01*
X136112287Y-80518390D01*
X136086079Y-80482317D01*
X135991971Y-80352786D01*
X135847213Y-80208028D01*
X135681614Y-80087715D01*
X135675006Y-80084348D01*
X135588917Y-80040483D01*
X135538123Y-79992511D01*
X135521328Y-79924690D01*
X135543865Y-79858555D01*
X135588917Y-79819516D01*
X135681610Y-79772287D01*
X135739814Y-79730000D01*
X135847213Y-79651971D01*
X135847215Y-79651968D01*
X135847219Y-79651966D01*
X135991966Y-79507219D01*
X135991968Y-79507215D01*
X135991971Y-79507213D01*
X136044732Y-79434590D01*
X136112287Y-79341610D01*
X136205220Y-79159219D01*
X136268477Y-78964534D01*
X136300500Y-78762352D01*
X136300500Y-78557648D01*
X136268477Y-78355466D01*
X136264070Y-78341902D01*
X139999500Y-78341902D01*
X139999500Y-78578097D01*
X140036446Y-78811368D01*
X140109433Y-79035996D01*
X140172219Y-79159219D01*
X140216657Y-79246433D01*
X140355483Y-79437510D01*
X140522490Y-79604517D01*
X140557127Y-79629683D01*
X140599792Y-79685013D01*
X140605771Y-79754626D01*
X140573165Y-79816421D01*
X140557130Y-79830315D01*
X140539365Y-79843222D01*
X140522488Y-79855484D01*
X140355485Y-80022487D01*
X140355485Y-80022488D01*
X140355483Y-80022490D01*
X140342409Y-80040485D01*
X140216657Y-80213566D01*
X140109433Y-80424003D01*
X140036446Y-80648631D01*
X139999500Y-80881902D01*
X139999500Y-81118097D01*
X140036446Y-81351368D01*
X140109433Y-81575996D01*
X140172219Y-81699219D01*
X140216657Y-81786433D01*
X140355483Y-81977510D01*
X140522490Y-82144517D01*
X140557127Y-82169683D01*
X140599792Y-82225013D01*
X140605771Y-82294626D01*
X140573165Y-82356421D01*
X140557130Y-82370315D01*
X140539365Y-82383222D01*
X140522488Y-82395484D01*
X140355485Y-82562487D01*
X140355485Y-82562488D01*
X140355483Y-82562490D01*
X140342409Y-82580485D01*
X140216657Y-82753566D01*
X140109433Y-82964003D01*
X140036446Y-83188631D01*
X139999500Y-83421902D01*
X139999500Y-83658097D01*
X140036446Y-83891368D01*
X140109433Y-84115996D01*
X140172219Y-84239219D01*
X140216657Y-84326433D01*
X140355483Y-84517510D01*
X140522490Y-84684517D01*
X140557127Y-84709683D01*
X140599792Y-84765013D01*
X140605771Y-84834626D01*
X140573165Y-84896421D01*
X140557130Y-84910315D01*
X140539365Y-84923222D01*
X140522488Y-84935484D01*
X140355485Y-85102487D01*
X140355485Y-85102488D01*
X140355483Y-85102490D01*
X140342409Y-85120485D01*
X140216657Y-85293566D01*
X140109433Y-85504003D01*
X140036446Y-85728631D01*
X139999500Y-85961902D01*
X139999500Y-86198097D01*
X140036446Y-86431368D01*
X140109433Y-86655996D01*
X140172219Y-86779219D01*
X140216657Y-86866433D01*
X140355483Y-87057510D01*
X140522490Y-87224517D01*
X140557127Y-87249683D01*
X140599792Y-87305013D01*
X140605771Y-87374626D01*
X140573165Y-87436421D01*
X140557130Y-87450315D01*
X140539365Y-87463222D01*
X140522488Y-87475484D01*
X140355485Y-87642487D01*
X140355485Y-87642488D01*
X140355483Y-87642490D01*
X140342409Y-87660485D01*
X140216657Y-87833566D01*
X140109433Y-88044003D01*
X140036446Y-88268631D01*
X139999500Y-88501902D01*
X139999500Y-88738097D01*
X140036446Y-88971368D01*
X140109433Y-89195996D01*
X140172219Y-89319219D01*
X140216657Y-89406433D01*
X140355483Y-89597510D01*
X140522490Y-89764517D01*
X140713567Y-89903343D01*
X140812991Y-89954002D01*
X140924003Y-90010566D01*
X140924005Y-90010566D01*
X140924008Y-90010568D01*
X141026485Y-90043865D01*
X141148631Y-90083553D01*
X141381903Y-90120500D01*
X141381908Y-90120500D01*
X141618097Y-90120500D01*
X141851368Y-90083553D01*
X142075992Y-90010568D01*
X142286433Y-89903343D01*
X142477510Y-89764517D01*
X142644517Y-89597510D01*
X142783343Y-89406433D01*
X142890568Y-89195992D01*
X142963553Y-88971368D01*
X142971316Y-88922352D01*
X143000500Y-88738097D01*
X143000500Y-88501902D01*
X142963553Y-88268631D01*
X142890566Y-88044003D01*
X142783342Y-87833566D01*
X142779323Y-87828034D01*
X142644517Y-87642490D01*
X142477510Y-87475483D01*
X142442872Y-87450317D01*
X142400207Y-87394989D01*
X142394228Y-87325375D01*
X142426833Y-87263580D01*
X142442873Y-87249682D01*
X142477510Y-87224517D01*
X142644517Y-87057510D01*
X142783343Y-86866433D01*
X142890568Y-86655992D01*
X142963553Y-86431368D01*
X142971316Y-86382352D01*
X143000500Y-86198097D01*
X143000500Y-85961902D01*
X142963553Y-85728631D01*
X142890566Y-85504003D01*
X142783342Y-85293566D01*
X142779323Y-85288034D01*
X142644517Y-85102490D01*
X142477510Y-84935483D01*
X142442872Y-84910317D01*
X142400207Y-84854989D01*
X142394228Y-84785375D01*
X142426833Y-84723580D01*
X142442873Y-84709682D01*
X142477510Y-84684517D01*
X142644517Y-84517510D01*
X142783343Y-84326433D01*
X142890568Y-84115992D01*
X142963553Y-83891368D01*
X143000500Y-83658097D01*
X143000500Y-83421902D01*
X142963553Y-83188631D01*
X142890566Y-82964003D01*
X142829090Y-82843350D01*
X142783343Y-82753567D01*
X142644517Y-82562490D01*
X142477510Y-82395483D01*
X142442872Y-82370317D01*
X142400207Y-82314989D01*
X142394228Y-82245375D01*
X142426833Y-82183580D01*
X142442873Y-82169682D01*
X142477510Y-82144517D01*
X142644517Y-81977510D01*
X142783343Y-81786433D01*
X142890568Y-81575992D01*
X142963553Y-81351368D01*
X142971316Y-81302352D01*
X143000500Y-81118097D01*
X143000500Y-80881902D01*
X142963553Y-80648631D01*
X142890566Y-80424003D01*
X142798244Y-80242812D01*
X142783343Y-80213567D01*
X142644517Y-80022490D01*
X142477510Y-79855483D01*
X142442872Y-79830317D01*
X142400207Y-79774989D01*
X142394228Y-79705375D01*
X142426833Y-79643580D01*
X142442873Y-79629682D01*
X142477510Y-79604517D01*
X142644517Y-79437510D01*
X142783343Y-79246433D01*
X142890568Y-79035992D01*
X142963553Y-78811368D01*
X142971316Y-78762352D01*
X143000500Y-78578097D01*
X143000500Y-78341902D01*
X142963553Y-78108631D01*
X142890566Y-77884003D01*
X142783342Y-77673566D01*
X142779323Y-77668034D01*
X142644517Y-77482490D01*
X142583635Y-77421608D01*
X142550151Y-77360286D01*
X142548183Y-77321735D01*
X141629410Y-76402962D01*
X141692993Y-76385925D01*
X141807007Y-76320099D01*
X141900099Y-76227007D01*
X141965925Y-76112993D01*
X141982962Y-76049411D01*
X142885695Y-76952144D01*
X142885696Y-76952144D01*
X142935162Y-76810780D01*
X142949999Y-76679090D01*
X142950000Y-76679086D01*
X142950000Y-75160913D01*
X142949999Y-75160909D01*
X142935162Y-75029219D01*
X142885696Y-74887855D01*
X142885695Y-74887855D01*
X141982962Y-75790588D01*
X141965925Y-75727007D01*
X141900099Y-75612993D01*
X141807007Y-75519901D01*
X141692993Y-75454075D01*
X141629410Y-75437037D01*
X142547934Y-74518512D01*
X142507751Y-74493262D01*
X142340786Y-74434839D01*
X142340778Y-74434837D01*
X142209090Y-74420000D01*
X140790909Y-74420000D01*
X140659221Y-74434837D01*
X140659216Y-74434838D01*
X140492242Y-74493265D01*
X140452064Y-74518511D01*
X140452064Y-74518512D01*
X141370589Y-75437037D01*
X141307007Y-75454075D01*
X141192993Y-75519901D01*
X141099901Y-75612993D01*
X141034075Y-75727007D01*
X141017037Y-75790589D01*
X140114303Y-74887855D01*
X140064837Y-75029218D01*
X140050000Y-75160909D01*
X140050000Y-76679090D01*
X140064837Y-76810775D01*
X140064838Y-76810780D01*
X140114303Y-76952143D01*
X141017037Y-76049410D01*
X141034075Y-76112993D01*
X141099901Y-76227007D01*
X141192993Y-76320099D01*
X141307007Y-76385925D01*
X141370589Y-76402962D01*
X140451560Y-77321990D01*
X140439846Y-77388867D01*
X140416364Y-77421608D01*
X140355483Y-77482490D01*
X140216657Y-77673566D01*
X140109433Y-77884003D01*
X140036446Y-78108631D01*
X139999500Y-78341902D01*
X136264070Y-78341902D01*
X136205220Y-78160781D01*
X136205218Y-78160778D01*
X136205218Y-78160776D01*
X136171503Y-78094607D01*
X136112287Y-77978390D01*
X136104556Y-77967749D01*
X135991971Y-77812786D01*
X135847213Y-77668028D01*
X135681614Y-77547715D01*
X135675006Y-77544348D01*
X135588917Y-77500483D01*
X135538123Y-77452511D01*
X135521328Y-77384690D01*
X135543865Y-77318555D01*
X135588917Y-77279516D01*
X135681610Y-77232287D01*
X135751356Y-77181614D01*
X135847213Y-77111971D01*
X135847215Y-77111968D01*
X135847219Y-77111966D01*
X135991966Y-76967219D01*
X135991968Y-76967215D01*
X135991971Y-76967213D01*
X136044732Y-76894590D01*
X136112287Y-76801610D01*
X136205220Y-76619219D01*
X136268477Y-76424534D01*
X136300500Y-76222352D01*
X136300500Y-76017648D01*
X136283621Y-75911080D01*
X136268477Y-75815465D01*
X136205218Y-75620776D01*
X136147769Y-75508028D01*
X136112287Y-75438390D01*
X136075470Y-75387715D01*
X135991971Y-75272786D01*
X135847213Y-75128028D01*
X135681614Y-75007715D01*
X135675006Y-75004348D01*
X135588917Y-74960483D01*
X135538123Y-74912511D01*
X135521328Y-74844690D01*
X135543865Y-74778555D01*
X135588917Y-74739516D01*
X135681610Y-74692287D01*
X135702770Y-74676913D01*
X135847213Y-74571971D01*
X135847215Y-74571968D01*
X135847219Y-74571966D01*
X135991966Y-74427219D01*
X135991968Y-74427215D01*
X135991971Y-74427213D01*
X136044732Y-74354590D01*
X136112287Y-74261610D01*
X136205220Y-74079219D01*
X136268477Y-73884534D01*
X136300500Y-73682352D01*
X136300500Y-73477648D01*
X136272030Y-73297896D01*
X136268477Y-73275465D01*
X136205218Y-73080776D01*
X136167816Y-73007372D01*
X136112287Y-72898390D01*
X136104556Y-72887749D01*
X135991971Y-72732786D01*
X135847213Y-72588028D01*
X135681611Y-72467713D01*
X135588369Y-72420203D01*
X135537574Y-72372229D01*
X135520779Y-72304407D01*
X135543317Y-72238273D01*
X135588371Y-72199234D01*
X135681347Y-72151861D01*
X135846894Y-72031582D01*
X135846895Y-72031582D01*
X135991582Y-71886895D01*
X135991582Y-71886894D01*
X136111859Y-71721349D01*
X136204755Y-71539029D01*
X136267990Y-71344413D01*
X136276609Y-71290000D01*
X135433012Y-71290000D01*
X135465925Y-71232993D01*
X135500000Y-71105826D01*
X135500000Y-70974174D01*
X135465925Y-70847007D01*
X135433012Y-70790000D01*
X136276609Y-70790000D01*
X136267990Y-70735586D01*
X136204755Y-70540970D01*
X136111859Y-70358650D01*
X135991582Y-70193105D01*
X135991582Y-70193104D01*
X135846895Y-70048417D01*
X135681349Y-69928140D01*
X135588370Y-69880765D01*
X135537574Y-69832790D01*
X135520779Y-69764969D01*
X135543316Y-69698835D01*
X135588370Y-69659795D01*
X135592788Y-69657544D01*
X135681610Y-69612287D01*
X135702770Y-69596913D01*
X135847213Y-69491971D01*
X135847215Y-69491968D01*
X135847219Y-69491966D01*
X135991966Y-69347219D01*
X135991968Y-69347215D01*
X135991971Y-69347213D01*
X136044732Y-69274590D01*
X136112287Y-69181610D01*
X136205220Y-68999219D01*
X136268477Y-68804534D01*
X136300500Y-68602352D01*
X136300500Y-68397648D01*
X136268477Y-68195466D01*
X136205220Y-68000781D01*
X136205218Y-68000778D01*
X136205218Y-68000776D01*
X136171503Y-67934607D01*
X136112287Y-67818390D01*
X136104556Y-67807749D01*
X135991971Y-67652786D01*
X135847213Y-67508028D01*
X135681613Y-67387715D01*
X135681612Y-67387714D01*
X135681610Y-67387713D01*
X135624653Y-67358691D01*
X135499223Y-67294781D01*
X135304534Y-67231522D01*
X135129995Y-67203878D01*
X135102352Y-67199500D01*
X134897648Y-67199500D01*
X134873329Y-67203351D01*
X134695465Y-67231522D01*
X134500776Y-67294781D01*
X134318386Y-67387715D01*
X134152786Y-67508028D01*
X134008028Y-67652786D01*
X133887715Y-67818385D01*
X133880883Y-67831795D01*
X133832909Y-67882591D01*
X133770398Y-67899500D01*
X122161097Y-67899500D01*
X122094058Y-67879815D01*
X122073416Y-67863181D01*
X108842854Y-54632619D01*
X108809369Y-54571296D01*
X108814353Y-54501604D01*
X108856225Y-54445671D01*
X108921689Y-54421254D01*
X108943138Y-54421580D01*
X109050014Y-54432499D01*
X109050027Y-54432500D01*
X110000000Y-54432500D01*
X110000000Y-53132501D01*
X110060402Y-53157521D01*
X110185981Y-53182500D01*
X110314019Y-53182500D01*
X110439598Y-53157521D01*
X110500000Y-53132501D01*
X110500000Y-54432500D01*
X111449973Y-54432500D01*
X111449985Y-54432499D01*
X111552689Y-54422006D01*
X111552696Y-54422005D01*
X111719118Y-54366858D01*
X111719123Y-54366856D01*
X111868344Y-54274815D01*
X111992315Y-54150844D01*
X112084356Y-54001623D01*
X112084358Y-54001618D01*
X112139505Y-53835196D01*
X112139506Y-53835189D01*
X112149999Y-53732485D01*
X112150000Y-53732472D01*
X112150000Y-52782500D01*
X110850001Y-52782500D01*
X110875021Y-52722098D01*
X110900000Y-52596519D01*
X110900000Y-52468481D01*
X110875021Y-52342902D01*
X110850001Y-52282500D01*
X112150000Y-52282500D01*
X112150000Y-51907941D01*
X119849500Y-51907941D01*
X119849500Y-52157058D01*
X119849501Y-52157075D01*
X119882017Y-52404061D01*
X119946498Y-52644707D01*
X120041830Y-52874861D01*
X120041837Y-52874876D01*
X120166400Y-53090626D01*
X120318060Y-53288274D01*
X120318066Y-53288281D01*
X120494218Y-53464433D01*
X120494225Y-53464439D01*
X120691873Y-53616099D01*
X120907623Y-53740662D01*
X120907638Y-53740669D01*
X120958914Y-53761908D01*
X121137793Y-53836002D01*
X121378435Y-53900482D01*
X121625435Y-53933000D01*
X121625442Y-53933000D01*
X121874558Y-53933000D01*
X121874565Y-53933000D01*
X122121565Y-53900482D01*
X122362207Y-53836002D01*
X122592373Y-53740664D01*
X122808127Y-53616099D01*
X123005776Y-53464438D01*
X123181938Y-53288276D01*
X123333599Y-53090627D01*
X123458164Y-52874873D01*
X123553502Y-52644707D01*
X123617982Y-52404065D01*
X123650500Y-52157065D01*
X123650500Y-51907941D01*
X124849500Y-51907941D01*
X124849500Y-52157058D01*
X124849501Y-52157075D01*
X124882017Y-52404061D01*
X124946498Y-52644707D01*
X125041830Y-52874861D01*
X125041837Y-52874876D01*
X125166400Y-53090626D01*
X125318060Y-53288274D01*
X125318066Y-53288281D01*
X125494218Y-53464433D01*
X125494225Y-53464439D01*
X125691873Y-53616099D01*
X125907623Y-53740662D01*
X125907638Y-53740669D01*
X125958914Y-53761908D01*
X126137793Y-53836002D01*
X126378435Y-53900482D01*
X126625435Y-53933000D01*
X126625442Y-53933000D01*
X126874558Y-53933000D01*
X126874565Y-53933000D01*
X127121565Y-53900482D01*
X127362207Y-53836002D01*
X127592373Y-53740664D01*
X127808127Y-53616099D01*
X128005776Y-53464438D01*
X128181938Y-53288276D01*
X128333599Y-53090627D01*
X128458164Y-52874873D01*
X128553502Y-52644707D01*
X128617982Y-52404065D01*
X128650500Y-52157065D01*
X128650500Y-51907935D01*
X128617982Y-51660935D01*
X128553502Y-51420293D01*
X128494031Y-51276718D01*
X128458169Y-51190138D01*
X128458162Y-51190123D01*
X128333602Y-50974377D01*
X128333599Y-50974373D01*
X128224747Y-50832514D01*
X129850000Y-50832514D01*
X129850000Y-51782500D01*
X131149999Y-51782500D01*
X131124979Y-51842902D01*
X131100000Y-51968481D01*
X131100000Y-52096519D01*
X131124979Y-52222098D01*
X131149999Y-52282500D01*
X129850000Y-52282500D01*
X129850000Y-53232485D01*
X129860493Y-53335189D01*
X129860494Y-53335196D01*
X129915641Y-53501618D01*
X129915643Y-53501623D01*
X130007684Y-53650844D01*
X130131655Y-53774815D01*
X130280876Y-53866856D01*
X130280881Y-53866858D01*
X130447303Y-53922005D01*
X130447310Y-53922006D01*
X130550014Y-53932499D01*
X130550027Y-53932500D01*
X131500000Y-53932500D01*
X131500000Y-52632501D01*
X131560402Y-52657521D01*
X131685981Y-52682500D01*
X131814019Y-52682500D01*
X131939598Y-52657521D01*
X132000000Y-52632501D01*
X132000000Y-53932500D01*
X132949973Y-53932500D01*
X132949985Y-53932499D01*
X133052689Y-53922006D01*
X133052696Y-53922005D01*
X133219118Y-53866858D01*
X133219123Y-53866856D01*
X133368344Y-53774815D01*
X133492315Y-53650844D01*
X133584356Y-53501623D01*
X133584358Y-53501618D01*
X133639505Y-53335196D01*
X133639506Y-53335189D01*
X133649999Y-53232485D01*
X133650000Y-53232472D01*
X133650000Y-52282500D01*
X132350001Y-52282500D01*
X132375021Y-52222098D01*
X132400000Y-52096519D01*
X132400000Y-51968481D01*
X132375021Y-51842902D01*
X132350001Y-51782500D01*
X133650000Y-51782500D01*
X133650000Y-51221902D01*
X139499500Y-51221902D01*
X139499500Y-51458097D01*
X139536446Y-51691368D01*
X139609433Y-51915996D01*
X139636176Y-51968481D01*
X139716657Y-52126433D01*
X139855483Y-52317510D01*
X140022490Y-52484517D01*
X140057127Y-52509683D01*
X140099792Y-52565013D01*
X140105771Y-52634626D01*
X140073165Y-52696421D01*
X140057130Y-52710315D01*
X140040913Y-52722098D01*
X140022488Y-52735484D01*
X139855485Y-52902487D01*
X139855485Y-52902488D01*
X139855483Y-52902490D01*
X139795862Y-52984550D01*
X139716657Y-53093566D01*
X139609433Y-53304003D01*
X139536446Y-53528631D01*
X139499500Y-53761902D01*
X139499500Y-53998097D01*
X139536446Y-54231368D01*
X139609433Y-54455996D01*
X139632672Y-54501604D01*
X139716657Y-54666433D01*
X139855483Y-54857510D01*
X140022490Y-55024517D01*
X140057127Y-55049683D01*
X140099792Y-55105013D01*
X140105771Y-55174626D01*
X140073165Y-55236421D01*
X140057130Y-55250315D01*
X140039365Y-55263222D01*
X140022488Y-55275484D01*
X139855485Y-55442487D01*
X139855485Y-55442488D01*
X139855483Y-55442490D01*
X139795862Y-55524550D01*
X139716657Y-55633566D01*
X139609433Y-55844003D01*
X139536446Y-56068631D01*
X139499500Y-56301902D01*
X139499500Y-56538097D01*
X139536446Y-56771368D01*
X139609433Y-56995996D01*
X139716657Y-57206433D01*
X139855483Y-57397510D01*
X140022490Y-57564517D01*
X140057127Y-57589683D01*
X140099792Y-57645013D01*
X140105771Y-57714626D01*
X140073165Y-57776421D01*
X140057130Y-57790315D01*
X140039365Y-57803222D01*
X140022488Y-57815484D01*
X139855485Y-57982487D01*
X139855485Y-57982488D01*
X139855483Y-57982490D01*
X139795862Y-58064550D01*
X139716657Y-58173566D01*
X139609433Y-58384003D01*
X139536446Y-58608631D01*
X139499500Y-58841902D01*
X139499500Y-59078097D01*
X139536446Y-59311368D01*
X139609433Y-59535996D01*
X139716657Y-59746433D01*
X139855483Y-59937510D01*
X139855485Y-59937512D01*
X139910848Y-59992875D01*
X139944333Y-60054198D01*
X139939349Y-60123890D01*
X139897477Y-60179823D01*
X139889140Y-60185549D01*
X139842467Y-60214876D01*
X139842465Y-60214877D01*
X139717378Y-60339964D01*
X139623265Y-60489743D01*
X139564838Y-60656716D01*
X139564837Y-60656721D01*
X139550000Y-60788409D01*
X139550000Y-61250000D01*
X140566988Y-61250000D01*
X140534075Y-61307007D01*
X140500000Y-61434174D01*
X140500000Y-61565826D01*
X140534075Y-61692993D01*
X140566988Y-61750000D01*
X139550000Y-61750000D01*
X139550000Y-62211590D01*
X139564837Y-62343278D01*
X139564838Y-62343283D01*
X139623265Y-62510256D01*
X139717378Y-62660035D01*
X139842464Y-62785121D01*
X139889139Y-62814449D01*
X139935430Y-62866783D01*
X139946079Y-62935837D01*
X139917704Y-62999685D01*
X139910849Y-63007123D01*
X139855486Y-63062486D01*
X139855485Y-63062488D01*
X139855483Y-63062490D01*
X139795862Y-63144550D01*
X139716657Y-63253566D01*
X139609433Y-63464003D01*
X139536446Y-63688631D01*
X139499500Y-63921902D01*
X139499500Y-64158097D01*
X139536446Y-64391368D01*
X139609433Y-64615996D01*
X139716657Y-64826433D01*
X139855483Y-65017510D01*
X140022490Y-65184517D01*
X140213567Y-65323343D01*
X140312991Y-65374002D01*
X140424003Y-65430566D01*
X140424005Y-65430566D01*
X140424008Y-65430568D01*
X140544412Y-65469689D01*
X140648631Y-65503553D01*
X140881903Y-65540500D01*
X140881908Y-65540500D01*
X141118097Y-65540500D01*
X141351368Y-65503553D01*
X141575992Y-65430568D01*
X141786433Y-65323343D01*
X141977510Y-65184517D01*
X142144517Y-65017510D01*
X142283343Y-64826433D01*
X142390568Y-64615992D01*
X142463553Y-64391368D01*
X142500500Y-64158097D01*
X142500500Y-63921902D01*
X142463553Y-63688631D01*
X142404658Y-63507372D01*
X142390568Y-63464008D01*
X142390566Y-63464005D01*
X142390566Y-63464003D01*
X142283342Y-63253566D01*
X142144517Y-63062490D01*
X142089150Y-63007123D01*
X142055666Y-62945801D01*
X142060650Y-62876109D01*
X142102522Y-62820176D01*
X142110861Y-62814448D01*
X142157536Y-62785120D01*
X142282621Y-62660035D01*
X142376734Y-62510256D01*
X142435161Y-62343283D01*
X142435162Y-62343278D01*
X142449999Y-62211590D01*
X142450000Y-62211586D01*
X142450000Y-61750000D01*
X141433012Y-61750000D01*
X141465925Y-61692993D01*
X141500000Y-61565826D01*
X141500000Y-61434174D01*
X141465925Y-61307007D01*
X141433012Y-61250000D01*
X142450000Y-61250000D01*
X142450000Y-60788413D01*
X142449999Y-60788409D01*
X142435162Y-60656721D01*
X142435161Y-60656716D01*
X142376734Y-60489743D01*
X142282621Y-60339964D01*
X142157535Y-60214878D01*
X142110860Y-60185550D01*
X142064569Y-60133215D01*
X142053921Y-60064161D01*
X142082296Y-60000313D01*
X142089140Y-59992886D01*
X142144517Y-59937510D01*
X142283343Y-59746433D01*
X142390568Y-59535992D01*
X142463553Y-59311368D01*
X142500500Y-59078097D01*
X142500500Y-58841902D01*
X142463553Y-58608631D01*
X142390566Y-58384003D01*
X142283342Y-58173566D01*
X142144517Y-57982490D01*
X141977510Y-57815483D01*
X141942872Y-57790317D01*
X141900207Y-57734989D01*
X141894228Y-57665375D01*
X141926833Y-57603580D01*
X141942873Y-57589682D01*
X141977510Y-57564517D01*
X142144517Y-57397510D01*
X142283343Y-57206433D01*
X142390568Y-56995992D01*
X142463553Y-56771368D01*
X142500500Y-56538097D01*
X142500500Y-56301902D01*
X142463553Y-56068631D01*
X142390566Y-55844003D01*
X142283342Y-55633566D01*
X142144517Y-55442490D01*
X141977510Y-55275483D01*
X141942872Y-55250317D01*
X141900207Y-55194989D01*
X141894228Y-55125375D01*
X141926833Y-55063580D01*
X141942873Y-55049682D01*
X141977510Y-55024517D01*
X142144517Y-54857510D01*
X142283343Y-54666433D01*
X142390568Y-54455992D01*
X142463553Y-54231368D01*
X142476307Y-54150844D01*
X142500500Y-53998097D01*
X142500500Y-53761902D01*
X142463553Y-53528631D01*
X142413594Y-53374876D01*
X142390568Y-53304008D01*
X142390566Y-53304005D01*
X142390566Y-53304003D01*
X142283342Y-53093566D01*
X142242526Y-53037388D01*
X142144517Y-52902490D01*
X141977510Y-52735483D01*
X141942872Y-52710317D01*
X141900207Y-52654989D01*
X141894228Y-52585375D01*
X141926833Y-52523580D01*
X141942873Y-52509682D01*
X141977510Y-52484517D01*
X142144517Y-52317510D01*
X142283343Y-52126433D01*
X142390568Y-51915992D01*
X142463553Y-51691368D01*
X142475150Y-51618149D01*
X142500500Y-51458097D01*
X142500500Y-51221902D01*
X142463553Y-50988631D01*
X142394700Y-50776725D01*
X142390568Y-50764008D01*
X142390566Y-50764005D01*
X142390566Y-50764003D01*
X142323307Y-50632001D01*
X142283343Y-50553567D01*
X142144517Y-50362490D01*
X141977510Y-50195483D01*
X141786433Y-50056657D01*
X141575996Y-49949433D01*
X141351368Y-49876446D01*
X141118097Y-49839500D01*
X141118092Y-49839500D01*
X140881908Y-49839500D01*
X140881903Y-49839500D01*
X140648631Y-49876446D01*
X140424003Y-49949433D01*
X140213566Y-50056657D01*
X140109867Y-50132000D01*
X140022490Y-50195483D01*
X140022488Y-50195485D01*
X140022487Y-50195485D01*
X139855485Y-50362487D01*
X139855485Y-50362488D01*
X139855483Y-50362490D01*
X139817946Y-50414155D01*
X139716657Y-50553566D01*
X139609433Y-50764003D01*
X139536446Y-50988631D01*
X139499500Y-51221902D01*
X133650000Y-51221902D01*
X133650000Y-50832527D01*
X133649999Y-50832514D01*
X133639506Y-50729810D01*
X133639505Y-50729803D01*
X133584358Y-50563381D01*
X133584356Y-50563376D01*
X133492315Y-50414155D01*
X133368344Y-50290184D01*
X133219123Y-50198143D01*
X133219118Y-50198141D01*
X133052696Y-50142994D01*
X133052689Y-50142993D01*
X132949985Y-50132500D01*
X132000000Y-50132500D01*
X132000000Y-51432498D01*
X131939598Y-51407479D01*
X131814019Y-51382500D01*
X131685981Y-51382500D01*
X131560402Y-51407479D01*
X131500000Y-51432498D01*
X131500000Y-50132500D01*
X130550014Y-50132500D01*
X130447310Y-50142993D01*
X130447303Y-50142994D01*
X130280881Y-50198141D01*
X130280876Y-50198143D01*
X130131655Y-50290184D01*
X130007684Y-50414155D01*
X129915643Y-50563376D01*
X129915641Y-50563381D01*
X129860494Y-50729803D01*
X129860493Y-50729810D01*
X129850000Y-50832514D01*
X128224747Y-50832514D01*
X128218467Y-50824330D01*
X128181939Y-50776725D01*
X128181933Y-50776718D01*
X128005781Y-50600566D01*
X128005774Y-50600560D01*
X127808126Y-50448900D01*
X127592376Y-50324337D01*
X127592361Y-50324330D01*
X127362207Y-50228998D01*
X127121561Y-50164517D01*
X126874575Y-50132001D01*
X126874570Y-50132000D01*
X126874565Y-50132000D01*
X126625435Y-50132000D01*
X126625429Y-50132000D01*
X126625424Y-50132001D01*
X126378438Y-50164517D01*
X126137792Y-50228998D01*
X125907638Y-50324330D01*
X125907623Y-50324337D01*
X125691873Y-50448900D01*
X125494225Y-50600560D01*
X125494218Y-50600566D01*
X125318066Y-50776718D01*
X125318060Y-50776725D01*
X125166400Y-50974373D01*
X125041837Y-51190123D01*
X125041830Y-51190138D01*
X124946498Y-51420292D01*
X124882017Y-51660938D01*
X124849501Y-51907924D01*
X124849500Y-51907941D01*
X123650500Y-51907941D01*
X123650500Y-51907935D01*
X123617982Y-51660935D01*
X123553502Y-51420293D01*
X123494031Y-51276718D01*
X123458169Y-51190138D01*
X123458162Y-51190123D01*
X123333599Y-50974373D01*
X123181939Y-50776725D01*
X123181933Y-50776718D01*
X123005781Y-50600566D01*
X123005774Y-50600560D01*
X122808126Y-50448900D01*
X122592376Y-50324337D01*
X122592361Y-50324330D01*
X122362207Y-50228998D01*
X122121561Y-50164517D01*
X121874575Y-50132001D01*
X121874570Y-50132000D01*
X121874565Y-50132000D01*
X121625435Y-50132000D01*
X121625429Y-50132000D01*
X121625424Y-50132001D01*
X121378438Y-50164517D01*
X121137792Y-50228998D01*
X120907638Y-50324330D01*
X120907623Y-50324337D01*
X120691873Y-50448900D01*
X120494225Y-50600560D01*
X120494218Y-50600566D01*
X120318066Y-50776718D01*
X120318060Y-50776725D01*
X120166400Y-50974373D01*
X120041837Y-51190123D01*
X120041830Y-51190138D01*
X119946498Y-51420292D01*
X119882017Y-51660938D01*
X119849501Y-51907924D01*
X119849500Y-51907941D01*
X112150000Y-51907941D01*
X112150000Y-51332527D01*
X112149999Y-51332514D01*
X112139506Y-51229810D01*
X112139505Y-51229803D01*
X112084358Y-51063381D01*
X112084356Y-51063376D01*
X111992315Y-50914155D01*
X111868344Y-50790184D01*
X111719123Y-50698143D01*
X111719118Y-50698141D01*
X111552696Y-50642994D01*
X111552689Y-50642993D01*
X111449985Y-50632500D01*
X110500000Y-50632500D01*
X110500000Y-51932498D01*
X110439598Y-51907479D01*
X110314019Y-51882500D01*
X110185981Y-51882500D01*
X110060402Y-51907479D01*
X110000000Y-51932498D01*
X110000000Y-50632500D01*
X109050014Y-50632500D01*
X108947310Y-50642993D01*
X108947303Y-50642994D01*
X108780881Y-50698141D01*
X108780876Y-50698143D01*
X108631655Y-50790184D01*
X108507684Y-50914155D01*
X108415643Y-51063376D01*
X108415641Y-51063381D01*
X108360494Y-51229803D01*
X108360493Y-51229810D01*
X108350000Y-51332514D01*
X108350000Y-52282500D01*
X109649999Y-52282500D01*
X109624979Y-52342902D01*
X109600000Y-52468481D01*
X109600000Y-52596519D01*
X109624979Y-52722098D01*
X109649999Y-52782500D01*
X108350000Y-52782500D01*
X108350000Y-53732487D01*
X108360919Y-53839362D01*
X108348150Y-53908055D01*
X108300269Y-53958939D01*
X108232479Y-53975860D01*
X108166303Y-53953444D01*
X108149880Y-53939645D01*
X107160793Y-52950558D01*
X107127308Y-52889235D01*
X107125535Y-52846692D01*
X107133986Y-52782500D01*
X107150500Y-52657065D01*
X107150500Y-52407935D01*
X107117982Y-52160935D01*
X107053502Y-51920293D01*
X106996426Y-51782500D01*
X106958169Y-51690138D01*
X106958162Y-51690123D01*
X106833602Y-51474377D01*
X106821106Y-51458092D01*
X106681938Y-51276724D01*
X106681933Y-51276718D01*
X106505781Y-51100566D01*
X106505774Y-51100560D01*
X106308126Y-50948900D01*
X106092376Y-50824337D01*
X106092361Y-50824330D01*
X105862207Y-50728998D01*
X105621561Y-50664517D01*
X105374575Y-50632001D01*
X105374570Y-50632000D01*
X105374565Y-50632000D01*
X105125435Y-50632000D01*
X105125429Y-50632000D01*
X105125424Y-50632001D01*
X104878438Y-50664517D01*
X104637792Y-50728998D01*
X104407638Y-50824330D01*
X104407623Y-50824337D01*
X104191873Y-50948900D01*
X103994225Y-51100560D01*
X103994218Y-51100566D01*
X103818066Y-51276718D01*
X103818060Y-51276725D01*
X103666400Y-51474373D01*
X103541837Y-51690123D01*
X103541830Y-51690138D01*
X103446498Y-51920292D01*
X103382017Y-52160938D01*
X103349501Y-52407924D01*
X103349500Y-52407941D01*
X100500500Y-52407941D01*
X100500500Y-40624500D01*
X100520185Y-40557461D01*
X100572989Y-40511706D01*
X100624500Y-40500500D01*
X102903903Y-40500500D01*
X102970942Y-40520185D01*
G37*
%TD.AperFunction*%
%TD*%
M02*
