%TF.GenerationSoftware,KiCad,Pcbnew,9.0.7*%
%TF.CreationDate,2026-03-12T15:39:33-06:00*%
%TF.ProjectId,Final_Nano_Every_Shield,46696e61-6c5f-44e6-916e-6f5f45766572,rev?*%
%TF.SameCoordinates,Original*%
%TF.FileFunction,Legend,Top*%
%TF.FilePolarity,Positive*%
%FSLAX46Y46*%
G04 Gerber Fmt 4.6, Leading zero omitted, Abs format (unit mm)*
G04 Created by KiCad (PCBNEW 9.0.7) date 2026-03-12 15:39:33*
%MOMM*%
%LPD*%
G01*
G04 APERTURE LIST*
%ADD10C,0.100000*%
%ADD11C,0.150000*%
%ADD12C,0.120000*%
G04 APERTURE END LIST*
D10*
X102500000Y-57500000D02*
X111000000Y-57500000D01*
X111000000Y-96000000D01*
X102500000Y-96000000D01*
X102500000Y-57500000D01*
X102500000Y-96000000D02*
X111000000Y-96000000D01*
X111000000Y-114500000D01*
X102500000Y-114500000D01*
X102500000Y-96000000D01*
D11*
X106002438Y-67738095D02*
X105954819Y-67833333D01*
X105954819Y-67833333D02*
X105954819Y-67976190D01*
X105954819Y-67976190D02*
X106002438Y-68119047D01*
X106002438Y-68119047D02*
X106097676Y-68214285D01*
X106097676Y-68214285D02*
X106192914Y-68261904D01*
X106192914Y-68261904D02*
X106383390Y-68309523D01*
X106383390Y-68309523D02*
X106526247Y-68309523D01*
X106526247Y-68309523D02*
X106716723Y-68261904D01*
X106716723Y-68261904D02*
X106811961Y-68214285D01*
X106811961Y-68214285D02*
X106907200Y-68119047D01*
X106907200Y-68119047D02*
X106954819Y-67976190D01*
X106954819Y-67976190D02*
X106954819Y-67880952D01*
X106954819Y-67880952D02*
X106907200Y-67738095D01*
X106907200Y-67738095D02*
X106859580Y-67690476D01*
X106859580Y-67690476D02*
X106526247Y-67690476D01*
X106526247Y-67690476D02*
X106526247Y-67880952D01*
D10*
X167872419Y-60005639D02*
X167872419Y-59815163D01*
X167872419Y-59815163D02*
X167920038Y-59719925D01*
X167920038Y-59719925D02*
X168015276Y-59624687D01*
X168015276Y-59624687D02*
X168205752Y-59577068D01*
X168205752Y-59577068D02*
X168539085Y-59577068D01*
X168539085Y-59577068D02*
X168729561Y-59624687D01*
X168729561Y-59624687D02*
X168824800Y-59719925D01*
X168824800Y-59719925D02*
X168872419Y-59815163D01*
X168872419Y-59815163D02*
X168872419Y-60005639D01*
X168872419Y-60005639D02*
X168824800Y-60100877D01*
X168824800Y-60100877D02*
X168729561Y-60196115D01*
X168729561Y-60196115D02*
X168539085Y-60243734D01*
X168539085Y-60243734D02*
X168205752Y-60243734D01*
X168205752Y-60243734D02*
X168015276Y-60196115D01*
X168015276Y-60196115D02*
X167920038Y-60100877D01*
X167920038Y-60100877D02*
X167872419Y-60005639D01*
X168205752Y-59148496D02*
X169205752Y-59148496D01*
X168253371Y-59148496D02*
X168205752Y-59053258D01*
X168205752Y-59053258D02*
X168205752Y-58862782D01*
X168205752Y-58862782D02*
X168253371Y-58767544D01*
X168253371Y-58767544D02*
X168300990Y-58719925D01*
X168300990Y-58719925D02*
X168396228Y-58672306D01*
X168396228Y-58672306D02*
X168681942Y-58672306D01*
X168681942Y-58672306D02*
X168777180Y-58719925D01*
X168777180Y-58719925D02*
X168824800Y-58767544D01*
X168824800Y-58767544D02*
X168872419Y-58862782D01*
X168872419Y-58862782D02*
X168872419Y-59053258D01*
X168872419Y-59053258D02*
X168824800Y-59148496D01*
X168824800Y-57862782D02*
X168872419Y-57958020D01*
X168872419Y-57958020D02*
X168872419Y-58148496D01*
X168872419Y-58148496D02*
X168824800Y-58243734D01*
X168824800Y-58243734D02*
X168729561Y-58291353D01*
X168729561Y-58291353D02*
X168348609Y-58291353D01*
X168348609Y-58291353D02*
X168253371Y-58243734D01*
X168253371Y-58243734D02*
X168205752Y-58148496D01*
X168205752Y-58148496D02*
X168205752Y-57958020D01*
X168205752Y-57958020D02*
X168253371Y-57862782D01*
X168253371Y-57862782D02*
X168348609Y-57815163D01*
X168348609Y-57815163D02*
X168443847Y-57815163D01*
X168443847Y-57815163D02*
X168539085Y-58291353D01*
X168205752Y-57386591D02*
X168872419Y-57386591D01*
X168300990Y-57386591D02*
X168253371Y-57338972D01*
X168253371Y-57338972D02*
X168205752Y-57243734D01*
X168205752Y-57243734D02*
X168205752Y-57100877D01*
X168205752Y-57100877D02*
X168253371Y-57005639D01*
X168253371Y-57005639D02*
X168348609Y-56958020D01*
X168348609Y-56958020D02*
X168872419Y-56958020D01*
X168872419Y-56005639D02*
X168872419Y-56481829D01*
X168872419Y-56481829D02*
X167872419Y-56481829D01*
X168872419Y-55529448D02*
X168824800Y-55624686D01*
X168824800Y-55624686D02*
X168777180Y-55672305D01*
X168777180Y-55672305D02*
X168681942Y-55719924D01*
X168681942Y-55719924D02*
X168396228Y-55719924D01*
X168396228Y-55719924D02*
X168300990Y-55672305D01*
X168300990Y-55672305D02*
X168253371Y-55624686D01*
X168253371Y-55624686D02*
X168205752Y-55529448D01*
X168205752Y-55529448D02*
X168205752Y-55386591D01*
X168205752Y-55386591D02*
X168253371Y-55291353D01*
X168253371Y-55291353D02*
X168300990Y-55243734D01*
X168300990Y-55243734D02*
X168396228Y-55196115D01*
X168396228Y-55196115D02*
X168681942Y-55196115D01*
X168681942Y-55196115D02*
X168777180Y-55243734D01*
X168777180Y-55243734D02*
X168824800Y-55291353D01*
X168824800Y-55291353D02*
X168872419Y-55386591D01*
X168872419Y-55386591D02*
X168872419Y-55529448D01*
X168205752Y-54338972D02*
X169015276Y-54338972D01*
X169015276Y-54338972D02*
X169110514Y-54386591D01*
X169110514Y-54386591D02*
X169158133Y-54434210D01*
X169158133Y-54434210D02*
X169205752Y-54529448D01*
X169205752Y-54529448D02*
X169205752Y-54672305D01*
X169205752Y-54672305D02*
X169158133Y-54767543D01*
X168824800Y-54338972D02*
X168872419Y-54434210D01*
X168872419Y-54434210D02*
X168872419Y-54624686D01*
X168872419Y-54624686D02*
X168824800Y-54719924D01*
X168824800Y-54719924D02*
X168777180Y-54767543D01*
X168777180Y-54767543D02*
X168681942Y-54815162D01*
X168681942Y-54815162D02*
X168396228Y-54815162D01*
X168396228Y-54815162D02*
X168300990Y-54767543D01*
X168300990Y-54767543D02*
X168253371Y-54719924D01*
X168253371Y-54719924D02*
X168205752Y-54624686D01*
X168205752Y-54624686D02*
X168205752Y-54434210D01*
X168205752Y-54434210D02*
X168253371Y-54338972D01*
X109827693Y-54920038D02*
X109732455Y-54872419D01*
X109732455Y-54872419D02*
X109589598Y-54872419D01*
X109589598Y-54872419D02*
X109446741Y-54920038D01*
X109446741Y-54920038D02*
X109351503Y-55015276D01*
X109351503Y-55015276D02*
X109303884Y-55110514D01*
X109303884Y-55110514D02*
X109256265Y-55300990D01*
X109256265Y-55300990D02*
X109256265Y-55443847D01*
X109256265Y-55443847D02*
X109303884Y-55634323D01*
X109303884Y-55634323D02*
X109351503Y-55729561D01*
X109351503Y-55729561D02*
X109446741Y-55824800D01*
X109446741Y-55824800D02*
X109589598Y-55872419D01*
X109589598Y-55872419D02*
X109684836Y-55872419D01*
X109684836Y-55872419D02*
X109827693Y-55824800D01*
X109827693Y-55824800D02*
X109875312Y-55777180D01*
X109875312Y-55777180D02*
X109875312Y-55443847D01*
X109875312Y-55443847D02*
X109684836Y-55443847D01*
X110303884Y-55872419D02*
X110303884Y-54872419D01*
X110303884Y-54872419D02*
X110875312Y-55872419D01*
X110875312Y-55872419D02*
X110875312Y-54872419D01*
X111351503Y-55872419D02*
X111351503Y-54872419D01*
X111351503Y-54872419D02*
X111589598Y-54872419D01*
X111589598Y-54872419D02*
X111732455Y-54920038D01*
X111732455Y-54920038D02*
X111827693Y-55015276D01*
X111827693Y-55015276D02*
X111875312Y-55110514D01*
X111875312Y-55110514D02*
X111922931Y-55300990D01*
X111922931Y-55300990D02*
X111922931Y-55443847D01*
X111922931Y-55443847D02*
X111875312Y-55634323D01*
X111875312Y-55634323D02*
X111827693Y-55729561D01*
X111827693Y-55729561D02*
X111732455Y-55824800D01*
X111732455Y-55824800D02*
X111589598Y-55872419D01*
X111589598Y-55872419D02*
X111351503Y-55872419D01*
X164586704Y-108243734D02*
X164586704Y-107767544D01*
X164872419Y-108338972D02*
X163872419Y-108005639D01*
X163872419Y-108005639D02*
X164872419Y-107672306D01*
X164872419Y-107338972D02*
X163872419Y-107338972D01*
X163872419Y-107338972D02*
X163872419Y-107100877D01*
X163872419Y-107100877D02*
X163920038Y-106958020D01*
X163920038Y-106958020D02*
X164015276Y-106862782D01*
X164015276Y-106862782D02*
X164110514Y-106815163D01*
X164110514Y-106815163D02*
X164300990Y-106767544D01*
X164300990Y-106767544D02*
X164443847Y-106767544D01*
X164443847Y-106767544D02*
X164634323Y-106815163D01*
X164634323Y-106815163D02*
X164729561Y-106862782D01*
X164729561Y-106862782D02*
X164824800Y-106958020D01*
X164824800Y-106958020D02*
X164872419Y-107100877D01*
X164872419Y-107100877D02*
X164872419Y-107338972D01*
X163872419Y-106434210D02*
X164872419Y-105767544D01*
X163872419Y-105767544D02*
X164872419Y-106434210D01*
X164872419Y-104910401D02*
X164872419Y-105386591D01*
X164872419Y-105386591D02*
X163872419Y-105386591D01*
X163872419Y-104672305D02*
X163872419Y-104053258D01*
X163872419Y-104053258D02*
X164253371Y-104386591D01*
X164253371Y-104386591D02*
X164253371Y-104243734D01*
X164253371Y-104243734D02*
X164300990Y-104148496D01*
X164300990Y-104148496D02*
X164348609Y-104100877D01*
X164348609Y-104100877D02*
X164443847Y-104053258D01*
X164443847Y-104053258D02*
X164681942Y-104053258D01*
X164681942Y-104053258D02*
X164777180Y-104100877D01*
X164777180Y-104100877D02*
X164824800Y-104148496D01*
X164824800Y-104148496D02*
X164872419Y-104243734D01*
X164872419Y-104243734D02*
X164872419Y-104529448D01*
X164872419Y-104529448D02*
X164824800Y-104624686D01*
X164824800Y-104624686D02*
X164777180Y-104672305D01*
X164205752Y-103196115D02*
X164872419Y-103196115D01*
X163824800Y-103434210D02*
X164539085Y-103672305D01*
X164539085Y-103672305D02*
X164539085Y-103053258D01*
X163872419Y-102196115D02*
X163872419Y-102672305D01*
X163872419Y-102672305D02*
X164348609Y-102719924D01*
X164348609Y-102719924D02*
X164300990Y-102672305D01*
X164300990Y-102672305D02*
X164253371Y-102577067D01*
X164253371Y-102577067D02*
X164253371Y-102338972D01*
X164253371Y-102338972D02*
X164300990Y-102243734D01*
X164300990Y-102243734D02*
X164348609Y-102196115D01*
X164348609Y-102196115D02*
X164443847Y-102148496D01*
X164443847Y-102148496D02*
X164681942Y-102148496D01*
X164681942Y-102148496D02*
X164777180Y-102196115D01*
X164777180Y-102196115D02*
X164824800Y-102243734D01*
X164824800Y-102243734D02*
X164872419Y-102338972D01*
X164872419Y-102338972D02*
X164872419Y-102577067D01*
X164872419Y-102577067D02*
X164824800Y-102672305D01*
X164824800Y-102672305D02*
X164777180Y-102719924D01*
X101324800Y-78743734D02*
X101372419Y-78600877D01*
X101372419Y-78600877D02*
X101372419Y-78362782D01*
X101372419Y-78362782D02*
X101324800Y-78267544D01*
X101324800Y-78267544D02*
X101277180Y-78219925D01*
X101277180Y-78219925D02*
X101181942Y-78172306D01*
X101181942Y-78172306D02*
X101086704Y-78172306D01*
X101086704Y-78172306D02*
X100991466Y-78219925D01*
X100991466Y-78219925D02*
X100943847Y-78267544D01*
X100943847Y-78267544D02*
X100896228Y-78362782D01*
X100896228Y-78362782D02*
X100848609Y-78553258D01*
X100848609Y-78553258D02*
X100800990Y-78648496D01*
X100800990Y-78648496D02*
X100753371Y-78696115D01*
X100753371Y-78696115D02*
X100658133Y-78743734D01*
X100658133Y-78743734D02*
X100562895Y-78743734D01*
X100562895Y-78743734D02*
X100467657Y-78696115D01*
X100467657Y-78696115D02*
X100420038Y-78648496D01*
X100420038Y-78648496D02*
X100372419Y-78553258D01*
X100372419Y-78553258D02*
X100372419Y-78315163D01*
X100372419Y-78315163D02*
X100420038Y-78172306D01*
X100705752Y-77886591D02*
X100705752Y-77505639D01*
X100372419Y-77743734D02*
X101229561Y-77743734D01*
X101229561Y-77743734D02*
X101324800Y-77696115D01*
X101324800Y-77696115D02*
X101372419Y-77600877D01*
X101372419Y-77600877D02*
X101372419Y-77505639D01*
X101372419Y-76743734D02*
X100848609Y-76743734D01*
X100848609Y-76743734D02*
X100753371Y-76791353D01*
X100753371Y-76791353D02*
X100705752Y-76886591D01*
X100705752Y-76886591D02*
X100705752Y-77077067D01*
X100705752Y-77077067D02*
X100753371Y-77172305D01*
X101324800Y-76743734D02*
X101372419Y-76838972D01*
X101372419Y-76838972D02*
X101372419Y-77077067D01*
X101372419Y-77077067D02*
X101324800Y-77172305D01*
X101324800Y-77172305D02*
X101229561Y-77219924D01*
X101229561Y-77219924D02*
X101134323Y-77219924D01*
X101134323Y-77219924D02*
X101039085Y-77172305D01*
X101039085Y-77172305D02*
X100991466Y-77077067D01*
X100991466Y-77077067D02*
X100991466Y-76838972D01*
X100991466Y-76838972D02*
X100943847Y-76743734D01*
X100705752Y-76410400D02*
X100705752Y-76029448D01*
X100372419Y-76267543D02*
X101229561Y-76267543D01*
X101229561Y-76267543D02*
X101324800Y-76219924D01*
X101324800Y-76219924D02*
X101372419Y-76124686D01*
X101372419Y-76124686D02*
X101372419Y-76029448D01*
X100705752Y-75267543D02*
X101372419Y-75267543D01*
X100705752Y-75696114D02*
X101229561Y-75696114D01*
X101229561Y-75696114D02*
X101324800Y-75648495D01*
X101324800Y-75648495D02*
X101372419Y-75553257D01*
X101372419Y-75553257D02*
X101372419Y-75410400D01*
X101372419Y-75410400D02*
X101324800Y-75315162D01*
X101324800Y-75315162D02*
X101277180Y-75267543D01*
X101324800Y-74838971D02*
X101372419Y-74743733D01*
X101372419Y-74743733D02*
X101372419Y-74553257D01*
X101372419Y-74553257D02*
X101324800Y-74458019D01*
X101324800Y-74458019D02*
X101229561Y-74410400D01*
X101229561Y-74410400D02*
X101181942Y-74410400D01*
X101181942Y-74410400D02*
X101086704Y-74458019D01*
X101086704Y-74458019D02*
X101039085Y-74553257D01*
X101039085Y-74553257D02*
X101039085Y-74696114D01*
X101039085Y-74696114D02*
X100991466Y-74791352D01*
X100991466Y-74791352D02*
X100896228Y-74838971D01*
X100896228Y-74838971D02*
X100848609Y-74838971D01*
X100848609Y-74838971D02*
X100753371Y-74791352D01*
X100753371Y-74791352D02*
X100705752Y-74696114D01*
X100705752Y-74696114D02*
X100705752Y-74553257D01*
X100705752Y-74553257D02*
X100753371Y-74458019D01*
X131327693Y-54420038D02*
X131232455Y-54372419D01*
X131232455Y-54372419D02*
X131089598Y-54372419D01*
X131089598Y-54372419D02*
X130946741Y-54420038D01*
X130946741Y-54420038D02*
X130851503Y-54515276D01*
X130851503Y-54515276D02*
X130803884Y-54610514D01*
X130803884Y-54610514D02*
X130756265Y-54800990D01*
X130756265Y-54800990D02*
X130756265Y-54943847D01*
X130756265Y-54943847D02*
X130803884Y-55134323D01*
X130803884Y-55134323D02*
X130851503Y-55229561D01*
X130851503Y-55229561D02*
X130946741Y-55324800D01*
X130946741Y-55324800D02*
X131089598Y-55372419D01*
X131089598Y-55372419D02*
X131184836Y-55372419D01*
X131184836Y-55372419D02*
X131327693Y-55324800D01*
X131327693Y-55324800D02*
X131375312Y-55277180D01*
X131375312Y-55277180D02*
X131375312Y-54943847D01*
X131375312Y-54943847D02*
X131184836Y-54943847D01*
X131803884Y-55372419D02*
X131803884Y-54372419D01*
X131803884Y-54372419D02*
X132375312Y-55372419D01*
X132375312Y-55372419D02*
X132375312Y-54372419D01*
X132851503Y-55372419D02*
X132851503Y-54372419D01*
X132851503Y-54372419D02*
X133089598Y-54372419D01*
X133089598Y-54372419D02*
X133232455Y-54420038D01*
X133232455Y-54420038D02*
X133327693Y-54515276D01*
X133327693Y-54515276D02*
X133375312Y-54610514D01*
X133375312Y-54610514D02*
X133422931Y-54800990D01*
X133422931Y-54800990D02*
X133422931Y-54943847D01*
X133422931Y-54943847D02*
X133375312Y-55134323D01*
X133375312Y-55134323D02*
X133327693Y-55229561D01*
X133327693Y-55229561D02*
X133232455Y-55324800D01*
X133232455Y-55324800D02*
X133089598Y-55372419D01*
X133089598Y-55372419D02*
X132851503Y-55372419D01*
X101348609Y-109696115D02*
X101348609Y-109362782D01*
X101872419Y-109219925D02*
X101872419Y-109696115D01*
X101872419Y-109696115D02*
X100872419Y-109696115D01*
X100872419Y-109696115D02*
X100872419Y-109219925D01*
X101872419Y-108886591D02*
X101205752Y-108362782D01*
X101205752Y-108886591D02*
X101872419Y-108362782D01*
X101205752Y-108124686D02*
X101205752Y-107743734D01*
X100872419Y-107981829D02*
X101729561Y-107981829D01*
X101729561Y-107981829D02*
X101824800Y-107934210D01*
X101824800Y-107934210D02*
X101872419Y-107838972D01*
X101872419Y-107838972D02*
X101872419Y-107743734D01*
X101824800Y-107029448D02*
X101872419Y-107124686D01*
X101872419Y-107124686D02*
X101872419Y-107315162D01*
X101872419Y-107315162D02*
X101824800Y-107410400D01*
X101824800Y-107410400D02*
X101729561Y-107458019D01*
X101729561Y-107458019D02*
X101348609Y-107458019D01*
X101348609Y-107458019D02*
X101253371Y-107410400D01*
X101253371Y-107410400D02*
X101205752Y-107315162D01*
X101205752Y-107315162D02*
X101205752Y-107124686D01*
X101205752Y-107124686D02*
X101253371Y-107029448D01*
X101253371Y-107029448D02*
X101348609Y-106981829D01*
X101348609Y-106981829D02*
X101443847Y-106981829D01*
X101443847Y-106981829D02*
X101539085Y-107458019D01*
X101872419Y-106553257D02*
X101205752Y-106553257D01*
X101396228Y-106553257D02*
X101300990Y-106505638D01*
X101300990Y-106505638D02*
X101253371Y-106458019D01*
X101253371Y-106458019D02*
X101205752Y-106362781D01*
X101205752Y-106362781D02*
X101205752Y-106267543D01*
X101205752Y-105934209D02*
X101872419Y-105934209D01*
X101300990Y-105934209D02*
X101253371Y-105886590D01*
X101253371Y-105886590D02*
X101205752Y-105791352D01*
X101205752Y-105791352D02*
X101205752Y-105648495D01*
X101205752Y-105648495D02*
X101253371Y-105553257D01*
X101253371Y-105553257D02*
X101348609Y-105505638D01*
X101348609Y-105505638D02*
X101872419Y-105505638D01*
X101872419Y-104600876D02*
X101348609Y-104600876D01*
X101348609Y-104600876D02*
X101253371Y-104648495D01*
X101253371Y-104648495D02*
X101205752Y-104743733D01*
X101205752Y-104743733D02*
X101205752Y-104934209D01*
X101205752Y-104934209D02*
X101253371Y-105029447D01*
X101824800Y-104600876D02*
X101872419Y-104696114D01*
X101872419Y-104696114D02*
X101872419Y-104934209D01*
X101872419Y-104934209D02*
X101824800Y-105029447D01*
X101824800Y-105029447D02*
X101729561Y-105077066D01*
X101729561Y-105077066D02*
X101634323Y-105077066D01*
X101634323Y-105077066D02*
X101539085Y-105029447D01*
X101539085Y-105029447D02*
X101491466Y-104934209D01*
X101491466Y-104934209D02*
X101491466Y-104696114D01*
X101491466Y-104696114D02*
X101443847Y-104600876D01*
X101872419Y-103981828D02*
X101824800Y-104077066D01*
X101824800Y-104077066D02*
X101729561Y-104124685D01*
X101729561Y-104124685D02*
X100872419Y-104124685D01*
X100872419Y-102981827D02*
X100872419Y-102410399D01*
X101872419Y-102696113D02*
X100872419Y-102696113D01*
X101824800Y-101696113D02*
X101872419Y-101791351D01*
X101872419Y-101791351D02*
X101872419Y-101981827D01*
X101872419Y-101981827D02*
X101824800Y-102077065D01*
X101824800Y-102077065D02*
X101729561Y-102124684D01*
X101729561Y-102124684D02*
X101348609Y-102124684D01*
X101348609Y-102124684D02*
X101253371Y-102077065D01*
X101253371Y-102077065D02*
X101205752Y-101981827D01*
X101205752Y-101981827D02*
X101205752Y-101791351D01*
X101205752Y-101791351D02*
X101253371Y-101696113D01*
X101253371Y-101696113D02*
X101348609Y-101648494D01*
X101348609Y-101648494D02*
X101443847Y-101648494D01*
X101443847Y-101648494D02*
X101539085Y-102124684D01*
X101872419Y-101219922D02*
X101205752Y-101219922D01*
X101300990Y-101219922D02*
X101253371Y-101172303D01*
X101253371Y-101172303D02*
X101205752Y-101077065D01*
X101205752Y-101077065D02*
X101205752Y-100934208D01*
X101205752Y-100934208D02*
X101253371Y-100838970D01*
X101253371Y-100838970D02*
X101348609Y-100791351D01*
X101348609Y-100791351D02*
X101872419Y-100791351D01*
X101348609Y-100791351D02*
X101253371Y-100743732D01*
X101253371Y-100743732D02*
X101205752Y-100648494D01*
X101205752Y-100648494D02*
X101205752Y-100505637D01*
X101205752Y-100505637D02*
X101253371Y-100410398D01*
X101253371Y-100410398D02*
X101348609Y-100362779D01*
X101348609Y-100362779D02*
X101872419Y-100362779D01*
X101205752Y-99886589D02*
X102205752Y-99886589D01*
X101253371Y-99886589D02*
X101205752Y-99791351D01*
X101205752Y-99791351D02*
X101205752Y-99600875D01*
X101205752Y-99600875D02*
X101253371Y-99505637D01*
X101253371Y-99505637D02*
X101300990Y-99458018D01*
X101300990Y-99458018D02*
X101396228Y-99410399D01*
X101396228Y-99410399D02*
X101681942Y-99410399D01*
X101681942Y-99410399D02*
X101777180Y-99458018D01*
X101777180Y-99458018D02*
X101824800Y-99505637D01*
X101824800Y-99505637D02*
X101872419Y-99600875D01*
X101872419Y-99600875D02*
X101872419Y-99791351D01*
X101872419Y-99791351D02*
X101824800Y-99886589D01*
D11*
X106184819Y-96595237D02*
X106184819Y-96404761D01*
X106184819Y-96404761D02*
X106232438Y-96309523D01*
X106232438Y-96309523D02*
X106327676Y-96214285D01*
X106327676Y-96214285D02*
X106518152Y-96166666D01*
X106518152Y-96166666D02*
X106851485Y-96166666D01*
X106851485Y-96166666D02*
X107041961Y-96214285D01*
X107041961Y-96214285D02*
X107137200Y-96309523D01*
X107137200Y-96309523D02*
X107184819Y-96404761D01*
X107184819Y-96404761D02*
X107184819Y-96595237D01*
X107184819Y-96595237D02*
X107137200Y-96690475D01*
X107137200Y-96690475D02*
X107041961Y-96785713D01*
X107041961Y-96785713D02*
X106851485Y-96833332D01*
X106851485Y-96833332D02*
X106518152Y-96833332D01*
X106518152Y-96833332D02*
X106327676Y-96785713D01*
X106327676Y-96785713D02*
X106232438Y-96690475D01*
X106232438Y-96690475D02*
X106184819Y-96595237D01*
D10*
X166433609Y-84711756D02*
X166481228Y-84568899D01*
X166481228Y-84568899D02*
X166528847Y-84521280D01*
X166528847Y-84521280D02*
X166624085Y-84473661D01*
X166624085Y-84473661D02*
X166766942Y-84473661D01*
X166766942Y-84473661D02*
X166862180Y-84521280D01*
X166862180Y-84521280D02*
X166909800Y-84568899D01*
X166909800Y-84568899D02*
X166957419Y-84664137D01*
X166957419Y-84664137D02*
X166957419Y-85045089D01*
X166957419Y-85045089D02*
X165957419Y-85045089D01*
X165957419Y-85045089D02*
X165957419Y-84711756D01*
X165957419Y-84711756D02*
X166005038Y-84616518D01*
X166005038Y-84616518D02*
X166052657Y-84568899D01*
X166052657Y-84568899D02*
X166147895Y-84521280D01*
X166147895Y-84521280D02*
X166243133Y-84521280D01*
X166243133Y-84521280D02*
X166338371Y-84568899D01*
X166338371Y-84568899D02*
X166385990Y-84616518D01*
X166385990Y-84616518D02*
X166433609Y-84711756D01*
X166433609Y-84711756D02*
X166433609Y-85045089D01*
X166957419Y-84045089D02*
X165957419Y-84045089D01*
X165957419Y-84045089D02*
X166671704Y-83711756D01*
X166671704Y-83711756D02*
X165957419Y-83378423D01*
X165957419Y-83378423D02*
X166957419Y-83378423D01*
X166433609Y-82902232D02*
X166433609Y-82568899D01*
X166957419Y-82426042D02*
X166957419Y-82902232D01*
X166957419Y-82902232D02*
X165957419Y-82902232D01*
X165957419Y-82902232D02*
X165957419Y-82426042D01*
X166052657Y-82045089D02*
X166005038Y-81997470D01*
X166005038Y-81997470D02*
X165957419Y-81902232D01*
X165957419Y-81902232D02*
X165957419Y-81664137D01*
X165957419Y-81664137D02*
X166005038Y-81568899D01*
X166005038Y-81568899D02*
X166052657Y-81521280D01*
X166052657Y-81521280D02*
X166147895Y-81473661D01*
X166147895Y-81473661D02*
X166243133Y-81473661D01*
X166243133Y-81473661D02*
X166385990Y-81521280D01*
X166385990Y-81521280D02*
X166957419Y-82092708D01*
X166957419Y-82092708D02*
X166957419Y-81473661D01*
X166385990Y-80902232D02*
X166338371Y-80997470D01*
X166338371Y-80997470D02*
X166290752Y-81045089D01*
X166290752Y-81045089D02*
X166195514Y-81092708D01*
X166195514Y-81092708D02*
X166147895Y-81092708D01*
X166147895Y-81092708D02*
X166052657Y-81045089D01*
X166052657Y-81045089D02*
X166005038Y-80997470D01*
X166005038Y-80997470D02*
X165957419Y-80902232D01*
X165957419Y-80902232D02*
X165957419Y-80711756D01*
X165957419Y-80711756D02*
X166005038Y-80616518D01*
X166005038Y-80616518D02*
X166052657Y-80568899D01*
X166052657Y-80568899D02*
X166147895Y-80521280D01*
X166147895Y-80521280D02*
X166195514Y-80521280D01*
X166195514Y-80521280D02*
X166290752Y-80568899D01*
X166290752Y-80568899D02*
X166338371Y-80616518D01*
X166338371Y-80616518D02*
X166385990Y-80711756D01*
X166385990Y-80711756D02*
X166385990Y-80902232D01*
X166385990Y-80902232D02*
X166433609Y-80997470D01*
X166433609Y-80997470D02*
X166481228Y-81045089D01*
X166481228Y-81045089D02*
X166576466Y-81092708D01*
X166576466Y-81092708D02*
X166766942Y-81092708D01*
X166766942Y-81092708D02*
X166862180Y-81045089D01*
X166862180Y-81045089D02*
X166909800Y-80997470D01*
X166909800Y-80997470D02*
X166957419Y-80902232D01*
X166957419Y-80902232D02*
X166957419Y-80711756D01*
X166957419Y-80711756D02*
X166909800Y-80616518D01*
X166909800Y-80616518D02*
X166862180Y-80568899D01*
X166862180Y-80568899D02*
X166766942Y-80521280D01*
X166766942Y-80521280D02*
X166576466Y-80521280D01*
X166576466Y-80521280D02*
X166481228Y-80568899D01*
X166481228Y-80568899D02*
X166433609Y-80616518D01*
X166433609Y-80616518D02*
X166385990Y-80711756D01*
X165957419Y-79902232D02*
X165957419Y-79806994D01*
X165957419Y-79806994D02*
X166005038Y-79711756D01*
X166005038Y-79711756D02*
X166052657Y-79664137D01*
X166052657Y-79664137D02*
X166147895Y-79616518D01*
X166147895Y-79616518D02*
X166338371Y-79568899D01*
X166338371Y-79568899D02*
X166576466Y-79568899D01*
X166576466Y-79568899D02*
X166766942Y-79616518D01*
X166766942Y-79616518D02*
X166862180Y-79664137D01*
X166862180Y-79664137D02*
X166909800Y-79711756D01*
X166909800Y-79711756D02*
X166957419Y-79806994D01*
X166957419Y-79806994D02*
X166957419Y-79902232D01*
X166957419Y-79902232D02*
X166909800Y-79997470D01*
X166909800Y-79997470D02*
X166862180Y-80045089D01*
X166862180Y-80045089D02*
X166766942Y-80092708D01*
X166766942Y-80092708D02*
X166576466Y-80140327D01*
X166576466Y-80140327D02*
X166338371Y-80140327D01*
X166338371Y-80140327D02*
X166147895Y-80092708D01*
X166147895Y-80092708D02*
X166052657Y-80045089D01*
X166052657Y-80045089D02*
X166005038Y-79997470D01*
X166005038Y-79997470D02*
X165957419Y-79902232D01*
X143256265Y-88586704D02*
X143732455Y-88586704D01*
X143161027Y-88872419D02*
X143494360Y-87872419D01*
X143494360Y-87872419D02*
X143827693Y-88872419D01*
X144161027Y-88872419D02*
X144161027Y-87872419D01*
X144161027Y-87872419D02*
X144399122Y-87872419D01*
X144399122Y-87872419D02*
X144541979Y-87920038D01*
X144541979Y-87920038D02*
X144637217Y-88015276D01*
X144637217Y-88015276D02*
X144684836Y-88110514D01*
X144684836Y-88110514D02*
X144732455Y-88300990D01*
X144732455Y-88300990D02*
X144732455Y-88443847D01*
X144732455Y-88443847D02*
X144684836Y-88634323D01*
X144684836Y-88634323D02*
X144637217Y-88729561D01*
X144637217Y-88729561D02*
X144541979Y-88824800D01*
X144541979Y-88824800D02*
X144399122Y-88872419D01*
X144399122Y-88872419D02*
X144161027Y-88872419D01*
X145732455Y-88872419D02*
X145399122Y-88396228D01*
X145161027Y-88872419D02*
X145161027Y-87872419D01*
X145161027Y-87872419D02*
X145541979Y-87872419D01*
X145541979Y-87872419D02*
X145637217Y-87920038D01*
X145637217Y-87920038D02*
X145684836Y-87967657D01*
X145684836Y-87967657D02*
X145732455Y-88062895D01*
X145732455Y-88062895D02*
X145732455Y-88205752D01*
X145732455Y-88205752D02*
X145684836Y-88300990D01*
X145684836Y-88300990D02*
X145637217Y-88348609D01*
X145637217Y-88348609D02*
X145541979Y-88396228D01*
X145541979Y-88396228D02*
X145161027Y-88396228D01*
X143827693Y-75420038D02*
X143732455Y-75372419D01*
X143732455Y-75372419D02*
X143589598Y-75372419D01*
X143589598Y-75372419D02*
X143446741Y-75420038D01*
X143446741Y-75420038D02*
X143351503Y-75515276D01*
X143351503Y-75515276D02*
X143303884Y-75610514D01*
X143303884Y-75610514D02*
X143256265Y-75800990D01*
X143256265Y-75800990D02*
X143256265Y-75943847D01*
X143256265Y-75943847D02*
X143303884Y-76134323D01*
X143303884Y-76134323D02*
X143351503Y-76229561D01*
X143351503Y-76229561D02*
X143446741Y-76324800D01*
X143446741Y-76324800D02*
X143589598Y-76372419D01*
X143589598Y-76372419D02*
X143684836Y-76372419D01*
X143684836Y-76372419D02*
X143827693Y-76324800D01*
X143827693Y-76324800D02*
X143875312Y-76277180D01*
X143875312Y-76277180D02*
X143875312Y-75943847D01*
X143875312Y-75943847D02*
X143684836Y-75943847D01*
X144303884Y-76372419D02*
X144303884Y-75372419D01*
X144303884Y-75372419D02*
X144875312Y-76372419D01*
X144875312Y-76372419D02*
X144875312Y-75372419D01*
X145351503Y-76372419D02*
X145351503Y-75372419D01*
X145351503Y-75372419D02*
X145589598Y-75372419D01*
X145589598Y-75372419D02*
X145732455Y-75420038D01*
X145732455Y-75420038D02*
X145827693Y-75515276D01*
X145827693Y-75515276D02*
X145875312Y-75610514D01*
X145875312Y-75610514D02*
X145922931Y-75800990D01*
X145922931Y-75800990D02*
X145922931Y-75943847D01*
X145922931Y-75943847D02*
X145875312Y-76134323D01*
X145875312Y-76134323D02*
X145827693Y-76229561D01*
X145827693Y-76229561D02*
X145732455Y-76324800D01*
X145732455Y-76324800D02*
X145589598Y-76372419D01*
X145589598Y-76372419D02*
X145351503Y-76372419D01*
X143256265Y-81324800D02*
X143399122Y-81372419D01*
X143399122Y-81372419D02*
X143637217Y-81372419D01*
X143637217Y-81372419D02*
X143732455Y-81324800D01*
X143732455Y-81324800D02*
X143780074Y-81277180D01*
X143780074Y-81277180D02*
X143827693Y-81181942D01*
X143827693Y-81181942D02*
X143827693Y-81086704D01*
X143827693Y-81086704D02*
X143780074Y-80991466D01*
X143780074Y-80991466D02*
X143732455Y-80943847D01*
X143732455Y-80943847D02*
X143637217Y-80896228D01*
X143637217Y-80896228D02*
X143446741Y-80848609D01*
X143446741Y-80848609D02*
X143351503Y-80800990D01*
X143351503Y-80800990D02*
X143303884Y-80753371D01*
X143303884Y-80753371D02*
X143256265Y-80658133D01*
X143256265Y-80658133D02*
X143256265Y-80562895D01*
X143256265Y-80562895D02*
X143303884Y-80467657D01*
X143303884Y-80467657D02*
X143351503Y-80420038D01*
X143351503Y-80420038D02*
X143446741Y-80372419D01*
X143446741Y-80372419D02*
X143684836Y-80372419D01*
X143684836Y-80372419D02*
X143827693Y-80420038D01*
X144256265Y-81372419D02*
X144256265Y-80372419D01*
X144256265Y-80372419D02*
X144494360Y-80372419D01*
X144494360Y-80372419D02*
X144637217Y-80420038D01*
X144637217Y-80420038D02*
X144732455Y-80515276D01*
X144732455Y-80515276D02*
X144780074Y-80610514D01*
X144780074Y-80610514D02*
X144827693Y-80800990D01*
X144827693Y-80800990D02*
X144827693Y-80943847D01*
X144827693Y-80943847D02*
X144780074Y-81134323D01*
X144780074Y-81134323D02*
X144732455Y-81229561D01*
X144732455Y-81229561D02*
X144637217Y-81324800D01*
X144637217Y-81324800D02*
X144494360Y-81372419D01*
X144494360Y-81372419D02*
X144256265Y-81372419D01*
X145208646Y-81086704D02*
X145684836Y-81086704D01*
X145113408Y-81372419D02*
X145446741Y-80372419D01*
X145446741Y-80372419D02*
X145780074Y-81372419D01*
X143256265Y-83824800D02*
X143399122Y-83872419D01*
X143399122Y-83872419D02*
X143637217Y-83872419D01*
X143637217Y-83872419D02*
X143732455Y-83824800D01*
X143732455Y-83824800D02*
X143780074Y-83777180D01*
X143780074Y-83777180D02*
X143827693Y-83681942D01*
X143827693Y-83681942D02*
X143827693Y-83586704D01*
X143827693Y-83586704D02*
X143780074Y-83491466D01*
X143780074Y-83491466D02*
X143732455Y-83443847D01*
X143732455Y-83443847D02*
X143637217Y-83396228D01*
X143637217Y-83396228D02*
X143446741Y-83348609D01*
X143446741Y-83348609D02*
X143351503Y-83300990D01*
X143351503Y-83300990D02*
X143303884Y-83253371D01*
X143303884Y-83253371D02*
X143256265Y-83158133D01*
X143256265Y-83158133D02*
X143256265Y-83062895D01*
X143256265Y-83062895D02*
X143303884Y-82967657D01*
X143303884Y-82967657D02*
X143351503Y-82920038D01*
X143351503Y-82920038D02*
X143446741Y-82872419D01*
X143446741Y-82872419D02*
X143684836Y-82872419D01*
X143684836Y-82872419D02*
X143827693Y-82920038D01*
X144827693Y-83777180D02*
X144780074Y-83824800D01*
X144780074Y-83824800D02*
X144637217Y-83872419D01*
X144637217Y-83872419D02*
X144541979Y-83872419D01*
X144541979Y-83872419D02*
X144399122Y-83824800D01*
X144399122Y-83824800D02*
X144303884Y-83729561D01*
X144303884Y-83729561D02*
X144256265Y-83634323D01*
X144256265Y-83634323D02*
X144208646Y-83443847D01*
X144208646Y-83443847D02*
X144208646Y-83300990D01*
X144208646Y-83300990D02*
X144256265Y-83110514D01*
X144256265Y-83110514D02*
X144303884Y-83015276D01*
X144303884Y-83015276D02*
X144399122Y-82920038D01*
X144399122Y-82920038D02*
X144541979Y-82872419D01*
X144541979Y-82872419D02*
X144637217Y-82872419D01*
X144637217Y-82872419D02*
X144780074Y-82920038D01*
X144780074Y-82920038D02*
X144827693Y-82967657D01*
X145732455Y-83872419D02*
X145256265Y-83872419D01*
X145256265Y-83872419D02*
X145256265Y-82872419D01*
X143875312Y-86277180D02*
X143827693Y-86324800D01*
X143827693Y-86324800D02*
X143684836Y-86372419D01*
X143684836Y-86372419D02*
X143589598Y-86372419D01*
X143589598Y-86372419D02*
X143446741Y-86324800D01*
X143446741Y-86324800D02*
X143351503Y-86229561D01*
X143351503Y-86229561D02*
X143303884Y-86134323D01*
X143303884Y-86134323D02*
X143256265Y-85943847D01*
X143256265Y-85943847D02*
X143256265Y-85800990D01*
X143256265Y-85800990D02*
X143303884Y-85610514D01*
X143303884Y-85610514D02*
X143351503Y-85515276D01*
X143351503Y-85515276D02*
X143446741Y-85420038D01*
X143446741Y-85420038D02*
X143589598Y-85372419D01*
X143589598Y-85372419D02*
X143684836Y-85372419D01*
X143684836Y-85372419D02*
X143827693Y-85420038D01*
X143827693Y-85420038D02*
X143875312Y-85467657D01*
X144256265Y-86324800D02*
X144399122Y-86372419D01*
X144399122Y-86372419D02*
X144637217Y-86372419D01*
X144637217Y-86372419D02*
X144732455Y-86324800D01*
X144732455Y-86324800D02*
X144780074Y-86277180D01*
X144780074Y-86277180D02*
X144827693Y-86181942D01*
X144827693Y-86181942D02*
X144827693Y-86086704D01*
X144827693Y-86086704D02*
X144780074Y-85991466D01*
X144780074Y-85991466D02*
X144732455Y-85943847D01*
X144732455Y-85943847D02*
X144637217Y-85896228D01*
X144637217Y-85896228D02*
X144446741Y-85848609D01*
X144446741Y-85848609D02*
X144351503Y-85800990D01*
X144351503Y-85800990D02*
X144303884Y-85753371D01*
X144303884Y-85753371D02*
X144256265Y-85658133D01*
X144256265Y-85658133D02*
X144256265Y-85562895D01*
X144256265Y-85562895D02*
X144303884Y-85467657D01*
X144303884Y-85467657D02*
X144351503Y-85420038D01*
X144351503Y-85420038D02*
X144446741Y-85372419D01*
X144446741Y-85372419D02*
X144684836Y-85372419D01*
X144684836Y-85372419D02*
X144827693Y-85420038D01*
X143208646Y-77872419D02*
X143827693Y-77872419D01*
X143827693Y-77872419D02*
X143494360Y-78253371D01*
X143494360Y-78253371D02*
X143637217Y-78253371D01*
X143637217Y-78253371D02*
X143732455Y-78300990D01*
X143732455Y-78300990D02*
X143780074Y-78348609D01*
X143780074Y-78348609D02*
X143827693Y-78443847D01*
X143827693Y-78443847D02*
X143827693Y-78681942D01*
X143827693Y-78681942D02*
X143780074Y-78777180D01*
X143780074Y-78777180D02*
X143732455Y-78824800D01*
X143732455Y-78824800D02*
X143637217Y-78872419D01*
X143637217Y-78872419D02*
X143351503Y-78872419D01*
X143351503Y-78872419D02*
X143256265Y-78824800D01*
X143256265Y-78824800D02*
X143208646Y-78777180D01*
X144113408Y-77872419D02*
X144446741Y-78872419D01*
X144446741Y-78872419D02*
X144780074Y-77872419D01*
X145018170Y-77872419D02*
X145637217Y-77872419D01*
X145637217Y-77872419D02*
X145303884Y-78253371D01*
X145303884Y-78253371D02*
X145446741Y-78253371D01*
X145446741Y-78253371D02*
X145541979Y-78300990D01*
X145541979Y-78300990D02*
X145589598Y-78348609D01*
X145589598Y-78348609D02*
X145637217Y-78443847D01*
X145637217Y-78443847D02*
X145637217Y-78681942D01*
X145637217Y-78681942D02*
X145589598Y-78777180D01*
X145589598Y-78777180D02*
X145541979Y-78824800D01*
X145541979Y-78824800D02*
X145446741Y-78872419D01*
X145446741Y-78872419D02*
X145161027Y-78872419D01*
X145161027Y-78872419D02*
X145065789Y-78824800D01*
X145065789Y-78824800D02*
X145018170Y-78777180D01*
D11*
X114454819Y-54095237D02*
X115454819Y-53761904D01*
X115454819Y-53761904D02*
X114454819Y-53428571D01*
X115454819Y-53095237D02*
X114454819Y-53095237D01*
X115454819Y-52619047D02*
X114454819Y-52619047D01*
X114454819Y-52619047D02*
X115454819Y-52047619D01*
X115454819Y-52047619D02*
X114454819Y-52047619D01*
D10*
X143137217Y-63848609D02*
X143280074Y-63896228D01*
X143280074Y-63896228D02*
X143327693Y-63943847D01*
X143327693Y-63943847D02*
X143375312Y-64039085D01*
X143375312Y-64039085D02*
X143375312Y-64181942D01*
X143375312Y-64181942D02*
X143327693Y-64277180D01*
X143327693Y-64277180D02*
X143280074Y-64324800D01*
X143280074Y-64324800D02*
X143184836Y-64372419D01*
X143184836Y-64372419D02*
X142803884Y-64372419D01*
X142803884Y-64372419D02*
X142803884Y-63372419D01*
X142803884Y-63372419D02*
X143137217Y-63372419D01*
X143137217Y-63372419D02*
X143232455Y-63420038D01*
X143232455Y-63420038D02*
X143280074Y-63467657D01*
X143280074Y-63467657D02*
X143327693Y-63562895D01*
X143327693Y-63562895D02*
X143327693Y-63658133D01*
X143327693Y-63658133D02*
X143280074Y-63753371D01*
X143280074Y-63753371D02*
X143232455Y-63800990D01*
X143232455Y-63800990D02*
X143137217Y-63848609D01*
X143137217Y-63848609D02*
X142803884Y-63848609D01*
X144280074Y-64372419D02*
X143803884Y-64372419D01*
X143803884Y-64372419D02*
X143803884Y-63372419D01*
X144613408Y-64372419D02*
X144613408Y-63372419D01*
X145184836Y-64372419D02*
X144756265Y-63800990D01*
X145184836Y-63372419D02*
X144613408Y-63943847D01*
X143375312Y-54372419D02*
X143041979Y-53896228D01*
X142803884Y-54372419D02*
X142803884Y-53372419D01*
X142803884Y-53372419D02*
X143184836Y-53372419D01*
X143184836Y-53372419D02*
X143280074Y-53420038D01*
X143280074Y-53420038D02*
X143327693Y-53467657D01*
X143327693Y-53467657D02*
X143375312Y-53562895D01*
X143375312Y-53562895D02*
X143375312Y-53705752D01*
X143375312Y-53705752D02*
X143327693Y-53800990D01*
X143327693Y-53800990D02*
X143280074Y-53848609D01*
X143280074Y-53848609D02*
X143184836Y-53896228D01*
X143184836Y-53896228D02*
X142803884Y-53896228D01*
X143708646Y-53372419D02*
X144375312Y-54372419D01*
X144375312Y-53372419D02*
X143708646Y-54372419D01*
X145280074Y-54372419D02*
X144708646Y-54372419D01*
X144994360Y-54372419D02*
X144994360Y-53372419D01*
X144994360Y-53372419D02*
X144899122Y-53515276D01*
X144899122Y-53515276D02*
X144803884Y-53610514D01*
X144803884Y-53610514D02*
X144708646Y-53658133D01*
X142661027Y-58372419D02*
X142994360Y-59372419D01*
X142994360Y-59372419D02*
X143327693Y-58372419D01*
X144232455Y-59277180D02*
X144184836Y-59324800D01*
X144184836Y-59324800D02*
X144041979Y-59372419D01*
X144041979Y-59372419D02*
X143946741Y-59372419D01*
X143946741Y-59372419D02*
X143803884Y-59324800D01*
X143803884Y-59324800D02*
X143708646Y-59229561D01*
X143708646Y-59229561D02*
X143661027Y-59134323D01*
X143661027Y-59134323D02*
X143613408Y-58943847D01*
X143613408Y-58943847D02*
X143613408Y-58800990D01*
X143613408Y-58800990D02*
X143661027Y-58610514D01*
X143661027Y-58610514D02*
X143708646Y-58515276D01*
X143708646Y-58515276D02*
X143803884Y-58420038D01*
X143803884Y-58420038D02*
X143946741Y-58372419D01*
X143946741Y-58372419D02*
X144041979Y-58372419D01*
X144041979Y-58372419D02*
X144184836Y-58420038D01*
X144184836Y-58420038D02*
X144232455Y-58467657D01*
X145232455Y-59277180D02*
X145184836Y-59324800D01*
X145184836Y-59324800D02*
X145041979Y-59372419D01*
X145041979Y-59372419D02*
X144946741Y-59372419D01*
X144946741Y-59372419D02*
X144803884Y-59324800D01*
X144803884Y-59324800D02*
X144708646Y-59229561D01*
X144708646Y-59229561D02*
X144661027Y-59134323D01*
X144661027Y-59134323D02*
X144613408Y-58943847D01*
X144613408Y-58943847D02*
X144613408Y-58800990D01*
X144613408Y-58800990D02*
X144661027Y-58610514D01*
X144661027Y-58610514D02*
X144708646Y-58515276D01*
X144708646Y-58515276D02*
X144803884Y-58420038D01*
X144803884Y-58420038D02*
X144946741Y-58372419D01*
X144946741Y-58372419D02*
X145041979Y-58372419D01*
X145041979Y-58372419D02*
X145184836Y-58420038D01*
X145184836Y-58420038D02*
X145232455Y-58467657D01*
X143327693Y-60920038D02*
X143232455Y-60872419D01*
X143232455Y-60872419D02*
X143089598Y-60872419D01*
X143089598Y-60872419D02*
X142946741Y-60920038D01*
X142946741Y-60920038D02*
X142851503Y-61015276D01*
X142851503Y-61015276D02*
X142803884Y-61110514D01*
X142803884Y-61110514D02*
X142756265Y-61300990D01*
X142756265Y-61300990D02*
X142756265Y-61443847D01*
X142756265Y-61443847D02*
X142803884Y-61634323D01*
X142803884Y-61634323D02*
X142851503Y-61729561D01*
X142851503Y-61729561D02*
X142946741Y-61824800D01*
X142946741Y-61824800D02*
X143089598Y-61872419D01*
X143089598Y-61872419D02*
X143184836Y-61872419D01*
X143184836Y-61872419D02*
X143327693Y-61824800D01*
X143327693Y-61824800D02*
X143375312Y-61777180D01*
X143375312Y-61777180D02*
X143375312Y-61443847D01*
X143375312Y-61443847D02*
X143184836Y-61443847D01*
X143803884Y-61872419D02*
X143803884Y-60872419D01*
X143803884Y-60872419D02*
X144375312Y-61872419D01*
X144375312Y-61872419D02*
X144375312Y-60872419D01*
X144851503Y-61872419D02*
X144851503Y-60872419D01*
X144851503Y-60872419D02*
X145089598Y-60872419D01*
X145089598Y-60872419D02*
X145232455Y-60920038D01*
X145232455Y-60920038D02*
X145327693Y-61015276D01*
X145327693Y-61015276D02*
X145375312Y-61110514D01*
X145375312Y-61110514D02*
X145422931Y-61300990D01*
X145422931Y-61300990D02*
X145422931Y-61443847D01*
X145422931Y-61443847D02*
X145375312Y-61634323D01*
X145375312Y-61634323D02*
X145327693Y-61729561D01*
X145327693Y-61729561D02*
X145232455Y-61824800D01*
X145232455Y-61824800D02*
X145089598Y-61872419D01*
X145089598Y-61872419D02*
X144851503Y-61872419D01*
X143327693Y-50920038D02*
X143232455Y-50872419D01*
X143232455Y-50872419D02*
X143089598Y-50872419D01*
X143089598Y-50872419D02*
X142946741Y-50920038D01*
X142946741Y-50920038D02*
X142851503Y-51015276D01*
X142851503Y-51015276D02*
X142803884Y-51110514D01*
X142803884Y-51110514D02*
X142756265Y-51300990D01*
X142756265Y-51300990D02*
X142756265Y-51443847D01*
X142756265Y-51443847D02*
X142803884Y-51634323D01*
X142803884Y-51634323D02*
X142851503Y-51729561D01*
X142851503Y-51729561D02*
X142946741Y-51824800D01*
X142946741Y-51824800D02*
X143089598Y-51872419D01*
X143089598Y-51872419D02*
X143184836Y-51872419D01*
X143184836Y-51872419D02*
X143327693Y-51824800D01*
X143327693Y-51824800D02*
X143375312Y-51777180D01*
X143375312Y-51777180D02*
X143375312Y-51443847D01*
X143375312Y-51443847D02*
X143184836Y-51443847D01*
X144375312Y-51872419D02*
X144041979Y-51396228D01*
X143803884Y-51872419D02*
X143803884Y-50872419D01*
X143803884Y-50872419D02*
X144184836Y-50872419D01*
X144184836Y-50872419D02*
X144280074Y-50920038D01*
X144280074Y-50920038D02*
X144327693Y-50967657D01*
X144327693Y-50967657D02*
X144375312Y-51062895D01*
X144375312Y-51062895D02*
X144375312Y-51205752D01*
X144375312Y-51205752D02*
X144327693Y-51300990D01*
X144327693Y-51300990D02*
X144280074Y-51348609D01*
X144280074Y-51348609D02*
X144184836Y-51396228D01*
X144184836Y-51396228D02*
X143803884Y-51396228D01*
X144803884Y-51872419D02*
X144803884Y-50872419D01*
X144803884Y-50872419D02*
X145375312Y-51872419D01*
X145375312Y-51872419D02*
X145375312Y-50872419D01*
X142661027Y-55872419D02*
X143232455Y-55872419D01*
X142946741Y-56872419D02*
X142946741Y-55872419D01*
X143470551Y-55872419D02*
X144137217Y-56872419D01*
X144137217Y-55872419D02*
X143470551Y-56872419D01*
X144708646Y-55872419D02*
X144803884Y-55872419D01*
X144803884Y-55872419D02*
X144899122Y-55920038D01*
X144899122Y-55920038D02*
X144946741Y-55967657D01*
X144946741Y-55967657D02*
X144994360Y-56062895D01*
X144994360Y-56062895D02*
X145041979Y-56253371D01*
X145041979Y-56253371D02*
X145041979Y-56491466D01*
X145041979Y-56491466D02*
X144994360Y-56681942D01*
X144994360Y-56681942D02*
X144946741Y-56777180D01*
X144946741Y-56777180D02*
X144899122Y-56824800D01*
X144899122Y-56824800D02*
X144803884Y-56872419D01*
X144803884Y-56872419D02*
X144708646Y-56872419D01*
X144708646Y-56872419D02*
X144613408Y-56824800D01*
X144613408Y-56824800D02*
X144565789Y-56777180D01*
X144565789Y-56777180D02*
X144518170Y-56681942D01*
X144518170Y-56681942D02*
X144470551Y-56491466D01*
X144470551Y-56491466D02*
X144470551Y-56253371D01*
X144470551Y-56253371D02*
X144518170Y-56062895D01*
X144518170Y-56062895D02*
X144565789Y-55967657D01*
X144565789Y-55967657D02*
X144613408Y-55920038D01*
X144613408Y-55920038D02*
X144708646Y-55872419D01*
D11*
X113563333Y-86174819D02*
X113230000Y-85698628D01*
X112991905Y-86174819D02*
X112991905Y-85174819D01*
X112991905Y-85174819D02*
X113372857Y-85174819D01*
X113372857Y-85174819D02*
X113468095Y-85222438D01*
X113468095Y-85222438D02*
X113515714Y-85270057D01*
X113515714Y-85270057D02*
X113563333Y-85365295D01*
X113563333Y-85365295D02*
X113563333Y-85508152D01*
X113563333Y-85508152D02*
X113515714Y-85603390D01*
X113515714Y-85603390D02*
X113468095Y-85651009D01*
X113468095Y-85651009D02*
X113372857Y-85698628D01*
X113372857Y-85698628D02*
X112991905Y-85698628D01*
X113896667Y-85174819D02*
X114515714Y-85174819D01*
X114515714Y-85174819D02*
X114182381Y-85555771D01*
X114182381Y-85555771D02*
X114325238Y-85555771D01*
X114325238Y-85555771D02*
X114420476Y-85603390D01*
X114420476Y-85603390D02*
X114468095Y-85651009D01*
X114468095Y-85651009D02*
X114515714Y-85746247D01*
X114515714Y-85746247D02*
X114515714Y-85984342D01*
X114515714Y-85984342D02*
X114468095Y-86079580D01*
X114468095Y-86079580D02*
X114420476Y-86127200D01*
X114420476Y-86127200D02*
X114325238Y-86174819D01*
X114325238Y-86174819D02*
X114039524Y-86174819D01*
X114039524Y-86174819D02*
X113944286Y-86127200D01*
X113944286Y-86127200D02*
X113896667Y-86079580D01*
X106681009Y-105654761D02*
X106728628Y-105511904D01*
X106728628Y-105511904D02*
X106776247Y-105464285D01*
X106776247Y-105464285D02*
X106871485Y-105416666D01*
X106871485Y-105416666D02*
X107014342Y-105416666D01*
X107014342Y-105416666D02*
X107109580Y-105464285D01*
X107109580Y-105464285D02*
X107157200Y-105511904D01*
X107157200Y-105511904D02*
X107204819Y-105607142D01*
X107204819Y-105607142D02*
X107204819Y-105988094D01*
X107204819Y-105988094D02*
X106204819Y-105988094D01*
X106204819Y-105988094D02*
X106204819Y-105654761D01*
X106204819Y-105654761D02*
X106252438Y-105559523D01*
X106252438Y-105559523D02*
X106300057Y-105511904D01*
X106300057Y-105511904D02*
X106395295Y-105464285D01*
X106395295Y-105464285D02*
X106490533Y-105464285D01*
X106490533Y-105464285D02*
X106585771Y-105511904D01*
X106585771Y-105511904D02*
X106633390Y-105559523D01*
X106633390Y-105559523D02*
X106681009Y-105654761D01*
X106681009Y-105654761D02*
X106681009Y-105988094D01*
X106300057Y-105035713D02*
X106252438Y-104988094D01*
X106252438Y-104988094D02*
X106204819Y-104892856D01*
X106204819Y-104892856D02*
X106204819Y-104654761D01*
X106204819Y-104654761D02*
X106252438Y-104559523D01*
X106252438Y-104559523D02*
X106300057Y-104511904D01*
X106300057Y-104511904D02*
X106395295Y-104464285D01*
X106395295Y-104464285D02*
X106490533Y-104464285D01*
X106490533Y-104464285D02*
X106633390Y-104511904D01*
X106633390Y-104511904D02*
X107204819Y-105083332D01*
X107204819Y-105083332D02*
X107204819Y-104464285D01*
X106708628Y-86499999D02*
X107184819Y-86499999D01*
X106184819Y-86833332D02*
X106708628Y-86499999D01*
X106708628Y-86499999D02*
X106184819Y-86166666D01*
X113563333Y-99174819D02*
X113230000Y-98698628D01*
X112991905Y-99174819D02*
X112991905Y-98174819D01*
X112991905Y-98174819D02*
X113372857Y-98174819D01*
X113372857Y-98174819D02*
X113468095Y-98222438D01*
X113468095Y-98222438D02*
X113515714Y-98270057D01*
X113515714Y-98270057D02*
X113563333Y-98365295D01*
X113563333Y-98365295D02*
X113563333Y-98508152D01*
X113563333Y-98508152D02*
X113515714Y-98603390D01*
X113515714Y-98603390D02*
X113468095Y-98651009D01*
X113468095Y-98651009D02*
X113372857Y-98698628D01*
X113372857Y-98698628D02*
X112991905Y-98698628D01*
X114468095Y-98174819D02*
X113991905Y-98174819D01*
X113991905Y-98174819D02*
X113944286Y-98651009D01*
X113944286Y-98651009D02*
X113991905Y-98603390D01*
X113991905Y-98603390D02*
X114087143Y-98555771D01*
X114087143Y-98555771D02*
X114325238Y-98555771D01*
X114325238Y-98555771D02*
X114420476Y-98603390D01*
X114420476Y-98603390D02*
X114468095Y-98651009D01*
X114468095Y-98651009D02*
X114515714Y-98746247D01*
X114515714Y-98746247D02*
X114515714Y-98984342D01*
X114515714Y-98984342D02*
X114468095Y-99079580D01*
X114468095Y-99079580D02*
X114420476Y-99127200D01*
X114420476Y-99127200D02*
X114325238Y-99174819D01*
X114325238Y-99174819D02*
X114087143Y-99174819D01*
X114087143Y-99174819D02*
X113991905Y-99127200D01*
X113991905Y-99127200D02*
X113944286Y-99079580D01*
X113563333Y-105674819D02*
X113230000Y-105198628D01*
X112991905Y-105674819D02*
X112991905Y-104674819D01*
X112991905Y-104674819D02*
X113372857Y-104674819D01*
X113372857Y-104674819D02*
X113468095Y-104722438D01*
X113468095Y-104722438D02*
X113515714Y-104770057D01*
X113515714Y-104770057D02*
X113563333Y-104865295D01*
X113563333Y-104865295D02*
X113563333Y-105008152D01*
X113563333Y-105008152D02*
X113515714Y-105103390D01*
X113515714Y-105103390D02*
X113468095Y-105151009D01*
X113468095Y-105151009D02*
X113372857Y-105198628D01*
X113372857Y-105198628D02*
X112991905Y-105198628D01*
X114420476Y-104674819D02*
X114230000Y-104674819D01*
X114230000Y-104674819D02*
X114134762Y-104722438D01*
X114134762Y-104722438D02*
X114087143Y-104770057D01*
X114087143Y-104770057D02*
X113991905Y-104912914D01*
X113991905Y-104912914D02*
X113944286Y-105103390D01*
X113944286Y-105103390D02*
X113944286Y-105484342D01*
X113944286Y-105484342D02*
X113991905Y-105579580D01*
X113991905Y-105579580D02*
X114039524Y-105627200D01*
X114039524Y-105627200D02*
X114134762Y-105674819D01*
X114134762Y-105674819D02*
X114325238Y-105674819D01*
X114325238Y-105674819D02*
X114420476Y-105627200D01*
X114420476Y-105627200D02*
X114468095Y-105579580D01*
X114468095Y-105579580D02*
X114515714Y-105484342D01*
X114515714Y-105484342D02*
X114515714Y-105246247D01*
X114515714Y-105246247D02*
X114468095Y-105151009D01*
X114468095Y-105151009D02*
X114420476Y-105103390D01*
X114420476Y-105103390D02*
X114325238Y-105055771D01*
X114325238Y-105055771D02*
X114134762Y-105055771D01*
X114134762Y-105055771D02*
X114039524Y-105103390D01*
X114039524Y-105103390D02*
X113991905Y-105151009D01*
X113991905Y-105151009D02*
X113944286Y-105246247D01*
X107184819Y-58230476D02*
X106708628Y-58563809D01*
X107184819Y-58801904D02*
X106184819Y-58801904D01*
X106184819Y-58801904D02*
X106184819Y-58420952D01*
X106184819Y-58420952D02*
X106232438Y-58325714D01*
X106232438Y-58325714D02*
X106280057Y-58278095D01*
X106280057Y-58278095D02*
X106375295Y-58230476D01*
X106375295Y-58230476D02*
X106518152Y-58230476D01*
X106518152Y-58230476D02*
X106613390Y-58278095D01*
X106613390Y-58278095D02*
X106661009Y-58325714D01*
X106661009Y-58325714D02*
X106708628Y-58420952D01*
X106708628Y-58420952D02*
X106708628Y-58801904D01*
X120189523Y-63589104D02*
X120665713Y-63589104D01*
X120094285Y-63874819D02*
X120427618Y-62874819D01*
X120427618Y-62874819D02*
X120760951Y-63874819D01*
X121094285Y-63874819D02*
X121094285Y-63208152D01*
X121094285Y-63398628D02*
X121141904Y-63303390D01*
X121141904Y-63303390D02*
X121189523Y-63255771D01*
X121189523Y-63255771D02*
X121284761Y-63208152D01*
X121284761Y-63208152D02*
X121379999Y-63208152D01*
X122141904Y-63874819D02*
X122141904Y-62874819D01*
X122141904Y-63827200D02*
X122046666Y-63874819D01*
X122046666Y-63874819D02*
X121856190Y-63874819D01*
X121856190Y-63874819D02*
X121760952Y-63827200D01*
X121760952Y-63827200D02*
X121713333Y-63779580D01*
X121713333Y-63779580D02*
X121665714Y-63684342D01*
X121665714Y-63684342D02*
X121665714Y-63398628D01*
X121665714Y-63398628D02*
X121713333Y-63303390D01*
X121713333Y-63303390D02*
X121760952Y-63255771D01*
X121760952Y-63255771D02*
X121856190Y-63208152D01*
X121856190Y-63208152D02*
X122046666Y-63208152D01*
X122046666Y-63208152D02*
X122141904Y-63255771D01*
X123046666Y-63208152D02*
X123046666Y-63874819D01*
X122618095Y-63208152D02*
X122618095Y-63731961D01*
X122618095Y-63731961D02*
X122665714Y-63827200D01*
X122665714Y-63827200D02*
X122760952Y-63874819D01*
X122760952Y-63874819D02*
X122903809Y-63874819D01*
X122903809Y-63874819D02*
X122999047Y-63827200D01*
X122999047Y-63827200D02*
X123046666Y-63779580D01*
X123522857Y-63874819D02*
X123522857Y-63208152D01*
X123522857Y-62874819D02*
X123475238Y-62922438D01*
X123475238Y-62922438D02*
X123522857Y-62970057D01*
X123522857Y-62970057D02*
X123570476Y-62922438D01*
X123570476Y-62922438D02*
X123522857Y-62874819D01*
X123522857Y-62874819D02*
X123522857Y-62970057D01*
X123999047Y-63208152D02*
X123999047Y-63874819D01*
X123999047Y-63303390D02*
X124046666Y-63255771D01*
X124046666Y-63255771D02*
X124141904Y-63208152D01*
X124141904Y-63208152D02*
X124284761Y-63208152D01*
X124284761Y-63208152D02*
X124379999Y-63255771D01*
X124379999Y-63255771D02*
X124427618Y-63351009D01*
X124427618Y-63351009D02*
X124427618Y-63874819D01*
X125046666Y-63874819D02*
X124951428Y-63827200D01*
X124951428Y-63827200D02*
X124903809Y-63779580D01*
X124903809Y-63779580D02*
X124856190Y-63684342D01*
X124856190Y-63684342D02*
X124856190Y-63398628D01*
X124856190Y-63398628D02*
X124903809Y-63303390D01*
X124903809Y-63303390D02*
X124951428Y-63255771D01*
X124951428Y-63255771D02*
X125046666Y-63208152D01*
X125046666Y-63208152D02*
X125189523Y-63208152D01*
X125189523Y-63208152D02*
X125284761Y-63255771D01*
X125284761Y-63255771D02*
X125332380Y-63303390D01*
X125332380Y-63303390D02*
X125379999Y-63398628D01*
X125379999Y-63398628D02*
X125379999Y-63684342D01*
X125379999Y-63684342D02*
X125332380Y-63779580D01*
X125332380Y-63779580D02*
X125284761Y-63827200D01*
X125284761Y-63827200D02*
X125189523Y-63874819D01*
X125189523Y-63874819D02*
X125046666Y-63874819D01*
X126570476Y-63874819D02*
X126570476Y-62874819D01*
X126570476Y-62874819D02*
X127141904Y-63874819D01*
X127141904Y-63874819D02*
X127141904Y-62874819D01*
X128046666Y-63874819D02*
X128046666Y-63351009D01*
X128046666Y-63351009D02*
X127999047Y-63255771D01*
X127999047Y-63255771D02*
X127903809Y-63208152D01*
X127903809Y-63208152D02*
X127713333Y-63208152D01*
X127713333Y-63208152D02*
X127618095Y-63255771D01*
X128046666Y-63827200D02*
X127951428Y-63874819D01*
X127951428Y-63874819D02*
X127713333Y-63874819D01*
X127713333Y-63874819D02*
X127618095Y-63827200D01*
X127618095Y-63827200D02*
X127570476Y-63731961D01*
X127570476Y-63731961D02*
X127570476Y-63636723D01*
X127570476Y-63636723D02*
X127618095Y-63541485D01*
X127618095Y-63541485D02*
X127713333Y-63493866D01*
X127713333Y-63493866D02*
X127951428Y-63493866D01*
X127951428Y-63493866D02*
X128046666Y-63446247D01*
X128522857Y-63208152D02*
X128522857Y-63874819D01*
X128522857Y-63303390D02*
X128570476Y-63255771D01*
X128570476Y-63255771D02*
X128665714Y-63208152D01*
X128665714Y-63208152D02*
X128808571Y-63208152D01*
X128808571Y-63208152D02*
X128903809Y-63255771D01*
X128903809Y-63255771D02*
X128951428Y-63351009D01*
X128951428Y-63351009D02*
X128951428Y-63874819D01*
X129570476Y-63874819D02*
X129475238Y-63827200D01*
X129475238Y-63827200D02*
X129427619Y-63779580D01*
X129427619Y-63779580D02*
X129380000Y-63684342D01*
X129380000Y-63684342D02*
X129380000Y-63398628D01*
X129380000Y-63398628D02*
X129427619Y-63303390D01*
X129427619Y-63303390D02*
X129475238Y-63255771D01*
X129475238Y-63255771D02*
X129570476Y-63208152D01*
X129570476Y-63208152D02*
X129713333Y-63208152D01*
X129713333Y-63208152D02*
X129808571Y-63255771D01*
X129808571Y-63255771D02*
X129856190Y-63303390D01*
X129856190Y-63303390D02*
X129903809Y-63398628D01*
X129903809Y-63398628D02*
X129903809Y-63684342D01*
X129903809Y-63684342D02*
X129856190Y-63779580D01*
X129856190Y-63779580D02*
X129808571Y-63827200D01*
X129808571Y-63827200D02*
X129713333Y-63874819D01*
X129713333Y-63874819D02*
X129570476Y-63874819D01*
X131094286Y-63351009D02*
X131427619Y-63351009D01*
X131570476Y-63874819D02*
X131094286Y-63874819D01*
X131094286Y-63874819D02*
X131094286Y-62874819D01*
X131094286Y-62874819D02*
X131570476Y-62874819D01*
X131903810Y-63208152D02*
X132141905Y-63874819D01*
X132141905Y-63874819D02*
X132380000Y-63208152D01*
X133141905Y-63827200D02*
X133046667Y-63874819D01*
X133046667Y-63874819D02*
X132856191Y-63874819D01*
X132856191Y-63874819D02*
X132760953Y-63827200D01*
X132760953Y-63827200D02*
X132713334Y-63731961D01*
X132713334Y-63731961D02*
X132713334Y-63351009D01*
X132713334Y-63351009D02*
X132760953Y-63255771D01*
X132760953Y-63255771D02*
X132856191Y-63208152D01*
X132856191Y-63208152D02*
X133046667Y-63208152D01*
X133046667Y-63208152D02*
X133141905Y-63255771D01*
X133141905Y-63255771D02*
X133189524Y-63351009D01*
X133189524Y-63351009D02*
X133189524Y-63446247D01*
X133189524Y-63446247D02*
X132713334Y-63541485D01*
X133618096Y-63874819D02*
X133618096Y-63208152D01*
X133618096Y-63398628D02*
X133665715Y-63303390D01*
X133665715Y-63303390D02*
X133713334Y-63255771D01*
X133713334Y-63255771D02*
X133808572Y-63208152D01*
X133808572Y-63208152D02*
X133903810Y-63208152D01*
X134141906Y-63208152D02*
X134380001Y-63874819D01*
X134618096Y-63208152D02*
X134380001Y-63874819D01*
X134380001Y-63874819D02*
X134284763Y-64112914D01*
X134284763Y-64112914D02*
X134237144Y-64160533D01*
X134237144Y-64160533D02*
X134141906Y-64208152D01*
X126118095Y-103514819D02*
X126118095Y-104324342D01*
X126118095Y-104324342D02*
X126165714Y-104419580D01*
X126165714Y-104419580D02*
X126213333Y-104467200D01*
X126213333Y-104467200D02*
X126308571Y-104514819D01*
X126308571Y-104514819D02*
X126499047Y-104514819D01*
X126499047Y-104514819D02*
X126594285Y-104467200D01*
X126594285Y-104467200D02*
X126641904Y-104419580D01*
X126641904Y-104419580D02*
X126689523Y-104324342D01*
X126689523Y-104324342D02*
X126689523Y-103514819D01*
X127118095Y-104467200D02*
X127260952Y-104514819D01*
X127260952Y-104514819D02*
X127499047Y-104514819D01*
X127499047Y-104514819D02*
X127594285Y-104467200D01*
X127594285Y-104467200D02*
X127641904Y-104419580D01*
X127641904Y-104419580D02*
X127689523Y-104324342D01*
X127689523Y-104324342D02*
X127689523Y-104229104D01*
X127689523Y-104229104D02*
X127641904Y-104133866D01*
X127641904Y-104133866D02*
X127594285Y-104086247D01*
X127594285Y-104086247D02*
X127499047Y-104038628D01*
X127499047Y-104038628D02*
X127308571Y-103991009D01*
X127308571Y-103991009D02*
X127213333Y-103943390D01*
X127213333Y-103943390D02*
X127165714Y-103895771D01*
X127165714Y-103895771D02*
X127118095Y-103800533D01*
X127118095Y-103800533D02*
X127118095Y-103705295D01*
X127118095Y-103705295D02*
X127165714Y-103610057D01*
X127165714Y-103610057D02*
X127213333Y-103562438D01*
X127213333Y-103562438D02*
X127308571Y-103514819D01*
X127308571Y-103514819D02*
X127546666Y-103514819D01*
X127546666Y-103514819D02*
X127689523Y-103562438D01*
X128451428Y-103991009D02*
X128594285Y-104038628D01*
X128594285Y-104038628D02*
X128641904Y-104086247D01*
X128641904Y-104086247D02*
X128689523Y-104181485D01*
X128689523Y-104181485D02*
X128689523Y-104324342D01*
X128689523Y-104324342D02*
X128641904Y-104419580D01*
X128641904Y-104419580D02*
X128594285Y-104467200D01*
X128594285Y-104467200D02*
X128499047Y-104514819D01*
X128499047Y-104514819D02*
X128118095Y-104514819D01*
X128118095Y-104514819D02*
X128118095Y-103514819D01*
X128118095Y-103514819D02*
X128451428Y-103514819D01*
X128451428Y-103514819D02*
X128546666Y-103562438D01*
X128546666Y-103562438D02*
X128594285Y-103610057D01*
X128594285Y-103610057D02*
X128641904Y-103705295D01*
X128641904Y-103705295D02*
X128641904Y-103800533D01*
X128641904Y-103800533D02*
X128594285Y-103895771D01*
X128594285Y-103895771D02*
X128546666Y-103943390D01*
X128546666Y-103943390D02*
X128451428Y-103991009D01*
X128451428Y-103991009D02*
X128118095Y-103991009D01*
X123857143Y-57607319D02*
X123857143Y-56607319D01*
X123857143Y-56607319D02*
X124095238Y-56607319D01*
X124095238Y-56607319D02*
X124238095Y-56654938D01*
X124238095Y-56654938D02*
X124333333Y-56750176D01*
X124333333Y-56750176D02*
X124380952Y-56845414D01*
X124380952Y-56845414D02*
X124428571Y-57035890D01*
X124428571Y-57035890D02*
X124428571Y-57178747D01*
X124428571Y-57178747D02*
X124380952Y-57369223D01*
X124380952Y-57369223D02*
X124333333Y-57464461D01*
X124333333Y-57464461D02*
X124238095Y-57559700D01*
X124238095Y-57559700D02*
X124095238Y-57607319D01*
X124095238Y-57607319D02*
X123857143Y-57607319D01*
X124809524Y-57559700D02*
X124952381Y-57607319D01*
X124952381Y-57607319D02*
X125190476Y-57607319D01*
X125190476Y-57607319D02*
X125285714Y-57559700D01*
X125285714Y-57559700D02*
X125333333Y-57512080D01*
X125333333Y-57512080D02*
X125380952Y-57416842D01*
X125380952Y-57416842D02*
X125380952Y-57321604D01*
X125380952Y-57321604D02*
X125333333Y-57226366D01*
X125333333Y-57226366D02*
X125285714Y-57178747D01*
X125285714Y-57178747D02*
X125190476Y-57131128D01*
X125190476Y-57131128D02*
X125000000Y-57083509D01*
X125000000Y-57083509D02*
X124904762Y-57035890D01*
X124904762Y-57035890D02*
X124857143Y-56988271D01*
X124857143Y-56988271D02*
X124809524Y-56893033D01*
X124809524Y-56893033D02*
X124809524Y-56797795D01*
X124809524Y-56797795D02*
X124857143Y-56702557D01*
X124857143Y-56702557D02*
X124904762Y-56654938D01*
X124904762Y-56654938D02*
X125000000Y-56607319D01*
X125000000Y-56607319D02*
X125238095Y-56607319D01*
X125238095Y-56607319D02*
X125380952Y-56654938D01*
X126333333Y-57607319D02*
X125761905Y-57607319D01*
X126047619Y-57607319D02*
X126047619Y-56607319D01*
X126047619Y-56607319D02*
X125952381Y-56750176D01*
X125952381Y-56750176D02*
X125857143Y-56845414D01*
X125857143Y-56845414D02*
X125761905Y-56893033D01*
X126904762Y-57035890D02*
X126809524Y-56988271D01*
X126809524Y-56988271D02*
X126761905Y-56940652D01*
X126761905Y-56940652D02*
X126714286Y-56845414D01*
X126714286Y-56845414D02*
X126714286Y-56797795D01*
X126714286Y-56797795D02*
X126761905Y-56702557D01*
X126761905Y-56702557D02*
X126809524Y-56654938D01*
X126809524Y-56654938D02*
X126904762Y-56607319D01*
X126904762Y-56607319D02*
X127095238Y-56607319D01*
X127095238Y-56607319D02*
X127190476Y-56654938D01*
X127190476Y-56654938D02*
X127238095Y-56702557D01*
X127238095Y-56702557D02*
X127285714Y-56797795D01*
X127285714Y-56797795D02*
X127285714Y-56845414D01*
X127285714Y-56845414D02*
X127238095Y-56940652D01*
X127238095Y-56940652D02*
X127190476Y-56988271D01*
X127190476Y-56988271D02*
X127095238Y-57035890D01*
X127095238Y-57035890D02*
X126904762Y-57035890D01*
X126904762Y-57035890D02*
X126809524Y-57083509D01*
X126809524Y-57083509D02*
X126761905Y-57131128D01*
X126761905Y-57131128D02*
X126714286Y-57226366D01*
X126714286Y-57226366D02*
X126714286Y-57416842D01*
X126714286Y-57416842D02*
X126761905Y-57512080D01*
X126761905Y-57512080D02*
X126809524Y-57559700D01*
X126809524Y-57559700D02*
X126904762Y-57607319D01*
X126904762Y-57607319D02*
X127095238Y-57607319D01*
X127095238Y-57607319D02*
X127190476Y-57559700D01*
X127190476Y-57559700D02*
X127238095Y-57512080D01*
X127238095Y-57512080D02*
X127285714Y-57416842D01*
X127285714Y-57416842D02*
X127285714Y-57226366D01*
X127285714Y-57226366D02*
X127238095Y-57131128D01*
X127238095Y-57131128D02*
X127190476Y-57083509D01*
X127190476Y-57083509D02*
X127095238Y-57035890D01*
X128047619Y-57083509D02*
X128190476Y-57131128D01*
X128190476Y-57131128D02*
X128238095Y-57178747D01*
X128238095Y-57178747D02*
X128285714Y-57273985D01*
X128285714Y-57273985D02*
X128285714Y-57416842D01*
X128285714Y-57416842D02*
X128238095Y-57512080D01*
X128238095Y-57512080D02*
X128190476Y-57559700D01*
X128190476Y-57559700D02*
X128095238Y-57607319D01*
X128095238Y-57607319D02*
X127714286Y-57607319D01*
X127714286Y-57607319D02*
X127714286Y-56607319D01*
X127714286Y-56607319D02*
X128047619Y-56607319D01*
X128047619Y-56607319D02*
X128142857Y-56654938D01*
X128142857Y-56654938D02*
X128190476Y-56702557D01*
X128190476Y-56702557D02*
X128238095Y-56797795D01*
X128238095Y-56797795D02*
X128238095Y-56893033D01*
X128238095Y-56893033D02*
X128190476Y-56988271D01*
X128190476Y-56988271D02*
X128142857Y-57035890D01*
X128142857Y-57035890D02*
X128047619Y-57083509D01*
X128047619Y-57083509D02*
X127714286Y-57083509D01*
X128666667Y-56702557D02*
X128714286Y-56654938D01*
X128714286Y-56654938D02*
X128809524Y-56607319D01*
X128809524Y-56607319D02*
X129047619Y-56607319D01*
X129047619Y-56607319D02*
X129142857Y-56654938D01*
X129142857Y-56654938D02*
X129190476Y-56702557D01*
X129190476Y-56702557D02*
X129238095Y-56797795D01*
X129238095Y-56797795D02*
X129238095Y-56893033D01*
X129238095Y-56893033D02*
X129190476Y-57035890D01*
X129190476Y-57035890D02*
X128619048Y-57607319D01*
X128619048Y-57607319D02*
X129238095Y-57607319D01*
X129857143Y-56607319D02*
X129952381Y-56607319D01*
X129952381Y-56607319D02*
X130047619Y-56654938D01*
X130047619Y-56654938D02*
X130095238Y-56702557D01*
X130095238Y-56702557D02*
X130142857Y-56797795D01*
X130142857Y-56797795D02*
X130190476Y-56988271D01*
X130190476Y-56988271D02*
X130190476Y-57226366D01*
X130190476Y-57226366D02*
X130142857Y-57416842D01*
X130142857Y-57416842D02*
X130095238Y-57512080D01*
X130095238Y-57512080D02*
X130047619Y-57559700D01*
X130047619Y-57559700D02*
X129952381Y-57607319D01*
X129952381Y-57607319D02*
X129857143Y-57607319D01*
X129857143Y-57607319D02*
X129761905Y-57559700D01*
X129761905Y-57559700D02*
X129714286Y-57512080D01*
X129714286Y-57512080D02*
X129666667Y-57416842D01*
X129666667Y-57416842D02*
X129619048Y-57226366D01*
X129619048Y-57226366D02*
X129619048Y-56988271D01*
X129619048Y-56988271D02*
X129666667Y-56797795D01*
X129666667Y-56797795D02*
X129714286Y-56702557D01*
X129714286Y-56702557D02*
X129761905Y-56654938D01*
X129761905Y-56654938D02*
X129857143Y-56607319D01*
X113563333Y-79674819D02*
X113230000Y-79198628D01*
X112991905Y-79674819D02*
X112991905Y-78674819D01*
X112991905Y-78674819D02*
X113372857Y-78674819D01*
X113372857Y-78674819D02*
X113468095Y-78722438D01*
X113468095Y-78722438D02*
X113515714Y-78770057D01*
X113515714Y-78770057D02*
X113563333Y-78865295D01*
X113563333Y-78865295D02*
X113563333Y-79008152D01*
X113563333Y-79008152D02*
X113515714Y-79103390D01*
X113515714Y-79103390D02*
X113468095Y-79151009D01*
X113468095Y-79151009D02*
X113372857Y-79198628D01*
X113372857Y-79198628D02*
X112991905Y-79198628D01*
X113944286Y-78770057D02*
X113991905Y-78722438D01*
X113991905Y-78722438D02*
X114087143Y-78674819D01*
X114087143Y-78674819D02*
X114325238Y-78674819D01*
X114325238Y-78674819D02*
X114420476Y-78722438D01*
X114420476Y-78722438D02*
X114468095Y-78770057D01*
X114468095Y-78770057D02*
X114515714Y-78865295D01*
X114515714Y-78865295D02*
X114515714Y-78960533D01*
X114515714Y-78960533D02*
X114468095Y-79103390D01*
X114468095Y-79103390D02*
X113896667Y-79674819D01*
X113896667Y-79674819D02*
X114515714Y-79674819D01*
X113563333Y-73174819D02*
X113230000Y-72698628D01*
X112991905Y-73174819D02*
X112991905Y-72174819D01*
X112991905Y-72174819D02*
X113372857Y-72174819D01*
X113372857Y-72174819D02*
X113468095Y-72222438D01*
X113468095Y-72222438D02*
X113515714Y-72270057D01*
X113515714Y-72270057D02*
X113563333Y-72365295D01*
X113563333Y-72365295D02*
X113563333Y-72508152D01*
X113563333Y-72508152D02*
X113515714Y-72603390D01*
X113515714Y-72603390D02*
X113468095Y-72651009D01*
X113468095Y-72651009D02*
X113372857Y-72698628D01*
X113372857Y-72698628D02*
X112991905Y-72698628D01*
X114515714Y-73174819D02*
X113944286Y-73174819D01*
X114230000Y-73174819D02*
X114230000Y-72174819D01*
X114230000Y-72174819D02*
X114134762Y-72317676D01*
X114134762Y-72317676D02*
X114039524Y-72412914D01*
X114039524Y-72412914D02*
X113944286Y-72460533D01*
X105491905Y-64494819D02*
X105491905Y-63494819D01*
X105491905Y-63494819D02*
X105730000Y-63494819D01*
X105730000Y-63494819D02*
X105872857Y-63542438D01*
X105872857Y-63542438D02*
X105968095Y-63637676D01*
X105968095Y-63637676D02*
X106015714Y-63732914D01*
X106015714Y-63732914D02*
X106063333Y-63923390D01*
X106063333Y-63923390D02*
X106063333Y-64066247D01*
X106063333Y-64066247D02*
X106015714Y-64256723D01*
X106015714Y-64256723D02*
X105968095Y-64351961D01*
X105968095Y-64351961D02*
X105872857Y-64447200D01*
X105872857Y-64447200D02*
X105730000Y-64494819D01*
X105730000Y-64494819D02*
X105491905Y-64494819D01*
X106444286Y-63590057D02*
X106491905Y-63542438D01*
X106491905Y-63542438D02*
X106587143Y-63494819D01*
X106587143Y-63494819D02*
X106825238Y-63494819D01*
X106825238Y-63494819D02*
X106920476Y-63542438D01*
X106920476Y-63542438D02*
X106968095Y-63590057D01*
X106968095Y-63590057D02*
X107015714Y-63685295D01*
X107015714Y-63685295D02*
X107015714Y-63780533D01*
X107015714Y-63780533D02*
X106968095Y-63923390D01*
X106968095Y-63923390D02*
X106396667Y-64494819D01*
X106396667Y-64494819D02*
X107015714Y-64494819D01*
X113563333Y-92674819D02*
X113230000Y-92198628D01*
X112991905Y-92674819D02*
X112991905Y-91674819D01*
X112991905Y-91674819D02*
X113372857Y-91674819D01*
X113372857Y-91674819D02*
X113468095Y-91722438D01*
X113468095Y-91722438D02*
X113515714Y-91770057D01*
X113515714Y-91770057D02*
X113563333Y-91865295D01*
X113563333Y-91865295D02*
X113563333Y-92008152D01*
X113563333Y-92008152D02*
X113515714Y-92103390D01*
X113515714Y-92103390D02*
X113468095Y-92151009D01*
X113468095Y-92151009D02*
X113372857Y-92198628D01*
X113372857Y-92198628D02*
X112991905Y-92198628D01*
X114420476Y-92008152D02*
X114420476Y-92674819D01*
X114182381Y-91627200D02*
X113944286Y-92341485D01*
X113944286Y-92341485D02*
X114563333Y-92341485D01*
D10*
X149467580Y-99923884D02*
X150467580Y-99923884D01*
X149467580Y-100400074D02*
X150467580Y-100400074D01*
X150467580Y-100400074D02*
X149467580Y-100971502D01*
X149467580Y-100971502D02*
X150467580Y-100971502D01*
X150467580Y-101304836D02*
X150467580Y-101876264D01*
X149467580Y-101590550D02*
X150467580Y-101590550D01*
X150372342Y-102161979D02*
X150419961Y-102209598D01*
X150419961Y-102209598D02*
X150467580Y-102304836D01*
X150467580Y-102304836D02*
X150467580Y-102542931D01*
X150467580Y-102542931D02*
X150419961Y-102638169D01*
X150419961Y-102638169D02*
X150372342Y-102685788D01*
X150372342Y-102685788D02*
X150277104Y-102733407D01*
X150277104Y-102733407D02*
X150181866Y-102733407D01*
X150181866Y-102733407D02*
X150039009Y-102685788D01*
X150039009Y-102685788D02*
X149467580Y-102114360D01*
X149467580Y-102114360D02*
X149467580Y-102733407D01*
X157967580Y-99781027D02*
X156967580Y-100114360D01*
X156967580Y-100114360D02*
X157967580Y-100447693D01*
X157062819Y-101352455D02*
X157015200Y-101304836D01*
X157015200Y-101304836D02*
X156967580Y-101161979D01*
X156967580Y-101161979D02*
X156967580Y-101066741D01*
X156967580Y-101066741D02*
X157015200Y-100923884D01*
X157015200Y-100923884D02*
X157110438Y-100828646D01*
X157110438Y-100828646D02*
X157205676Y-100781027D01*
X157205676Y-100781027D02*
X157396152Y-100733408D01*
X157396152Y-100733408D02*
X157539009Y-100733408D01*
X157539009Y-100733408D02*
X157729485Y-100781027D01*
X157729485Y-100781027D02*
X157824723Y-100828646D01*
X157824723Y-100828646D02*
X157919961Y-100923884D01*
X157919961Y-100923884D02*
X157967580Y-101066741D01*
X157967580Y-101066741D02*
X157967580Y-101161979D01*
X157967580Y-101161979D02*
X157919961Y-101304836D01*
X157919961Y-101304836D02*
X157872342Y-101352455D01*
X157062819Y-102352455D02*
X157015200Y-102304836D01*
X157015200Y-102304836D02*
X156967580Y-102161979D01*
X156967580Y-102161979D02*
X156967580Y-102066741D01*
X156967580Y-102066741D02*
X157015200Y-101923884D01*
X157015200Y-101923884D02*
X157110438Y-101828646D01*
X157110438Y-101828646D02*
X157205676Y-101781027D01*
X157205676Y-101781027D02*
X157396152Y-101733408D01*
X157396152Y-101733408D02*
X157539009Y-101733408D01*
X157539009Y-101733408D02*
X157729485Y-101781027D01*
X157729485Y-101781027D02*
X157824723Y-101828646D01*
X157824723Y-101828646D02*
X157919961Y-101923884D01*
X157919961Y-101923884D02*
X157967580Y-102066741D01*
X157967580Y-102066741D02*
X157967580Y-102161979D01*
X157967580Y-102161979D02*
X157919961Y-102304836D01*
X157919961Y-102304836D02*
X157872342Y-102352455D01*
X160419961Y-100447693D02*
X160467580Y-100352455D01*
X160467580Y-100352455D02*
X160467580Y-100209598D01*
X160467580Y-100209598D02*
X160419961Y-100066741D01*
X160419961Y-100066741D02*
X160324723Y-99971503D01*
X160324723Y-99971503D02*
X160229485Y-99923884D01*
X160229485Y-99923884D02*
X160039009Y-99876265D01*
X160039009Y-99876265D02*
X159896152Y-99876265D01*
X159896152Y-99876265D02*
X159705676Y-99923884D01*
X159705676Y-99923884D02*
X159610438Y-99971503D01*
X159610438Y-99971503D02*
X159515200Y-100066741D01*
X159515200Y-100066741D02*
X159467580Y-100209598D01*
X159467580Y-100209598D02*
X159467580Y-100304836D01*
X159467580Y-100304836D02*
X159515200Y-100447693D01*
X159515200Y-100447693D02*
X159562819Y-100495312D01*
X159562819Y-100495312D02*
X159896152Y-100495312D01*
X159896152Y-100495312D02*
X159896152Y-100304836D01*
X159467580Y-100923884D02*
X160467580Y-100923884D01*
X160467580Y-100923884D02*
X159467580Y-101495312D01*
X159467580Y-101495312D02*
X160467580Y-101495312D01*
X159467580Y-101971503D02*
X160467580Y-101971503D01*
X160467580Y-101971503D02*
X160467580Y-102209598D01*
X160467580Y-102209598D02*
X160419961Y-102352455D01*
X160419961Y-102352455D02*
X160324723Y-102447693D01*
X160324723Y-102447693D02*
X160229485Y-102495312D01*
X160229485Y-102495312D02*
X160039009Y-102542931D01*
X160039009Y-102542931D02*
X159896152Y-102542931D01*
X159896152Y-102542931D02*
X159705676Y-102495312D01*
X159705676Y-102495312D02*
X159610438Y-102447693D01*
X159610438Y-102447693D02*
X159515200Y-102352455D01*
X159515200Y-102352455D02*
X159467580Y-102209598D01*
X159467580Y-102209598D02*
X159467580Y-101971503D01*
X144015200Y-99876265D02*
X143967580Y-100019122D01*
X143967580Y-100019122D02*
X143967580Y-100257217D01*
X143967580Y-100257217D02*
X144015200Y-100352455D01*
X144015200Y-100352455D02*
X144062819Y-100400074D01*
X144062819Y-100400074D02*
X144158057Y-100447693D01*
X144158057Y-100447693D02*
X144253295Y-100447693D01*
X144253295Y-100447693D02*
X144348533Y-100400074D01*
X144348533Y-100400074D02*
X144396152Y-100352455D01*
X144396152Y-100352455D02*
X144443771Y-100257217D01*
X144443771Y-100257217D02*
X144491390Y-100066741D01*
X144491390Y-100066741D02*
X144539009Y-99971503D01*
X144539009Y-99971503D02*
X144586628Y-99923884D01*
X144586628Y-99923884D02*
X144681866Y-99876265D01*
X144681866Y-99876265D02*
X144777104Y-99876265D01*
X144777104Y-99876265D02*
X144872342Y-99923884D01*
X144872342Y-99923884D02*
X144919961Y-99971503D01*
X144919961Y-99971503D02*
X144967580Y-100066741D01*
X144967580Y-100066741D02*
X144967580Y-100304836D01*
X144967580Y-100304836D02*
X144919961Y-100447693D01*
X143967580Y-100876265D02*
X144967580Y-100876265D01*
X144967580Y-100876265D02*
X144967580Y-101114360D01*
X144967580Y-101114360D02*
X144919961Y-101257217D01*
X144919961Y-101257217D02*
X144824723Y-101352455D01*
X144824723Y-101352455D02*
X144729485Y-101400074D01*
X144729485Y-101400074D02*
X144539009Y-101447693D01*
X144539009Y-101447693D02*
X144396152Y-101447693D01*
X144396152Y-101447693D02*
X144205676Y-101400074D01*
X144205676Y-101400074D02*
X144110438Y-101352455D01*
X144110438Y-101352455D02*
X144015200Y-101257217D01*
X144015200Y-101257217D02*
X143967580Y-101114360D01*
X143967580Y-101114360D02*
X143967580Y-100876265D01*
X144253295Y-101828646D02*
X144253295Y-102304836D01*
X143967580Y-101733408D02*
X144967580Y-102066741D01*
X144967580Y-102066741D02*
X143967580Y-102400074D01*
X151967580Y-99923884D02*
X152967580Y-99923884D01*
X151967580Y-100400074D02*
X152967580Y-100400074D01*
X152967580Y-100400074D02*
X151967580Y-100971502D01*
X151967580Y-100971502D02*
X152967580Y-100971502D01*
X152967580Y-101304836D02*
X152967580Y-101876264D01*
X151967580Y-101590550D02*
X152967580Y-101590550D01*
X151967580Y-102733407D02*
X151967580Y-102161979D01*
X151967580Y-102447693D02*
X152967580Y-102447693D01*
X152967580Y-102447693D02*
X152824723Y-102352455D01*
X152824723Y-102352455D02*
X152729485Y-102257217D01*
X152729485Y-102257217D02*
X152681866Y-102161979D01*
X146515200Y-99876265D02*
X146467580Y-100019122D01*
X146467580Y-100019122D02*
X146467580Y-100257217D01*
X146467580Y-100257217D02*
X146515200Y-100352455D01*
X146515200Y-100352455D02*
X146562819Y-100400074D01*
X146562819Y-100400074D02*
X146658057Y-100447693D01*
X146658057Y-100447693D02*
X146753295Y-100447693D01*
X146753295Y-100447693D02*
X146848533Y-100400074D01*
X146848533Y-100400074D02*
X146896152Y-100352455D01*
X146896152Y-100352455D02*
X146943771Y-100257217D01*
X146943771Y-100257217D02*
X146991390Y-100066741D01*
X146991390Y-100066741D02*
X147039009Y-99971503D01*
X147039009Y-99971503D02*
X147086628Y-99923884D01*
X147086628Y-99923884D02*
X147181866Y-99876265D01*
X147181866Y-99876265D02*
X147277104Y-99876265D01*
X147277104Y-99876265D02*
X147372342Y-99923884D01*
X147372342Y-99923884D02*
X147419961Y-99971503D01*
X147419961Y-99971503D02*
X147467580Y-100066741D01*
X147467580Y-100066741D02*
X147467580Y-100304836D01*
X147467580Y-100304836D02*
X147419961Y-100447693D01*
X146467580Y-100876265D02*
X147467580Y-100876265D01*
X147467580Y-100876265D02*
X147467580Y-101114360D01*
X147467580Y-101114360D02*
X147419961Y-101257217D01*
X147419961Y-101257217D02*
X147324723Y-101352455D01*
X147324723Y-101352455D02*
X147229485Y-101400074D01*
X147229485Y-101400074D02*
X147039009Y-101447693D01*
X147039009Y-101447693D02*
X146896152Y-101447693D01*
X146896152Y-101447693D02*
X146705676Y-101400074D01*
X146705676Y-101400074D02*
X146610438Y-101352455D01*
X146610438Y-101352455D02*
X146515200Y-101257217D01*
X146515200Y-101257217D02*
X146467580Y-101114360D01*
X146467580Y-101114360D02*
X146467580Y-100876265D01*
X147467580Y-102066741D02*
X147467580Y-102257217D01*
X147467580Y-102257217D02*
X147419961Y-102352455D01*
X147419961Y-102352455D02*
X147324723Y-102447693D01*
X147324723Y-102447693D02*
X147134247Y-102495312D01*
X147134247Y-102495312D02*
X146800914Y-102495312D01*
X146800914Y-102495312D02*
X146610438Y-102447693D01*
X146610438Y-102447693D02*
X146515200Y-102352455D01*
X146515200Y-102352455D02*
X146467580Y-102257217D01*
X146467580Y-102257217D02*
X146467580Y-102066741D01*
X146467580Y-102066741D02*
X146515200Y-101971503D01*
X146515200Y-101971503D02*
X146610438Y-101876265D01*
X146610438Y-101876265D02*
X146800914Y-101828646D01*
X146800914Y-101828646D02*
X147134247Y-101828646D01*
X147134247Y-101828646D02*
X147324723Y-101876265D01*
X147324723Y-101876265D02*
X147419961Y-101971503D01*
X147419961Y-101971503D02*
X147467580Y-102066741D01*
X154562819Y-100495312D02*
X154515200Y-100447693D01*
X154515200Y-100447693D02*
X154467580Y-100304836D01*
X154467580Y-100304836D02*
X154467580Y-100209598D01*
X154467580Y-100209598D02*
X154515200Y-100066741D01*
X154515200Y-100066741D02*
X154610438Y-99971503D01*
X154610438Y-99971503D02*
X154705676Y-99923884D01*
X154705676Y-99923884D02*
X154896152Y-99876265D01*
X154896152Y-99876265D02*
X155039009Y-99876265D01*
X155039009Y-99876265D02*
X155229485Y-99923884D01*
X155229485Y-99923884D02*
X155324723Y-99971503D01*
X155324723Y-99971503D02*
X155419961Y-100066741D01*
X155419961Y-100066741D02*
X155467580Y-100209598D01*
X155467580Y-100209598D02*
X155467580Y-100304836D01*
X155467580Y-100304836D02*
X155419961Y-100447693D01*
X155419961Y-100447693D02*
X155372342Y-100495312D01*
X154515200Y-100876265D02*
X154467580Y-101019122D01*
X154467580Y-101019122D02*
X154467580Y-101257217D01*
X154467580Y-101257217D02*
X154515200Y-101352455D01*
X154515200Y-101352455D02*
X154562819Y-101400074D01*
X154562819Y-101400074D02*
X154658057Y-101447693D01*
X154658057Y-101447693D02*
X154753295Y-101447693D01*
X154753295Y-101447693D02*
X154848533Y-101400074D01*
X154848533Y-101400074D02*
X154896152Y-101352455D01*
X154896152Y-101352455D02*
X154943771Y-101257217D01*
X154943771Y-101257217D02*
X154991390Y-101066741D01*
X154991390Y-101066741D02*
X155039009Y-100971503D01*
X155039009Y-100971503D02*
X155086628Y-100923884D01*
X155086628Y-100923884D02*
X155181866Y-100876265D01*
X155181866Y-100876265D02*
X155277104Y-100876265D01*
X155277104Y-100876265D02*
X155372342Y-100923884D01*
X155372342Y-100923884D02*
X155419961Y-100971503D01*
X155419961Y-100971503D02*
X155467580Y-101066741D01*
X155467580Y-101066741D02*
X155467580Y-101304836D01*
X155467580Y-101304836D02*
X155419961Y-101447693D01*
X141515200Y-99876265D02*
X141467580Y-100019122D01*
X141467580Y-100019122D02*
X141467580Y-100257217D01*
X141467580Y-100257217D02*
X141515200Y-100352455D01*
X141515200Y-100352455D02*
X141562819Y-100400074D01*
X141562819Y-100400074D02*
X141658057Y-100447693D01*
X141658057Y-100447693D02*
X141753295Y-100447693D01*
X141753295Y-100447693D02*
X141848533Y-100400074D01*
X141848533Y-100400074D02*
X141896152Y-100352455D01*
X141896152Y-100352455D02*
X141943771Y-100257217D01*
X141943771Y-100257217D02*
X141991390Y-100066741D01*
X141991390Y-100066741D02*
X142039009Y-99971503D01*
X142039009Y-99971503D02*
X142086628Y-99923884D01*
X142086628Y-99923884D02*
X142181866Y-99876265D01*
X142181866Y-99876265D02*
X142277104Y-99876265D01*
X142277104Y-99876265D02*
X142372342Y-99923884D01*
X142372342Y-99923884D02*
X142419961Y-99971503D01*
X142419961Y-99971503D02*
X142467580Y-100066741D01*
X142467580Y-100066741D02*
X142467580Y-100304836D01*
X142467580Y-100304836D02*
X142419961Y-100447693D01*
X141562819Y-101447693D02*
X141515200Y-101400074D01*
X141515200Y-101400074D02*
X141467580Y-101257217D01*
X141467580Y-101257217D02*
X141467580Y-101161979D01*
X141467580Y-101161979D02*
X141515200Y-101019122D01*
X141515200Y-101019122D02*
X141610438Y-100923884D01*
X141610438Y-100923884D02*
X141705676Y-100876265D01*
X141705676Y-100876265D02*
X141896152Y-100828646D01*
X141896152Y-100828646D02*
X142039009Y-100828646D01*
X142039009Y-100828646D02*
X142229485Y-100876265D01*
X142229485Y-100876265D02*
X142324723Y-100923884D01*
X142324723Y-100923884D02*
X142419961Y-101019122D01*
X142419961Y-101019122D02*
X142467580Y-101161979D01*
X142467580Y-101161979D02*
X142467580Y-101257217D01*
X142467580Y-101257217D02*
X142419961Y-101400074D01*
X142419961Y-101400074D02*
X142372342Y-101447693D01*
X141467580Y-102352455D02*
X141467580Y-101876265D01*
X141467580Y-101876265D02*
X142467580Y-101876265D01*
D11*
X106681009Y-77154761D02*
X106728628Y-77011904D01*
X106728628Y-77011904D02*
X106776247Y-76964285D01*
X106776247Y-76964285D02*
X106871485Y-76916666D01*
X106871485Y-76916666D02*
X107014342Y-76916666D01*
X107014342Y-76916666D02*
X107109580Y-76964285D01*
X107109580Y-76964285D02*
X107157200Y-77011904D01*
X107157200Y-77011904D02*
X107204819Y-77107142D01*
X107204819Y-77107142D02*
X107204819Y-77488094D01*
X107204819Y-77488094D02*
X106204819Y-77488094D01*
X106204819Y-77488094D02*
X106204819Y-77154761D01*
X106204819Y-77154761D02*
X106252438Y-77059523D01*
X106252438Y-77059523D02*
X106300057Y-77011904D01*
X106300057Y-77011904D02*
X106395295Y-76964285D01*
X106395295Y-76964285D02*
X106490533Y-76964285D01*
X106490533Y-76964285D02*
X106585771Y-77011904D01*
X106585771Y-77011904D02*
X106633390Y-77059523D01*
X106633390Y-77059523D02*
X106681009Y-77154761D01*
X106681009Y-77154761D02*
X106681009Y-77488094D01*
X107204819Y-75964285D02*
X107204819Y-76535713D01*
X107204819Y-76249999D02*
X106204819Y-76249999D01*
X106204819Y-76249999D02*
X106347676Y-76345237D01*
X106347676Y-76345237D02*
X106442914Y-76440475D01*
X106442914Y-76440475D02*
X106490533Y-76535713D01*
D12*
%TO.C,O*%
X104170000Y-98955000D02*
X104170000Y-102045000D01*
X104170000Y-98955170D02*
G75*
G02*
X109720000Y-100500000I2560000J-1544830D01*
G01*
X109720000Y-100500000D02*
G75*
G02*
X104170000Y-102044830I-2990000J0D01*
G01*
X109230000Y-100500000D02*
G75*
G02*
X104230000Y-100500000I-2500000J0D01*
G01*
X104230000Y-100500000D02*
G75*
G02*
X109230000Y-100500000I2500000J0D01*
G01*
D10*
%TO.C,BME280*%
X139000000Y-69330804D02*
X165000000Y-69330804D01*
X139000000Y-95330804D02*
X139000000Y-69330804D01*
X165000000Y-69330804D02*
X165000000Y-95330804D01*
X165000000Y-95330804D02*
X139000000Y-95330804D01*
X139000000Y-95330804D02*
X165000000Y-95330804D01*
X165000000Y-69330804D01*
X139000000Y-69330804D01*
X139000000Y-95330804D01*
D12*
%TO.C,VIN*%
X102630000Y-48612500D02*
X109950000Y-48612500D01*
X102630000Y-56652500D02*
X102630000Y-48612500D01*
X103438000Y-52032500D02*
X102630000Y-52032500D01*
X103438000Y-53032500D02*
X102630000Y-53032500D01*
X104707000Y-50732500D02*
X102630000Y-50732500D01*
X108370000Y-50732500D02*
X105793000Y-50732500D01*
X108370000Y-52032500D02*
X107062000Y-52032500D01*
X108370000Y-53032500D02*
X107062000Y-53032500D01*
X110550000Y-48612500D02*
X113370000Y-48612500D01*
X113370000Y-48612500D02*
X113370000Y-56652500D01*
X113370000Y-50732500D02*
X112130000Y-50732500D01*
X113370000Y-52032500D02*
X112130000Y-52032500D01*
X113370000Y-53032500D02*
X112130000Y-53032500D01*
X113370000Y-56652500D02*
X102630000Y-56652500D01*
X110250000Y-48612500D02*
X109810000Y-48002500D01*
X110690000Y-48002500D01*
X110250000Y-48612500D01*
G36*
X110250000Y-48612500D02*
G01*
X109810000Y-48002500D01*
X110690000Y-48002500D01*
X110250000Y-48612500D01*
G37*
D10*
%TO.C,U3*%
X139000000Y-47000000D02*
X167000000Y-47000000D01*
X139000000Y-68000000D02*
X139000000Y-47000000D01*
X167000000Y-47000000D02*
X167000000Y-68000000D01*
X167000000Y-68000000D02*
X139000000Y-68000000D01*
X167000000Y-47000000D02*
X139000000Y-47000000D01*
X139000000Y-68000000D01*
X167000000Y-68000000D01*
X167000000Y-47000000D01*
D12*
%TO.C,R3*%
X113546728Y-82080000D02*
G75*
G02*
X113546728Y-83920000I1453272J-920000D01*
G01*
%TO.C,B2*%
X104170000Y-108455000D02*
X104170000Y-111545000D01*
X104170000Y-108455170D02*
G75*
G02*
X109720000Y-110000000I2560000J-1544830D01*
G01*
X109720000Y-110000000D02*
G75*
G02*
X104170000Y-111544830I-2990000J0D01*
G01*
X109230000Y-110000000D02*
G75*
G02*
X104230000Y-110000000I-2500000J0D01*
G01*
X104230000Y-110000000D02*
G75*
G02*
X109230000Y-110000000I2500000J0D01*
G01*
%TO.C,Y*%
X104170000Y-89455000D02*
X104170000Y-92545000D01*
X104170000Y-89455170D02*
G75*
G02*
X109720000Y-91000000I2560000J-1544830D01*
G01*
X109720000Y-91000000D02*
G75*
G02*
X104170000Y-92544830I-2990000J0D01*
G01*
X109230000Y-91000000D02*
G75*
G02*
X104230000Y-91000000I-2500000J0D01*
G01*
X104230000Y-91000000D02*
G75*
G02*
X109230000Y-91000000I2500000J0D01*
G01*
%TO.C,R5*%
X113546728Y-95080000D02*
G75*
G02*
X113546728Y-96920000I1453272J-920000D01*
G01*
%TO.C,R6*%
X113546728Y-101580000D02*
G75*
G02*
X113546728Y-103420000I1453272J-920000D01*
G01*
%TO.C,R*%
X104170000Y-60955000D02*
X104170000Y-64045000D01*
X104170000Y-60955170D02*
G75*
G02*
X109720000Y-62500000I2560000J-1544830D01*
G01*
X109720000Y-62500000D02*
G75*
G02*
X104170000Y-64044830I-2990000J0D01*
G01*
X109230000Y-62500000D02*
G75*
G02*
X104230000Y-62500000I-2500000J0D01*
G01*
X104230000Y-62500000D02*
G75*
G02*
X109230000Y-62500000I2500000J0D01*
G01*
%TO.C,Arduino Nano Every*%
X118360000Y-64560000D02*
X118360000Y-67230000D01*
X118360000Y-69770000D02*
X118360000Y-108000000D01*
X118360000Y-108000000D02*
X123440000Y-108000000D01*
X121030000Y-67230000D02*
X118360000Y-67230000D01*
X121030000Y-69770000D02*
X118360000Y-69770000D01*
X121030000Y-69770000D02*
X121030000Y-67230000D01*
X121030000Y-69770000D02*
X121030000Y-105330000D01*
X121030000Y-105330000D02*
X118360000Y-105330000D01*
X123440000Y-100120000D02*
X131320000Y-100120000D01*
X123440000Y-110540000D02*
X123440000Y-100120000D01*
X131320000Y-100120000D02*
X131320000Y-110540000D01*
X131320000Y-110540000D02*
X123440000Y-110540000D01*
X133730000Y-67230000D02*
X133730000Y-105330000D01*
X133730000Y-67230000D02*
X136400000Y-67230000D01*
X133730000Y-105330000D02*
X136400000Y-105330000D01*
X136400000Y-64560000D02*
X118360000Y-64560000D01*
X136400000Y-108000000D02*
X131320000Y-108000000D01*
X136400000Y-108000000D02*
X136400000Y-64560000D01*
%TO.C,DS18B20*%
X119130000Y-48112500D02*
X131450000Y-48112500D01*
X119130000Y-56152500D02*
X119130000Y-48112500D01*
X119938000Y-51532500D02*
X119130000Y-51532500D01*
X119938000Y-52532500D02*
X119130000Y-52532500D01*
X121207000Y-50232500D02*
X119130000Y-50232500D01*
X124938000Y-51532500D02*
X123562000Y-51532500D01*
X124938000Y-52532500D02*
X123562000Y-52532500D01*
X126207000Y-50232500D02*
X122293000Y-50232500D01*
X129870000Y-50232500D02*
X127293000Y-50232500D01*
X129870000Y-51532500D02*
X128562000Y-51532500D01*
X129870000Y-52532500D02*
X128562000Y-52532500D01*
X132050000Y-48112500D02*
X134870000Y-48112500D01*
X134870000Y-48112500D02*
X134870000Y-56152500D01*
X134870000Y-50232500D02*
X133630000Y-50232500D01*
X134870000Y-51532500D02*
X133630000Y-51532500D01*
X134870000Y-52532500D02*
X133630000Y-52532500D01*
X134870000Y-56152500D02*
X119130000Y-56152500D01*
X131750000Y-48112500D02*
X131310000Y-47502500D01*
X132190000Y-47502500D01*
X131750000Y-48112500D01*
G36*
X131750000Y-48112500D02*
G01*
X131310000Y-47502500D01*
X132190000Y-47502500D01*
X131750000Y-48112500D01*
G37*
%TO.C,R2*%
X113546728Y-75580000D02*
G75*
G02*
X113546728Y-77420000I1453272J-920000D01*
G01*
%TO.C,R1*%
X113546728Y-69080000D02*
G75*
G02*
X113546728Y-70920000I1453272J-920000D01*
G01*
%TO.C,D2*%
X104170000Y-70455000D02*
X104170000Y-73545000D01*
X104170000Y-70455170D02*
G75*
G02*
X109720000Y-72000000I2560000J-1544830D01*
G01*
X109720000Y-72000000D02*
G75*
G02*
X104170000Y-73544830I-2990000J0D01*
G01*
X109230000Y-72000000D02*
G75*
G02*
X104230000Y-72000000I-2500000J0D01*
G01*
X104230000Y-72000000D02*
G75*
G02*
X109230000Y-72000000I2500000J0D01*
G01*
%TO.C,R4*%
X113546728Y-88580000D02*
G75*
G02*
X113546728Y-90420000I1453272J-920000D01*
G01*
D10*
%TO.C,U2*%
X139000000Y-96500000D02*
X163000000Y-96500000D01*
X139000000Y-113500000D02*
X139000000Y-96500000D01*
X163000000Y-96500000D02*
X163000000Y-113500000D01*
X163000000Y-113500000D02*
X139000000Y-113500000D01*
X163000000Y-96500000D02*
X139000000Y-96500000D01*
X139000000Y-113500000D01*
X163000000Y-113500000D01*
X163000000Y-96500000D01*
D12*
%TO.C,B1*%
X104170000Y-79955000D02*
X104170000Y-83045000D01*
X104170000Y-79955170D02*
G75*
G02*
X109720000Y-81500000I2560000J-1544830D01*
G01*
X109720000Y-81500000D02*
G75*
G02*
X104170000Y-83044830I-2990000J0D01*
G01*
X109230000Y-81500000D02*
G75*
G02*
X104230000Y-81500000I-2500000J0D01*
G01*
X104230000Y-81500000D02*
G75*
G02*
X109230000Y-81500000I2500000J0D01*
G01*
%TD*%
M02*
