M48
; DRILL file {KiCad 9.0.7} date 2026-03-12T15:36:50-0600
; FORMAT={-:-/ absolute / metric / decimal}
; #@! TF.CreationDate,2026-03-12T15:36:50-06:00
; #@! TF.GenerationSoftware,Kicad,Pcbnew,9.0.7
; #@! TF.FileFunction,Plated,1,2,PTH
FMAT,2
METRIC
; #@! TA.AperFunction,Plated,PTH,ComponentDrill
T1C0.800
; #@! TA.AperFunction,Plated,PTH,ComponentDrill
T2C0.900
; #@! TA.AperFunction,Plated,PTH,ComponentDrill
T3C1.000
; #@! TA.AperFunction,Plated,PTH,ComponentDrill
T4C1.300
%
G90
G05
T1
X112.46Y-70.0
X112.46Y-76.5
X112.46Y-83.0
X112.46Y-89.5
X112.46Y-96.0
X112.46Y-102.5
X115.0Y-70.0
X115.0Y-76.5
X115.0Y-83.0
X115.0Y-89.5
X115.0Y-96.0
X115.0Y-102.5
T2
X105.46Y-62.5
X105.46Y-72.0
X105.46Y-81.5
X105.46Y-91.0
X105.46Y-100.5
X105.46Y-110.0
X108.0Y-62.5
X108.0Y-72.0
X108.0Y-81.5
X108.0Y-91.0
X108.0Y-100.5
X108.0Y-110.0
T3
X119.76Y-68.5
X119.76Y-71.04
X119.76Y-73.58
X119.76Y-76.12
X119.76Y-78.66
X119.76Y-81.2
X119.76Y-83.74
X119.76Y-86.28
X119.76Y-88.82
X119.76Y-91.36
X119.76Y-93.9
X119.76Y-96.44
X119.76Y-98.98
X119.76Y-101.52
X119.76Y-104.06
X135.0Y-68.5
X135.0Y-71.04
X135.0Y-73.58
X135.0Y-76.12
X135.0Y-78.66
X135.0Y-81.2
X135.0Y-83.74
X135.0Y-86.28
X135.0Y-88.82
X135.0Y-91.36
X135.0Y-93.9
X135.0Y-96.44
X135.0Y-98.98
X135.0Y-101.52
X135.0Y-104.06
X141.0Y-51.34
X141.0Y-53.88
X141.0Y-56.42
X141.0Y-58.96
X141.0Y-61.5
X141.0Y-64.04
X141.5Y-75.92
X141.5Y-78.46
X141.5Y-81.0
X141.5Y-83.54
X141.5Y-86.08
X141.5Y-88.62
X142.22Y-98.5
X144.76Y-98.5
X147.3Y-98.5
X149.84Y-98.5
X152.38Y-98.5
X154.92Y-98.5
X157.46Y-98.5
X160.0Y-98.5
T4
X105.25Y-52.532
X110.25Y-52.532
X121.75Y-52.032
X126.75Y-52.032
X131.75Y-52.032
M30
