%TF.GenerationSoftware,KiCad,Pcbnew,9.0.6*%
%TF.CreationDate,2026-02-04T13:08:17-07:00*%
%TF.ProjectId,Uno_Shield_DSP_Class_v1,556e6f5f-5368-4696-956c-645f4453505f,rev?*%
%TF.SameCoordinates,Original*%
%TF.FileFunction,Legend,Bot*%
%TF.FilePolarity,Positive*%
%FSLAX46Y46*%
G04 Gerber Fmt 4.6, Leading zero omitted, Abs format (unit mm)*
G04 Created by KiCad (PCBNEW 9.0.6) date 2026-02-04 13:08:17*
%MOMM*%
%LPD*%
G01*
G04 APERTURE LIST*
%ADD10C,0.150000*%
G04 APERTURE END LIST*
D10*
X108425220Y-81369819D02*
X108425220Y-80369819D01*
X108425220Y-80369819D02*
X108091887Y-81084104D01*
X108091887Y-81084104D02*
X107758554Y-80369819D01*
X107758554Y-80369819D02*
X107758554Y-81369819D01*
X107282363Y-81369819D02*
X107282363Y-80703152D01*
X107282363Y-80369819D02*
X107329982Y-80417438D01*
X107329982Y-80417438D02*
X107282363Y-80465057D01*
X107282363Y-80465057D02*
X107234744Y-80417438D01*
X107234744Y-80417438D02*
X107282363Y-80369819D01*
X107282363Y-80369819D02*
X107282363Y-80465057D01*
X106377602Y-81322200D02*
X106472840Y-81369819D01*
X106472840Y-81369819D02*
X106663316Y-81369819D01*
X106663316Y-81369819D02*
X106758554Y-81322200D01*
X106758554Y-81322200D02*
X106806173Y-81274580D01*
X106806173Y-81274580D02*
X106853792Y-81179342D01*
X106853792Y-81179342D02*
X106853792Y-80893628D01*
X106853792Y-80893628D02*
X106806173Y-80798390D01*
X106806173Y-80798390D02*
X106758554Y-80750771D01*
X106758554Y-80750771D02*
X106663316Y-80703152D01*
X106663316Y-80703152D02*
X106472840Y-80703152D01*
X106472840Y-80703152D02*
X106377602Y-80750771D01*
X105949030Y-81369819D02*
X105949030Y-80703152D01*
X105949030Y-80893628D02*
X105901411Y-80798390D01*
X105901411Y-80798390D02*
X105853792Y-80750771D01*
X105853792Y-80750771D02*
X105758554Y-80703152D01*
X105758554Y-80703152D02*
X105663316Y-80703152D01*
X105187125Y-81369819D02*
X105282363Y-81322200D01*
X105282363Y-81322200D02*
X105329982Y-81274580D01*
X105329982Y-81274580D02*
X105377601Y-81179342D01*
X105377601Y-81179342D02*
X105377601Y-80893628D01*
X105377601Y-80893628D02*
X105329982Y-80798390D01*
X105329982Y-80798390D02*
X105282363Y-80750771D01*
X105282363Y-80750771D02*
X105187125Y-80703152D01*
X105187125Y-80703152D02*
X105044268Y-80703152D01*
X105044268Y-80703152D02*
X104949030Y-80750771D01*
X104949030Y-80750771D02*
X104901411Y-80798390D01*
X104901411Y-80798390D02*
X104853792Y-80893628D01*
X104853792Y-80893628D02*
X104853792Y-81179342D01*
X104853792Y-81179342D02*
X104901411Y-81274580D01*
X104901411Y-81274580D02*
X104949030Y-81322200D01*
X104949030Y-81322200D02*
X105044268Y-81369819D01*
X105044268Y-81369819D02*
X105187125Y-81369819D01*
X104425220Y-80703152D02*
X104425220Y-81703152D01*
X104425220Y-80750771D02*
X104329982Y-80703152D01*
X104329982Y-80703152D02*
X104139506Y-80703152D01*
X104139506Y-80703152D02*
X104044268Y-80750771D01*
X104044268Y-80750771D02*
X103996649Y-80798390D01*
X103996649Y-80798390D02*
X103949030Y-80893628D01*
X103949030Y-80893628D02*
X103949030Y-81179342D01*
X103949030Y-81179342D02*
X103996649Y-81274580D01*
X103996649Y-81274580D02*
X104044268Y-81322200D01*
X104044268Y-81322200D02*
X104139506Y-81369819D01*
X104139506Y-81369819D02*
X104329982Y-81369819D01*
X104329982Y-81369819D02*
X104425220Y-81322200D01*
X103520458Y-81369819D02*
X103520458Y-80703152D01*
X103520458Y-80893628D02*
X103472839Y-80798390D01*
X103472839Y-80798390D02*
X103425220Y-80750771D01*
X103425220Y-80750771D02*
X103329982Y-80703152D01*
X103329982Y-80703152D02*
X103234744Y-80703152D01*
X102758553Y-81369819D02*
X102853791Y-81322200D01*
X102853791Y-81322200D02*
X102901410Y-81274580D01*
X102901410Y-81274580D02*
X102949029Y-81179342D01*
X102949029Y-81179342D02*
X102949029Y-80893628D01*
X102949029Y-80893628D02*
X102901410Y-80798390D01*
X102901410Y-80798390D02*
X102853791Y-80750771D01*
X102853791Y-80750771D02*
X102758553Y-80703152D01*
X102758553Y-80703152D02*
X102615696Y-80703152D01*
X102615696Y-80703152D02*
X102520458Y-80750771D01*
X102520458Y-80750771D02*
X102472839Y-80798390D01*
X102472839Y-80798390D02*
X102425220Y-80893628D01*
X102425220Y-80893628D02*
X102425220Y-81179342D01*
X102425220Y-81179342D02*
X102472839Y-81274580D01*
X102472839Y-81274580D02*
X102520458Y-81322200D01*
X102520458Y-81322200D02*
X102615696Y-81369819D01*
X102615696Y-81369819D02*
X102758553Y-81369819D01*
X101568077Y-81322200D02*
X101663315Y-81369819D01*
X101663315Y-81369819D02*
X101853791Y-81369819D01*
X101853791Y-81369819D02*
X101949029Y-81322200D01*
X101949029Y-81322200D02*
X101996648Y-81274580D01*
X101996648Y-81274580D02*
X102044267Y-81179342D01*
X102044267Y-81179342D02*
X102044267Y-80893628D01*
X102044267Y-80893628D02*
X101996648Y-80798390D01*
X101996648Y-80798390D02*
X101949029Y-80750771D01*
X101949029Y-80750771D02*
X101853791Y-80703152D01*
X101853791Y-80703152D02*
X101663315Y-80703152D01*
X101663315Y-80703152D02*
X101568077Y-80750771D01*
X100758553Y-81322200D02*
X100853791Y-81369819D01*
X100853791Y-81369819D02*
X101044267Y-81369819D01*
X101044267Y-81369819D02*
X101139505Y-81322200D01*
X101139505Y-81322200D02*
X101187124Y-81226961D01*
X101187124Y-81226961D02*
X101187124Y-80846009D01*
X101187124Y-80846009D02*
X101139505Y-80750771D01*
X101139505Y-80750771D02*
X101044267Y-80703152D01*
X101044267Y-80703152D02*
X100853791Y-80703152D01*
X100853791Y-80703152D02*
X100758553Y-80750771D01*
X100758553Y-80750771D02*
X100710934Y-80846009D01*
X100710934Y-80846009D02*
X100710934Y-80941247D01*
X100710934Y-80941247D02*
X101187124Y-81036485D01*
X100329981Y-81322200D02*
X100234743Y-81369819D01*
X100234743Y-81369819D02*
X100044267Y-81369819D01*
X100044267Y-81369819D02*
X99949029Y-81322200D01*
X99949029Y-81322200D02*
X99901410Y-81226961D01*
X99901410Y-81226961D02*
X99901410Y-81179342D01*
X99901410Y-81179342D02*
X99949029Y-81084104D01*
X99949029Y-81084104D02*
X100044267Y-81036485D01*
X100044267Y-81036485D02*
X100187124Y-81036485D01*
X100187124Y-81036485D02*
X100282362Y-80988866D01*
X100282362Y-80988866D02*
X100329981Y-80893628D01*
X100329981Y-80893628D02*
X100329981Y-80846009D01*
X100329981Y-80846009D02*
X100282362Y-80750771D01*
X100282362Y-80750771D02*
X100187124Y-80703152D01*
X100187124Y-80703152D02*
X100044267Y-80703152D01*
X100044267Y-80703152D02*
X99949029Y-80750771D01*
X99520457Y-81322200D02*
X99425219Y-81369819D01*
X99425219Y-81369819D02*
X99234743Y-81369819D01*
X99234743Y-81369819D02*
X99139505Y-81322200D01*
X99139505Y-81322200D02*
X99091886Y-81226961D01*
X99091886Y-81226961D02*
X99091886Y-81179342D01*
X99091886Y-81179342D02*
X99139505Y-81084104D01*
X99139505Y-81084104D02*
X99234743Y-81036485D01*
X99234743Y-81036485D02*
X99377600Y-81036485D01*
X99377600Y-81036485D02*
X99472838Y-80988866D01*
X99472838Y-80988866D02*
X99520457Y-80893628D01*
X99520457Y-80893628D02*
X99520457Y-80846009D01*
X99520457Y-80846009D02*
X99472838Y-80750771D01*
X99472838Y-80750771D02*
X99377600Y-80703152D01*
X99377600Y-80703152D02*
X99234743Y-80703152D01*
X99234743Y-80703152D02*
X99139505Y-80750771D01*
X98520457Y-81369819D02*
X98615695Y-81322200D01*
X98615695Y-81322200D02*
X98663314Y-81274580D01*
X98663314Y-81274580D02*
X98710933Y-81179342D01*
X98710933Y-81179342D02*
X98710933Y-80893628D01*
X98710933Y-80893628D02*
X98663314Y-80798390D01*
X98663314Y-80798390D02*
X98615695Y-80750771D01*
X98615695Y-80750771D02*
X98520457Y-80703152D01*
X98520457Y-80703152D02*
X98377600Y-80703152D01*
X98377600Y-80703152D02*
X98282362Y-80750771D01*
X98282362Y-80750771D02*
X98234743Y-80798390D01*
X98234743Y-80798390D02*
X98187124Y-80893628D01*
X98187124Y-80893628D02*
X98187124Y-81179342D01*
X98187124Y-81179342D02*
X98234743Y-81274580D01*
X98234743Y-81274580D02*
X98282362Y-81322200D01*
X98282362Y-81322200D02*
X98377600Y-81369819D01*
X98377600Y-81369819D02*
X98520457Y-81369819D01*
X97758552Y-81369819D02*
X97758552Y-80703152D01*
X97758552Y-80893628D02*
X97710933Y-80798390D01*
X97710933Y-80798390D02*
X97663314Y-80750771D01*
X97663314Y-80750771D02*
X97568076Y-80703152D01*
X97568076Y-80703152D02*
X97472838Y-80703152D01*
X97187123Y-81322200D02*
X97091885Y-81369819D01*
X97091885Y-81369819D02*
X96901409Y-81369819D01*
X96901409Y-81369819D02*
X96806171Y-81322200D01*
X96806171Y-81322200D02*
X96758552Y-81226961D01*
X96758552Y-81226961D02*
X96758552Y-81179342D01*
X96758552Y-81179342D02*
X96806171Y-81084104D01*
X96806171Y-81084104D02*
X96901409Y-81036485D01*
X96901409Y-81036485D02*
X97044266Y-81036485D01*
X97044266Y-81036485D02*
X97139504Y-80988866D01*
X97139504Y-80988866D02*
X97187123Y-80893628D01*
X97187123Y-80893628D02*
X97187123Y-80846009D01*
X97187123Y-80846009D02*
X97139504Y-80750771D01*
X97139504Y-80750771D02*
X97044266Y-80703152D01*
X97044266Y-80703152D02*
X96901409Y-80703152D01*
X96901409Y-80703152D02*
X96806171Y-80750771D01*
X95663313Y-80369819D02*
X95425218Y-81369819D01*
X95425218Y-81369819D02*
X95234742Y-80655533D01*
X95234742Y-80655533D02*
X95044266Y-81369819D01*
X95044266Y-81369819D02*
X94806171Y-80369819D01*
X94425218Y-81369819D02*
X94425218Y-80703152D01*
X94425218Y-80369819D02*
X94472837Y-80417438D01*
X94472837Y-80417438D02*
X94425218Y-80465057D01*
X94425218Y-80465057D02*
X94377599Y-80417438D01*
X94377599Y-80417438D02*
X94425218Y-80369819D01*
X94425218Y-80369819D02*
X94425218Y-80465057D01*
X93949028Y-80703152D02*
X93949028Y-81369819D01*
X93949028Y-80798390D02*
X93901409Y-80750771D01*
X93901409Y-80750771D02*
X93806171Y-80703152D01*
X93806171Y-80703152D02*
X93663314Y-80703152D01*
X93663314Y-80703152D02*
X93568076Y-80750771D01*
X93568076Y-80750771D02*
X93520457Y-80846009D01*
X93520457Y-80846009D02*
X93520457Y-81369819D01*
X93187123Y-80703152D02*
X92806171Y-80703152D01*
X93044266Y-80369819D02*
X93044266Y-81226961D01*
X93044266Y-81226961D02*
X92996647Y-81322200D01*
X92996647Y-81322200D02*
X92901409Y-81369819D01*
X92901409Y-81369819D02*
X92806171Y-81369819D01*
X92091885Y-81322200D02*
X92187123Y-81369819D01*
X92187123Y-81369819D02*
X92377599Y-81369819D01*
X92377599Y-81369819D02*
X92472837Y-81322200D01*
X92472837Y-81322200D02*
X92520456Y-81226961D01*
X92520456Y-81226961D02*
X92520456Y-80846009D01*
X92520456Y-80846009D02*
X92472837Y-80750771D01*
X92472837Y-80750771D02*
X92377599Y-80703152D01*
X92377599Y-80703152D02*
X92187123Y-80703152D01*
X92187123Y-80703152D02*
X92091885Y-80750771D01*
X92091885Y-80750771D02*
X92044266Y-80846009D01*
X92044266Y-80846009D02*
X92044266Y-80941247D01*
X92044266Y-80941247D02*
X92520456Y-81036485D01*
X91615694Y-81369819D02*
X91615694Y-80703152D01*
X91615694Y-80893628D02*
X91568075Y-80798390D01*
X91568075Y-80798390D02*
X91520456Y-80750771D01*
X91520456Y-80750771D02*
X91425218Y-80703152D01*
X91425218Y-80703152D02*
X91329980Y-80703152D01*
X90282360Y-80465057D02*
X90234741Y-80417438D01*
X90234741Y-80417438D02*
X90139503Y-80369819D01*
X90139503Y-80369819D02*
X89901408Y-80369819D01*
X89901408Y-80369819D02*
X89806170Y-80417438D01*
X89806170Y-80417438D02*
X89758551Y-80465057D01*
X89758551Y-80465057D02*
X89710932Y-80560295D01*
X89710932Y-80560295D02*
X89710932Y-80655533D01*
X89710932Y-80655533D02*
X89758551Y-80798390D01*
X89758551Y-80798390D02*
X90329979Y-81369819D01*
X90329979Y-81369819D02*
X89710932Y-81369819D01*
X89091884Y-80369819D02*
X88996646Y-80369819D01*
X88996646Y-80369819D02*
X88901408Y-80417438D01*
X88901408Y-80417438D02*
X88853789Y-80465057D01*
X88853789Y-80465057D02*
X88806170Y-80560295D01*
X88806170Y-80560295D02*
X88758551Y-80750771D01*
X88758551Y-80750771D02*
X88758551Y-80988866D01*
X88758551Y-80988866D02*
X88806170Y-81179342D01*
X88806170Y-81179342D02*
X88853789Y-81274580D01*
X88853789Y-81274580D02*
X88901408Y-81322200D01*
X88901408Y-81322200D02*
X88996646Y-81369819D01*
X88996646Y-81369819D02*
X89091884Y-81369819D01*
X89091884Y-81369819D02*
X89187122Y-81322200D01*
X89187122Y-81322200D02*
X89234741Y-81274580D01*
X89234741Y-81274580D02*
X89282360Y-81179342D01*
X89282360Y-81179342D02*
X89329979Y-80988866D01*
X89329979Y-80988866D02*
X89329979Y-80750771D01*
X89329979Y-80750771D02*
X89282360Y-80560295D01*
X89282360Y-80560295D02*
X89234741Y-80465057D01*
X89234741Y-80465057D02*
X89187122Y-80417438D01*
X89187122Y-80417438D02*
X89091884Y-80369819D01*
X88377598Y-80465057D02*
X88329979Y-80417438D01*
X88329979Y-80417438D02*
X88234741Y-80369819D01*
X88234741Y-80369819D02*
X87996646Y-80369819D01*
X87996646Y-80369819D02*
X87901408Y-80417438D01*
X87901408Y-80417438D02*
X87853789Y-80465057D01*
X87853789Y-80465057D02*
X87806170Y-80560295D01*
X87806170Y-80560295D02*
X87806170Y-80655533D01*
X87806170Y-80655533D02*
X87853789Y-80798390D01*
X87853789Y-80798390D02*
X88425217Y-81369819D01*
X88425217Y-81369819D02*
X87806170Y-81369819D01*
X86949027Y-80369819D02*
X87139503Y-80369819D01*
X87139503Y-80369819D02*
X87234741Y-80417438D01*
X87234741Y-80417438D02*
X87282360Y-80465057D01*
X87282360Y-80465057D02*
X87377598Y-80607914D01*
X87377598Y-80607914D02*
X87425217Y-80798390D01*
X87425217Y-80798390D02*
X87425217Y-81179342D01*
X87425217Y-81179342D02*
X87377598Y-81274580D01*
X87377598Y-81274580D02*
X87329979Y-81322200D01*
X87329979Y-81322200D02*
X87234741Y-81369819D01*
X87234741Y-81369819D02*
X87044265Y-81369819D01*
X87044265Y-81369819D02*
X86949027Y-81322200D01*
X86949027Y-81322200D02*
X86901408Y-81274580D01*
X86901408Y-81274580D02*
X86853789Y-81179342D01*
X86853789Y-81179342D02*
X86853789Y-80941247D01*
X86853789Y-80941247D02*
X86901408Y-80846009D01*
X86901408Y-80846009D02*
X86949027Y-80798390D01*
X86949027Y-80798390D02*
X87044265Y-80750771D01*
X87044265Y-80750771D02*
X87234741Y-80750771D01*
X87234741Y-80750771D02*
X87329979Y-80798390D01*
X87329979Y-80798390D02*
X87377598Y-80846009D01*
X87377598Y-80846009D02*
X87425217Y-80941247D01*
X100472839Y-79084104D02*
X99996649Y-79084104D01*
X100568077Y-79369819D02*
X100234744Y-78369819D01*
X100234744Y-78369819D02*
X99901411Y-79369819D01*
X99568077Y-79369819D02*
X99568077Y-78703152D01*
X99568077Y-78369819D02*
X99615696Y-78417438D01*
X99615696Y-78417438D02*
X99568077Y-78465057D01*
X99568077Y-78465057D02*
X99520458Y-78417438D01*
X99520458Y-78417438D02*
X99568077Y-78369819D01*
X99568077Y-78369819D02*
X99568077Y-78465057D01*
X98663316Y-79369819D02*
X98663316Y-78369819D01*
X98663316Y-79322200D02*
X98758554Y-79369819D01*
X98758554Y-79369819D02*
X98949030Y-79369819D01*
X98949030Y-79369819D02*
X99044268Y-79322200D01*
X99044268Y-79322200D02*
X99091887Y-79274580D01*
X99091887Y-79274580D02*
X99139506Y-79179342D01*
X99139506Y-79179342D02*
X99139506Y-78893628D01*
X99139506Y-78893628D02*
X99091887Y-78798390D01*
X99091887Y-78798390D02*
X99044268Y-78750771D01*
X99044268Y-78750771D02*
X98949030Y-78703152D01*
X98949030Y-78703152D02*
X98758554Y-78703152D01*
X98758554Y-78703152D02*
X98663316Y-78750771D01*
X97758554Y-79369819D02*
X97758554Y-78846009D01*
X97758554Y-78846009D02*
X97806173Y-78750771D01*
X97806173Y-78750771D02*
X97901411Y-78703152D01*
X97901411Y-78703152D02*
X98091887Y-78703152D01*
X98091887Y-78703152D02*
X98187125Y-78750771D01*
X97758554Y-79322200D02*
X97853792Y-79369819D01*
X97853792Y-79369819D02*
X98091887Y-79369819D01*
X98091887Y-79369819D02*
X98187125Y-79322200D01*
X98187125Y-79322200D02*
X98234744Y-79226961D01*
X98234744Y-79226961D02*
X98234744Y-79131723D01*
X98234744Y-79131723D02*
X98187125Y-79036485D01*
X98187125Y-79036485D02*
X98091887Y-78988866D01*
X98091887Y-78988866D02*
X97853792Y-78988866D01*
X97853792Y-78988866D02*
X97758554Y-78941247D01*
X97282363Y-78703152D02*
X97282363Y-79369819D01*
X97282363Y-78798390D02*
X97234744Y-78750771D01*
X97234744Y-78750771D02*
X97139506Y-78703152D01*
X97139506Y-78703152D02*
X96996649Y-78703152D01*
X96996649Y-78703152D02*
X96901411Y-78750771D01*
X96901411Y-78750771D02*
X96853792Y-78846009D01*
X96853792Y-78846009D02*
X96853792Y-79369819D01*
X95758553Y-78369819D02*
X95187125Y-78369819D01*
X95472839Y-79369819D02*
X95472839Y-78369819D01*
X94853791Y-79274580D02*
X94806172Y-79322200D01*
X94806172Y-79322200D02*
X94853791Y-79369819D01*
X94853791Y-79369819D02*
X94901410Y-79322200D01*
X94901410Y-79322200D02*
X94853791Y-79274580D01*
X94853791Y-79274580D02*
X94853791Y-79369819D01*
X93615696Y-79369819D02*
X93615696Y-78369819D01*
X93615696Y-78369819D02*
X93377601Y-78369819D01*
X93377601Y-78369819D02*
X93234744Y-78417438D01*
X93234744Y-78417438D02*
X93139506Y-78512676D01*
X93139506Y-78512676D02*
X93091887Y-78607914D01*
X93091887Y-78607914D02*
X93044268Y-78798390D01*
X93044268Y-78798390D02*
X93044268Y-78941247D01*
X93044268Y-78941247D02*
X93091887Y-79131723D01*
X93091887Y-79131723D02*
X93139506Y-79226961D01*
X93139506Y-79226961D02*
X93234744Y-79322200D01*
X93234744Y-79322200D02*
X93377601Y-79369819D01*
X93377601Y-79369819D02*
X93615696Y-79369819D01*
X92472839Y-79369819D02*
X92568077Y-79322200D01*
X92568077Y-79322200D02*
X92615696Y-79274580D01*
X92615696Y-79274580D02*
X92663315Y-79179342D01*
X92663315Y-79179342D02*
X92663315Y-78893628D01*
X92663315Y-78893628D02*
X92615696Y-78798390D01*
X92615696Y-78798390D02*
X92568077Y-78750771D01*
X92568077Y-78750771D02*
X92472839Y-78703152D01*
X92472839Y-78703152D02*
X92329982Y-78703152D01*
X92329982Y-78703152D02*
X92234744Y-78750771D01*
X92234744Y-78750771D02*
X92187125Y-78798390D01*
X92187125Y-78798390D02*
X92139506Y-78893628D01*
X92139506Y-78893628D02*
X92139506Y-79179342D01*
X92139506Y-79179342D02*
X92187125Y-79274580D01*
X92187125Y-79274580D02*
X92234744Y-79322200D01*
X92234744Y-79322200D02*
X92329982Y-79369819D01*
X92329982Y-79369819D02*
X92472839Y-79369819D01*
X91710934Y-78703152D02*
X91710934Y-79369819D01*
X91710934Y-78798390D02*
X91663315Y-78750771D01*
X91663315Y-78750771D02*
X91568077Y-78703152D01*
X91568077Y-78703152D02*
X91425220Y-78703152D01*
X91425220Y-78703152D02*
X91329982Y-78750771D01*
X91329982Y-78750771D02*
X91282363Y-78846009D01*
X91282363Y-78846009D02*
X91282363Y-79369819D01*
X90806172Y-78703152D02*
X90806172Y-79369819D01*
X90806172Y-78798390D02*
X90758553Y-78750771D01*
X90758553Y-78750771D02*
X90663315Y-78703152D01*
X90663315Y-78703152D02*
X90520458Y-78703152D01*
X90520458Y-78703152D02*
X90425220Y-78750771D01*
X90425220Y-78750771D02*
X90377601Y-78846009D01*
X90377601Y-78846009D02*
X90377601Y-79369819D01*
X89520458Y-79322200D02*
X89615696Y-79369819D01*
X89615696Y-79369819D02*
X89806172Y-79369819D01*
X89806172Y-79369819D02*
X89901410Y-79322200D01*
X89901410Y-79322200D02*
X89949029Y-79226961D01*
X89949029Y-79226961D02*
X89949029Y-78846009D01*
X89949029Y-78846009D02*
X89901410Y-78750771D01*
X89901410Y-78750771D02*
X89806172Y-78703152D01*
X89806172Y-78703152D02*
X89615696Y-78703152D01*
X89615696Y-78703152D02*
X89520458Y-78750771D01*
X89520458Y-78750771D02*
X89472839Y-78846009D01*
X89472839Y-78846009D02*
X89472839Y-78941247D01*
X89472839Y-78941247D02*
X89949029Y-79036485D01*
X88901410Y-79369819D02*
X88996648Y-79322200D01*
X88996648Y-79322200D02*
X89044267Y-79226961D01*
X89044267Y-79226961D02*
X89044267Y-78369819D01*
X88377600Y-79369819D02*
X88472838Y-79322200D01*
X88472838Y-79322200D02*
X88520457Y-79226961D01*
X88520457Y-79226961D02*
X88520457Y-78369819D01*
X87568076Y-79369819D02*
X87568076Y-78846009D01*
X87568076Y-78846009D02*
X87615695Y-78750771D01*
X87615695Y-78750771D02*
X87710933Y-78703152D01*
X87710933Y-78703152D02*
X87901409Y-78703152D01*
X87901409Y-78703152D02*
X87996647Y-78750771D01*
X87568076Y-79322200D02*
X87663314Y-79369819D01*
X87663314Y-79369819D02*
X87901409Y-79369819D01*
X87901409Y-79369819D02*
X87996647Y-79322200D01*
X87996647Y-79322200D02*
X88044266Y-79226961D01*
X88044266Y-79226961D02*
X88044266Y-79131723D01*
X88044266Y-79131723D02*
X87996647Y-79036485D01*
X87996647Y-79036485D02*
X87901409Y-78988866D01*
X87901409Y-78988866D02*
X87663314Y-78988866D01*
X87663314Y-78988866D02*
X87568076Y-78941247D01*
X87091885Y-78703152D02*
X87091885Y-79369819D01*
X87091885Y-78798390D02*
X87044266Y-78750771D01*
X87044266Y-78750771D02*
X86949028Y-78703152D01*
X86949028Y-78703152D02*
X86806171Y-78703152D01*
X86806171Y-78703152D02*
X86710933Y-78750771D01*
X86710933Y-78750771D02*
X86663314Y-78846009D01*
X86663314Y-78846009D02*
X86663314Y-79369819D01*
M02*
